<svg xmlns="http://www.w3.org/2000/svg" xmlns:xlink="http://www.w3.org/1999/xlink" width="88.2678" height="92.2006" viewBox="0 0 88.2678 92.2006"><defs><filter id="luminosity-invert-noclip" x="25.2469" y="62.321" width="8.9756" height="13.315" filterUnits="userSpaceOnUse" color-interpolation-filters="sRGB"><feColorMatrix values="-1 0 0 0 1 0 -1 0 0 1 0 0 -1 0 1 0 0 0 1 0" result="invert"/><feFlood flood-color="#fff" result="bg"/><feBlend in="invert" in2="bg"/></filter><mask id="mask" x="25.2469" y="62.321" width="8.9756" height="13.315" maskUnits="userSpaceOnUse"><g filter="url(#luminosity-invert-noclip)"><path d="M29.5576,72.0864c.3846.0007.77-.0157,1.1534.0048.7066.0378,1.3156.3019,1.1249,1.65a.4736.4736,0,0,1-.1606.2682,3.6415,3.6415,0,0,1-3.6759.42,1.1858,1.1858,0,0,1-.5889-1.5039,1.0274,1.0274,0,0,1,1.1976-.8449C28.9218,72.1111,29.241,72.0856,29.5576,72.0864Z" fill="#fefefe"/><path d="M30.3328,65.8871a10.2158,10.2158,0,0,1-.0881,1.0634.923.923,0,0,1-1.0415.8367.91.91,0,0,1-.9655-.84,5.3363,5.3363,0,0,1,.0069-2.0873c.1366-.7009.6385-.9927,1.7066-.7047A3.47,3.47,0,0,1,30.3328,65.8871Z" fill="#fefdfd"/></g></mask><filter id="luminosity-invert-noclip-2" x="0" y="60.2902" width="10.5396" height="11.403" filterUnits="userSpaceOnUse" color-interpolation-filters="sRGB"><feColorMatrix values="-1 0 0 0 1 0 -1 0 0 1 0 0 -1 0 1 0 0 0 1 0" result="invert"/><feFlood flood-color="#fff" result="bg"/><feBlend in="invert" in2="bg"/></filter><mask id="mask-2" x="0" y="60.2902" width="10.5396" height="11.403" maskUnits="userSpaceOnUse"><path d="M7.6957,65.9644a12.282,12.282,0,0,1-.3671,3.0841,2.0518,2.0518,0,0,1-2.0355,1.6626A1.9762,1.9762,0,0,1,3.2447,69.08,11.5541,11.5541,0,0,1,3.25,62.864a1.9648,1.9648,0,0,1,2.07-1.6015,2.0253,2.0253,0,0,1,1.9988,1.619A12.0222,12.0222,0,0,1,7.6957,65.9644Z" fill="#fefefe" filter="url(#luminosity-invert-noclip-2)"/></mask><filter id="luminosity-invert-noclip-3" x="33.4195" y="63.1064" width="8.4015" height="8.5982" filterUnits="userSpaceOnUse" color-interpolation-filters="sRGB"><feColorMatrix values="-1 0 0 0 1 0 -1 0 0 1 0 0 -1 0 1 0 0 0 1 0" result="invert"/><feFlood flood-color="#fff" result="bg"/><feBlend in="invert" in2="bg"/></filter><mask id="mask-3" x="33.4195" y="63.1064" width="8.4015" height="8.5982" maskUnits="userSpaceOnUse"><path d="M36.1177,67.3874a7.453,7.453,0,0,1,.1508-2.0208c.1788-.8527.6253-1.2769,1.328-1.2894.75-.0134,1.1651.3166,1.3725,1.2159a9.2783,9.2783,0,0,1-.0044,4.2313c-.2053.88-.6528,1.2283-1.3889,1.2036-.6718-.0226-1.1153-.4344-1.2963-1.2531A7.2826,7.2826,0,0,1,36.1177,67.3874Z" fill="#fefefe" filter="url(#luminosity-invert-noclip-3)"/></mask><filter id="luminosity-invert-noclip-4" x="67.6391" y="63.1229" width="8.1839" height="8.5661" filterUnits="userSpaceOnUse" color-interpolation-filters="sRGB"><feColorMatrix values="-1 0 0 0 1 0 -1 0 0 1 0 0 -1 0 1 0 0 0 1 0" result="invert"/><feFlood flood-color="#fff" result="bg"/><feBlend in="invert" in2="bg"/></filter><mask id="mask-4" x="67.6391" y="63.1229" width="8.1839" height="8.5661" maskUnits="userSpaceOnUse"><path d="M72.1038,68.8924c-.0211.5109.18,1.11-.6163,1.2675a1.0811,1.0811,0,0,1-1.3991-.7163,1.1511,1.1511,0,0,1,.85-1.5112C71.9331,67.6728,72.1041,67.8137,72.1038,68.8924Z" fill="#fefdfd" filter="url(#luminosity-invert-noclip-4)"/></mask><filter id="luminosity-invert-noclip-5" x="17.8249" y="63.134" width="7.3536" height="8.5356" filterUnits="userSpaceOnUse" color-interpolation-filters="sRGB"><feColorMatrix values="-1 0 0 0 1 0 -1 0 0 1 0 0 -1 0 1 0 0 0 1 0" result="invert"/><feFlood flood-color="#fff" result="bg"/><feBlend in="invert" in2="bg"/></filter><mask id="mask-5" x="17.8249" y="63.134" width="7.3536" height="8.5356" maskUnits="userSpaceOnUse"><path d="M21.5264,66.3347a.1889.1889,0,0,1-.0673-.001c-.3519-.1446-.9346.3408-1.0757-.2854a1.9353,1.9353,0,0,1,1.24-1.9658c.6564-.1041,1.0622.206,1.2336.9436.0205.0879.0431.1759.0548.2651.1256.9634.0553,1.0432-.911,1.0436Z" fill="#fefcfc" filter="url(#luminosity-invert-noclip-5)"/></mask><filter id="luminosity-invert-noclip-6" x="80.9827" y="63.1304" width="7.2851" height="8.5606" filterUnits="userSpaceOnUse" color-interpolation-filters="sRGB"><feColorMatrix values="-1 0 0 0 1 0 -1 0 0 1 0 0 -1 0 1 0 0 0 1 0" result="invert"/><feFlood flood-color="#fff" result="bg"/><feBlend in="invert" in2="bg"/></filter><mask id="mask-6" x="80.9827" y="63.1304" width="7.2851" height="8.5606" maskUnits="userSpaceOnUse"><path d="M84.6966,66.335a.5436.5436,0,0,1-.2007-.0035c-.3236-.1413-.8886.3274-.9894-.2916a2.0288,2.0288,0,0,1,1.1814-1.9486.9732.9732,0,0,1,1.2425.7267C86.3538,66.0943,86.1581,66.335,84.6966,66.335Z" fill="#fefcfb" filter="url(#luminosity-invert-noclip-6)"/></mask><filter id="luminosity-invert-noclip-7" x="41.5264" y="79.8459" width="6.8467" height="8.5458" filterUnits="userSpaceOnUse" color-interpolation-filters="sRGB"><feColorMatrix values="-1 0 0 0 1 0 -1 0 0 1 0 0 -1 0 1 0 0 0 1 0" result="invert"/><feFlood flood-color="#fff" result="bg"/><feBlend in="invert" in2="bg"/></filter><mask id="mask-7" x="41.5264" y="79.8459" width="6.8467" height="8.5458" maskUnits="userSpaceOnUse"><path d="M44.8614,82.9381c-.3151,0-.63.0007-.9454,0-.7382-.0017-.753-.0249-.488-.755a1.8448,1.8448,0,0,1,2.075-1.427,1.6952,1.6952,0,0,1,1.0485,2.0484c-.08.1645-.2144.13-.3395.1317C45.7618,82.9407,45.3116,82.938,44.8614,82.9381Z" fill="#fdfdfd" filter="url(#luminosity-invert-noclip-7)"/></mask></defs><title>osu-vert-logo_1</title><g id="Layer_2" data-name="Layer 2"><g id="Layer_1-2" data-name="Layer 1"><path d="M54.7863,10.8992l.2064-.6807c-.826,0-1.6051.0108-2.3836-.0054-.3025-.0063-.3589.2132-.4713.4017a.3811.3811,0,0,0,.0843.5293c.504.5182,1.0045,1.0423,1.4691,1.5954.2578.3069.4112.2525.6917.02a6.3556,6.3556,0,0,1,6.1484-1.3272,6.6186,6.6186,0,0,1,3.9363,3.5149A17.278,17.278,0,0,1,66.18,20.6223a31.1269,31.1269,0,0,1,.24,7.7013,28.5454,28.5454,0,0,1-4.1781,12.0532,44.1583,44.1583,0,0,1-13.5547,13.652c-1.3646.9209-2.7923,1.7482-4.1854,2.6274a.6544.6544,0,0,1-.7929.0716A53.5178,53.5178,0,0,1,28.7921,44.5129,31.3892,31.3892,0,0,1,21.9309,30.048a29.1964,29.1964,0,0,1-.0251-9.1812,22.5145,22.5145,0,0,1,1.1765-4.7183A12.916,12.916,0,0,1,26.59,11.48c3.0756-2.9667,6.1982-5.8895,9.1694-8.9582,2.917-3.0128,8.3442-3.1977,11.4235-1.2377.1862.1185.379.2267.5636.3474,3.0908,2.0219,1.9416,1.5855,5.7845,1.6263a1.5753,1.5753,0,0,1,.9861.3222Q56.1241,4.765,57.7741,5.891c.2889.1967.3117.3442.167.6432C57.372,7.71,56.7925,8.883,56.2944,10.0891,55.9963,10.8109,55.588,11.1524,54.7863,10.8992Z" fill="#231f20"/><g mask="url(#mask)"><path d="M27.1514,71.8855c-.9445-.31-1.51-.8621-1.4731-1.7989.037-.944.6761-1.43,1.597-1.7081a2.46,2.46,0,0,1-1.5475-1.9654,2.7239,2.7239,0,0,1,.5305-2.0448A3.44,3.44,0,0,1,28.9438,63.14a7.6062,7.6062,0,0,1,3.1705.5075c.0762-.4114.0037-.8809.4309-1.13a1.1775,1.1775,0,0,1,.7744-.1861,1.0243,1.0243,0,0,1,.9013,1.1543c-.0358.8266-.3007.9553-2.1623,1.0172a2.1624,2.1624,0,0,1,.4234,2.6184A3.1624,3.1624,0,0,1,29.78,68.67a4.0015,4.0015,0,0,1-1.35-.049.6612.6612,0,0,0-.8961.5684c-.0831.563.3278.5931.7472.5912.9722-.0044,1.9455-.0215,2.9166.0147a2.4972,2.4972,0,0,1,2.7062,2.0656,2.7481,2.7481,0,0,1-1.7227,3.1846,8.1745,8.1745,0,0,1-5.4485.2374,1.7118,1.7118,0,0,1-1.4859-1.6912c.0072-.8174.4786-1.3146,1.5436-1.6253C26.8728,71.9425,26.9579,71.9286,27.1514,71.8855Z" fill="#d9451b"/></g><g mask="url(#mask-2)"><path d="M10.54,65.7965a8.0436,8.0436,0,0,1-.4006,2.6872,4.97,4.97,0,0,1-5.6751,3.1395c-2.7-.4-4.2257-2.1134-4.4391-4.989A7.965,7.965,0,0,1,.2,64.2072,4.879,4.879,0,0,1,5.6769,60.309a4.8294,4.8294,0,0,1,4.7863,4.6263C10.4861,65.1831,10.5072,65.431,10.54,65.7965Z" fill="#d9451b"/></g><path d="M70.5178,91.3415a2.7888,2.7888,0,0,0,1.3957-1.4628,2.5307,2.5307,0,0,0,.1975-2.5836c-.8928-1.89-1.5872-3.8739-2.3375-5.8291a.6334.6334,0,0,0-.6869-.4916c-.5425.0141-1.0872.0288-1.628-.0046-.424-.0261-.5373.1253-.53.5387.0248,1.3341.0066,2.669.01,4.0035.0037,1.5149.676,1.9921,2.1228,1.5489.2066-.0633.4718-.4215.6932-.0173.2049.3741-.1277.5361-.3449.7017a3.2348,3.2348,0,0,1-2.7652.5537,1.7255,1.7255,0,0,1-1.362-1.8635c-.0374-1.6051-.0386-3.2118-.0125-4.8172.0081-.4953-.1053-.692-.6324-.6531-.4563.0336-.6262-.3159-.3224-.6764.6694-.7946,1.38-1.5547,2.0764-2.3261A.37.37,0,0,1,66.82,77.84c.1626.0656.105.2267.1158.3522.01.1122.002.226.0022.3391.003,1.5372.003,1.5311,1.5719,1.5162q1.6919-.0159,3.3838.0033c.2391.0025.5582-.1282.6184.3119.0636.4654-.2986.3508-.521.4291-.1694.06-.3437.1053-.5593.17a49.2365,49.2365,0,0,1,1.8857,5.6625c.5932-1.845,1.138-3.5537,1.6957-5.2582.0852-.26.0085-.3792-.2368-.4444-.196-.0521-.3876-.1209-.5811-.1826a.3006.3006,0,0,1-.2444-.3974c.0416-.2217.1229-.3028.3482-.3.8142.01,1.6286.0033,2.4428.006.1987.0007.3382.0623.369.3.0289.2228-.0459.3646-.2509.4054-.53.1058-.6741.5159-.8332.9537q-1.2683,3.4895-2.5672,6.9676a9.5433,9.5433,0,0,1-1.2122,2.3369,2.625,2.625,0,0,1-2.577,1.1656,1.2482,1.2482,0,0,1-1.1469-1.47,1.0124,1.0124,0,0,1,1.3445-.858.9211.9211,0,0,1,.6409,1.2127A.296.296,0,0,0,70.5178,91.3415Z" fill="#231f20"/><path d="M45.2082,64.6865a3.2815,3.2815,0,0,1,3.3009-1.515A2.4367,2.4367,0,0,1,50.48,65.8076c.0441,1.3327.0381,2.6685.0057,4.0017-.0126.5194.0657.8671.6555.9386.1414.0171.4212.0287.3823.2525s-.1275.4893-.4657.4877c-1.1758-.0057-2.3517-.0024-3.5276-.0014-.18,0-.3032-.0507-.3143-.2613-.01-.1958.013-.3789.228-.4316.525-.1285.5218-.509.5142-.9391-.02-1.13.01-2.2616-.0137-3.3918-.0279-1.3457-.9738-1.8924-2.1681-1.2876a.8712.8712,0,0,0-.5532.8976c.0332,1.2428.0411,2.4882-.0024,3.73-.0189.5423.1117.8478.6762.9347.1544.0237.4609.0275.3713.3455a.4739.4739,0,0,1-.4752.4022c-1.1532-.002-2.3065,0-3.46-.001-.1687,0-.3178-.0416-.35-.2408-.0312-.1933-.0114-.3829.2159-.4276.6188-.1215.5657-.5764.5584-1.0374-.0142-.9043-.0348-1.81.0043-2.7132a3.3251,3.3251,0,0,0-.6762-2.5939c-.2423-.2645-.1426-.4254.18-.5267.7948-.25,1.5843-.5156,2.376-.7749.439-.1438.63-.01.5729.4719A10.3678,10.3678,0,0,0,45.2082,64.6865Z" fill="#d9451b"/><path d="M53.8873,71.6308c-.0945-1.0663-.1885-2.0768-.27-3.0883-.015-.1867-.1031-.43.1772-.5134a.4869.4869,0,0,1,.6268.2355c.2571.4242.5483.8285.8372,1.2325a2.6207,2.6207,0,0,0,1.9392,1.2209,1.5024,1.5024,0,0,0,1.707-.9123,1.7235,1.7235,0,0,0-.6819-2.0244,13.4583,13.4583,0,0,0-2.2188-.994,3.2651,3.2651,0,0,1-2.2464-3.67c.1324-1.6242,1.4378-2.7266,3.346-2.8137a5.6679,5.6679,0,0,1,1.875.2348,1.3523,1.3523,0,0,0,1.2246-.0777c.2053-.1356.3744-.132.3881.1954.0349.8351.0849,1.67.1308,2.5042.01.1756-.0331.3162-.2242.3605a.4266.4266,0,0,1-.4794-.1614c-.295-.3988-.5867-.8-.8908-1.1921a2.2293,2.2293,0,0,0-1.7876-.944,1.3425,1.3425,0,0,0-1.4565.8609,1.5429,1.5429,0,0,0,.54,1.8112,4.775,4.775,0,0,0,.8942.4709c.5785.2522,1.1771.46,1.7493.7247A3.3413,3.3413,0,0,1,61.1655,68.86a3.2194,3.2194,0,0,1-3.1866,2.79A5.4249,5.4249,0,0,1,55.9,71.4622,1.9356,1.9356,0,0,0,53.8873,71.6308Z" fill="#d9451b"/><g mask="url(#mask-3)"><path d="M41.8209,67.8905a3.5357,3.5357,0,0,1-1.9527,3.2619,4.805,4.805,0,0,1-4.8426-.2155,2.7735,2.7735,0,0,1-1.0931-1.2641,5.2681,5.2681,0,0,1,.0217-4.5806,4.113,4.113,0,0,1,4.48-1.9157C40.6772,63.5422,41.8264,64.98,41.8209,67.8905Z" fill="#d9451b"/></g><g mask="url(#mask-4)"><path d="M72.1636,70.5822A2.4807,2.4807,0,0,1,69.92,71.67a2.0652,2.0652,0,0,1-2.2261-1.7553,2.2028,2.2028,0,0,1,1.3728-2.6342,4.4729,4.4729,0,0,1,2.5884-.2848c.3974.0792.4489-.0427.4555-.39a1.5032,1.5032,0,0,0-1.65-1.7584,4.2165,4.2165,0,0,0-1.9126.3566c-.1832.0835-.3652.2293-.5123-.0472a.4542.4542,0,0,1,.0408-.5912,4.66,4.66,0,0,1,5.1589-1.0689,2.698,2.698,0,0,1,1.387,2.6021c.026,1.1739.0137,2.3488.0041,3.5231-.0047.5757.1468.9886.8289.9555.1673-.0081.3168.0082.36.2146.0412.195-.0937.2819-.2156.3833A2.3263,2.3263,0,0,1,72.1636,70.5822Z" fill="#d9451b"/></g><path d="M12.3453,81.8446c0-.9271-.05-1.8578.0175-2.78a.81.81,0,0,0-.7543-1.0118c-.2312-.0473-.6489.04-.6095-.4364.04-.486.4035-.3893.7077-.39,1.0627-.0024,2.1256.01,3.188-.0075.317-.0051.5047.0626.5708.4053.0746.3866-.2519.3562-.4168.3751-.7881.0906-.984.4978-.9506,1.2686.07,1.625.0205,3.2551.0223,4.8831a6.6556,6.6556,0,0,0,.0232.7452A2.3639,2.3639,0,0,0,16.6548,87.28a2.5628,2.5628,0,0,0,2.8923-2.3344c.2324-2.1166.05-4.2465.0991-6.37a.3414.3414,0,0,0-.3054-.3744c-.26-.0694-.5109-.1716-.7718-.234-.2224-.0532-.2809-.17-.261-.3879.0231-.2521.1349-.3567.3866-.3553q1.5262.0081,3.0525-.0007c.2661-.0019.3392.1444.3859.3694.06.29-.1254.3768-.33.3916-.96.0693-1.0731.6418-1.0352,1.4706.0682,1.4892-.0311,2.9858.0292,4.4757.1491,3.6853-2.7007,4.9828-5.7348,4.2807a3.2254,3.2254,0,0,1-2.7112-3.5179c-.0164-.9494-.0028-1.8993-.0028-2.8489Z" fill="#231f20"/><g mask="url(#mask-5)"><path d="M22.6332,67.2565c-.6324,0-1.2651.012-1.8971-.0043-.3489-.0091-.4637.0828-.4265.4674a2.39,2.39,0,0,0,3.8015,1.9221c.2211-.1241.4257-.4661.74-.0856.2916.3528-.0315.5606-.1754.7574a3.5969,3.5969,0,0,1-3.8126,1.2689A3.3246,3.3246,0,0,1,17.969,68.748a4.6707,4.6707,0,0,1,1.2339-4.6023,4.1529,4.1529,0,0,1,4.7258-.4864,3.3026,3.3026,0,0,1,1.1678,3.2643c-.0761.2773-.2429.3393-.4983.3357C23.9433,67.25,23.2882,67.2562,22.6332,67.2565Z" fill="#d9451b"/></g><g mask="url(#mask-6)"><path d="M85.7627,67.2565c-.5876,0-1.1774.0316-1.7621-.0092-.5262-.0368-.5885.192-.5324.6388a2.35,2.35,0,0,0,3.5138,1.8966,3.7973,3.7973,0,0,0,.41-.2352c.1949-.1269.3568-.25.5819-.0048.2229.2432.0713.4239-.0388.6026a2.9458,2.9458,0,0,1-1.7264,1.3137,3.7844,3.7844,0,0,1-5.214-3.5776c-.1779-2.9042,1.6905-4.9307,4.43-4.7384,2.1972.1542,3.0441,1.71,2.8046,3.794-.0356.31-.2623.32-.5.32C87.0734,67.2551,86.418,67.2563,85.7627,67.2565Z" fill="#d9451b"/></g><path d="M30.5113,87.6045c-.0736.5128-.3733.6412-.8581.6167-.812-.041-1.6275-.0089-2.4415-.0126-.2372-.0011-.5124.07-.5719-.2992-.0531-.3306.194-.38.4017-.4256.4109-.09.5118-.324.5037-.7269-.0259-1.2883-.0014-2.5776-.012-3.8663-.01-1.258-.6616-1.7516-1.894-1.4566-1.17.28-1.3245.4687-1.3245,1.62,0,1.1532.0338,2.3078-.0142,3.4589-.0242.58.1264.8871.7337.9217a2.6211,2.6211,0,0,1,.58.1686c-.0735.4783-.3313.6445-.8281.6194-.88-.0445-1.7631-.0084-2.6449-.0163-.1582-.0015-.3845.0919-.4176-.1983-.0288-.2528.0186-.4486.3212-.4826.5722-.0643.61-.441.5984-.92-.0294-1.22-.0455-2.4432.0042-3.6622a1.8572,1.8572,0,0,0-.6433-1.6754c-.3892-.3183-.374-.5647.16-.73a16.6392,16.6392,0,0,0,1.6411-.6179c.3841-.165.5446-.1023.4969.3376a2.2671,2.2671,0,0,1-.0963.9013c.3048.0515.38-.1819.5139-.3182a3.189,3.189,0,0,1,1.7593-.94,2.1394,2.1394,0,0,1,2.704,2.08c.0623,1.4445.0686,2.8951.0122,4.34-.0277.7065.139,1.105.8824,1.158A2.02,2.02,0,0,1,30.5113,87.6045Z" fill="#231f20"/><path d="M14.144,64.82c.268-.3636.4692-.6826.716-.9613a2.0779,2.0779,0,0,1,1.6145-.73,1.45,1.45,0,0,1,1.5869,1.2547,1.3466,1.3466,0,0,1-.9217,1.6c-.8811.1965-1.4015-.1493-1.7381-1.1781a1.9623,1.9623,0,0,0-1.2246,1.9731,20.1341,20.1341,0,0,1,.0042,2.9134c-.0339.6083.1238.91.764.9892.2481.0308.7525-.1072.7422.3423-.0124.5375-.4956.4678-.88.4668-1.13-.0027-2.26.0007-3.3905-.0027-.1938-.0006-.4219.0568-.4873-.2325a.3839.3839,0,0,1,.3285-.497c.4009-.0987.43-.3692.4241-.7153-.0168-1.0621-.0338-2.1256.0028-3.1867a2.997,2.997,0,0,0-.6-2.2766c-.29-.3255-.204-.5305.2342-.6565.7571-.2176,1.5009-.4824,2.2473-.7361.4344-.1477.6332-.0476.5839.4514C14.1147,64.0057,14.144,64.3811,14.144,64.82Z" fill="#d9451b"/><path d="M62.4,67.1336c0-.7453-.0265-1.4918.01-2.2353.0223-.456-.1357-.596-.5743-.561-.1869.0149-.4867.1544-.5607-.1831a.622.622,0,0,1,.2227-.6609c.8642-.7252,1.7154-1.4663,2.5635-2.21a.661.661,0,0,1,.6917-.14c.2385.09.1081.3519.13.5381.0633.53-.2494,1.2578.1371,1.5429.3549.2618,1.046.1111,1.5835.07.5906-.0448.8408.0841.63.7292-.0768.2353-.1345.3392-.3881.33-.4511-.0164-.9078.0363-1.3536-.0147-.5375-.0615-.63.16-.6165.6429.0338,1.2186.0051,2.4388.013,3.6582.0087,1.35.6207,1.7688,1.9219,1.377.1959-.059.4191-.45.6752-.0588.2333.3565-.0634.54-.25.7392a3.2808,3.2808,0,0,1-3.5592.7425,2.006,2.006,0,0,1-1.2362-1.8684c-.0458-.81-.01-1.6248-.01-2.4375Z" fill="#d9451b"/><path d="M76.0045,67.1285c0-.7457-.0169-1.4918.0071-2.2366.0123-.3816-.0461-.6011-.5047-.5552-.1905.0191-.49.1578-.5867-.14a.6723.6723,0,0,1,.2586-.7739c.8354-.69,1.6531-1.4008,2.4691-2.1136a.6716.6716,0,0,1,.6853-.17c.2236.0766.1157.3079.1338.4733.06.55-.2524,1.3066.15,1.6009.3726.2727,1.0865.0827,1.65.09.6677.0086.7419.1193.5765.74a.3547.3547,0,0,1-.424.3087c-.4968-.0129-.9952.0171-1.4908-.01-.3686-.02-.4564.1259-.4517.47.017,1.265-.0033,2.5305.01,3.7957.0141,1.4067.6864,1.8467,2.0336,1.3748.1657-.058.3487-.3621.565-.0354.1877.2836.0123.46-.15.6529a3.2966,3.2966,0,0,1-3.7186.8126,2.1246,2.1246,0,0,1-1.1921-1.9807c-.0356-.7665-.0075-1.5359-.0075-2.304Z" fill="#d9451b"/><g mask="url(#mask-7)"><path d="M45.6793,83.7874c-.6783,0-1.3575.0217-2.0344-.0082-.3951-.0174-.4929.1128-.473.4986.1259,2.4348,2.0785,3.5383,4.2492,2.4061.1767-.0922.3646-.5226.6578-.1217.2605.3562-.0655.5515-.2417.7423a3.5446,3.5446,0,0,1-3.4823.9937,3.2028,3.2028,0,0,1-2.5932-2.477,5.5506,5.5506,0,0,1,.2079-3.78A3.7738,3.7738,0,0,1,46.21,79.94a2.9074,2.9074,0,0,1,2.062,3.5327c-.0857.2989-.2465.32-.49.3171C47.0811,83.7823,46.38,83.7873,45.6793,83.7874Z" fill="#231f20"/></g><path d="M55.0011,88.4524c-.06-.8268-.1229-1.5214-.1531-2.2174-.01-.2414-.1554-.5723.2437-.6729.3836-.0967.3612.2714.4642.4539a2.46,2.46,0,0,0,2.4485,1.5806c.5438-.0479.977-.2183,1.1183-.7953a1.18,1.18,0,0,0-.5849-1.39,12.4392,12.4392,0,0,0-1.8878-.7323A2.3785,2.3785,0,0,1,54.9418,82.47,2.4568,2.4568,0,0,1,58.06,79.88c.5843.0936,1.1439.402,1.7627.084.24-.1234.2891.1356.301.3151.0385.5863.063,1.1735.0975,1.76.0087.1477-.0157.269-.1687.3291a.2971.2971,0,0,1-.3982-.1346,11.0487,11.0487,0,0,0-.745-.961,1.7394,1.7394,0,0,0-1.3219-.5914,1.1087,1.1087,0,0,0-1.19.7117,1.1737,1.1737,0,0,0,.4886,1.4241,4.5587,4.5587,0,0,0,1.2457.5164,6.4181,6.4181,0,0,1,1.37.5717,2.3582,2.3582,0,0,1,1.0684,2.5791,2.0745,2.0745,0,0,1-1.731,1.7608,3.9176,3.9176,0,0,1-2.0768.0194C56.1682,88.093,55.5809,87.8535,55.0011,88.4524Z" fill="#231f20"/><path d="M38.26,86.3425c.54-1.8438,1.1551-3.45,1.7422-5.0654.0794-.2187-.0465-.2853-.2055-.3391-.2135-.0722-.43-.1347-.6446-.2044a.2877.2877,0,0,1-.23-.3986c.0525-.2179.14-.2957.36-.2932.8359.0092,1.6719.007,2.5078.0013.1893-.0013.2777.0586.3121.2583.0347.2016.0351.4019-.1777.4377-.6713.1129-.7785.66-.9736,1.1619-.7494,1.9265-1.5162,3.8464-2.26,5.7752a.71.71,0,0,1-.7176.5542c-.4661.0258-.5552-.2367-.6879-.5592-.8124-1.9744-1.64-3.9426-2.4522-5.9171a1.5149,1.5149,0,0,0-.7572-.9767.3843.3843,0,0,1-.2732-.4751c.0625-.2774.2762-.2558.4779-.2562.9037-.0019,1.8077.01,2.711-.0069a.4023.4023,0,0,1,.4631.377c.0482.2932-.1983.3041-.387.356-.2354.0647-.4728.1222-.7348.1894A49.3511,49.3511,0,0,1,38.26,86.3425Z" fill="#231f20"/><path d="M52.77,87.5812c-.0751.5369-.3752.66-.8592.6405-.97-.0388-1.943-.0112-2.9148-.012-.2016,0-.4245.0347-.4458-.27-.0164-.236.0645-.3933.3171-.4251.5438-.0685.5595-.4373.5521-.8786-.0219-1.31-.0295-2.6219.0031-3.9318a1.6512,1.6512,0,0,0-.4594-1.2676c-.6-.6466-.5788-.6665.275-.9949.4828-.1857.9681-.3651,1.4472-.56.31-.1257.4053-.0237.3933.2923-.0168.4424-.0042.8859-.0042,1.4755a5.7907,5.7907,0,0,1,.8546-1.155,2.1947,2.1947,0,0,1,1.5788-.669A1.2353,1.2353,0,0,1,54.84,80.9841a1.1176,1.1176,0,0,1-.9027,1.244c-.6.1145-1.08-.2593-1.3283-1.0339a2.2,2.2,0,0,0-1.49,2.2221c0,1.0847.0277,2.17-.0132,3.2537-.0173.4572.1257.6457.5644.6951C52.0262,87.4051,52.3763,87.5016,52.77,87.5812Z" fill="#231f20"/><path d="M63.5283,83.5517c0,1.0177.0382,2.0374-.0153,3.0523-.0288.5479.1735.7511.6741.83.2038.032.5751-.0087.5421.3421-.0317.3375-.3065.4459-.648.44-.9044-.016-1.8093-.0018-2.7139-.0088-.1607-.0013-.3848.0852-.42-.2-.03-.25.0129-.45.312-.4925.5356-.0757.5573-.4439.5494-.8838-.0217-1.2208-.036-2.4433.0035-3.6633a1.91,1.91,0,0,0-.65-1.7448c-.3477-.2745-.3012-.5081.1369-.663q.8919-.3152,1.7679-.6742c.3714-.1521.4719-.034.4667.3421C63.5183,81.3351,63.5283,82.4435,63.5283,83.5517Z" fill="#231f20"/><path d="M33.2587,83.5827c0,1.0157.0348,2.0331-.0146,3.0464-.025.5106.1636.6994.6238.8089.2058.049.64-.07.5808.3594-.0532.3876-.3874.4233-.731.4176-.88-.0145-1.7605-.0027-2.6408-.0068-.168-.0007-.3794.0594-.4055-.22-.0227-.2429-.0051-.4374.3083-.4768.4761-.06.565-.361.5539-.8086-.0319-1.2858-.0393-2.5737.0007-3.859A1.7324,1.7324,0,0,0,30.94,81.287c-.4721-.3805-.2978-.6105.1915-.7767a14.5326,14.5326,0,0,0,1.5116-.57c.5487-.2576.64-.0637.6248.46C33.2365,81.46,33.2587,82.5219,33.2587,83.5827Z" fill="#231f20"/><path d="M32.34,78.6072A1.0993,1.0993,0,0,1,31.1947,77.46,1.1736,1.1736,0,1,1,32.34,78.6072Z" fill="#242021"/><path d="M62.6414,78.604a1.1,1.1,0,0,1-1.1681-1.1885,1.1721,1.1721,0,0,1,2.343.0747A1.0974,1.0974,0,0,1,62.6414,78.604Z" fill="#242021"/><path d="M23.8376,17.2893a11.7533,11.7533,0,0,0,.7209,1.4073c.1788.2463.036.4907-.0175.715-.2786,1.1675-.3535,2.3627-.526,3.5443a.6278.6278,0,0,0,.4245.7794c1.8652.8478,3.73,1.6992,5.5691,2.6008.5642.2765.613-.2134.8815-.4106.3677-.27.0966-.4461-.0586-.6492-1.134-1.4836-2.268-2.9673-3.444-4.5061.6018,0,1.1335.0318,1.6591-.0112.3463-.0284.4188.2119.5388.4094q1.0523,1.734,2.086,3.4792c.1592.2684.2456.54.6868.3483.3773-.1644.694-.211.6442-.7747-.149-1.6878-.2116-3.3831-.3419-5.0729a3.6429,3.6429,0,0,1,.1808-1.5852c.33-.908.5931-1.8427.84-2.7779a.7521.7521,0,0,1,.8774-.6582c6.4009.0217,12.8019.01,19.2028.0224a1.455,1.455,0,0,0,1.1275-.436,5.2769,5.2769,0,0,1,7.9646.649A13.0813,13.0813,0,0,1,65.0615,20.26a28.19,28.19,0,0,1,.0124,10.113A30.3973,30.3973,0,0,1,58.97,43.2834,50.3514,50.3514,0,0,1,44.4665,55.4579a.6109.6109,0,0,1-.7272.0608A50.5087,50.5087,0,0,1,29.1312,43.2576a29.8378,29.8378,0,0,1-6.108-13.055A27.1861,27.1861,0,0,1,23.8376,17.2893Z" fill="#fefefe"/><path d="M42.9529,11.1091a5.1072,5.1072,0,0,0-.4193-4.92,4.6055,4.6055,0,0,0-3.5287-2.126c-.2294-.0229-.6017-.2324-.6638.1947-.0658.4525.356.314.58.3478A4.1912,4.1912,0,0,1,41.8954,10.88c-.2209.358-.4855.689-.7617,1.0772,1.26.2729,2.7731-.5189,3.5568,1.0861-.0768.1584-.2575.06-.3925.0607-3.2116.0065-6.4233-.0066-9.6347.017-.5062.0037-.664-.1223-.6405-.6374.0433-.948-.0135-1.9.0233-2.8488.0181-.4661-.1471-.5709-.5791-.5563-.9.03-1.8024.0092-2.7387.0092.0177-.288.2431-.3909.389-.534,1.76-1.7256,3.5475-3.4237,5.2836-5.1727a7.3339,7.3339,0,0,1,4.1731-2.2A8.757,8.757,0,0,1,47.0615,2.431a2.4525,2.4525,0,0,1,.2231.1534,7.1474,7.1474,0,0,0,5.78,1.7365,1.625,1.625,0,0,1,1.241.3969c.6841.5158,1.3878,1.0068,2.099,1.4849.2912.1957.4272.3848.1905.702a.7129.7129,0,0,0-.0609.1194c-.3407.7083-.4665,1.6934-1.0776,2.0524-.6888.4047-1.6711.1177-2.5244.11a1.8,1.8,0,0,1-1.8646-1.4652c-.0666-.2519-.1014-.4312-.4069-.3863-.3372.0495-.1963.3026-.1878.4759a2.1127,2.1127,0,0,0,.6259,1.4615.5655.5655,0,0,1,.1046.8632,1.1167,1.1167,0,0,0,.27,1.7535,11.5051,11.5051,0,0,1,1.1569,1.252,1.98,1.98,0,0,1-1.8991-.4789c-.4674-.5143-1.0627-.91-1.5807-1.3812a.8914.8914,0,0,0-.9733-.2447l1.8045,2.1383c-1.2032,0-2.28-.0053-3.3557.0041-.2412.0021-.3626-.1521-.5047-.294-.3361-.3356-.6843-.66-1.0051-1.01C44.5705,11.28,44.0384,10.675,42.9529,11.1091Z" fill="#fefefe"/><path d="M32.9837,11.9507c.1676,2.0739-.66,3.9358-1.36,5.7906a3.1819,3.1819,0,0,1-3.3114,2.0011,3.3561,3.3561,0,0,1-3.1373-2.1031,3.3019,3.3019,0,0,1,.5566-3.7893c1.1265-1.2309,2.3748-2.35,3.5647-3.5231a.8.8,0,0,1,.6181-.21c.8584.0033,1.7172.0162,2.575-.0057.3684-.0094.5336.0808.5027.4843C32.9575,11.0451,32.984,11.4989,32.9837,11.9507Z" fill="#fefefe"/><path d="M41.6465,29.6983l-.7462.08c-.0508-.2833.1767-.5033.0385-.8156a5.7316,5.7316,0,0,1-5.4161.0685,4.422,4.422,0,0,0-4.0407.004,5.6681,5.6681,0,0,1-5.256-.0033,4.838,4.838,0,0,0-1.75-.4743c-.24-.0215-.4385-.0273-.4521-.3563-.038-.919-.1007-1.8371-.1571-2.8158,1.9938.6571,3.9086,1.2906,5.8257,1.9169a.3562.3562,0,0,1,.2729.5073,1.054,1.054,0,0,0-.0113.7769,6.3689,6.3689,0,0,1,7.0484-.0106c.0837-.1385.133-.1845.124-.21-.2677-.7793.1384-1.0424.8268-1.2231,1.0866-.2852,2.1446-.6782,3.2255-.9878a.7939.7939,0,0,0,.6838-.7766,7.6688,7.6688,0,0,0,.22-1.3038c-1.6876.7623-3.3444,1.4646-4.9544,2.2615-.6106.3022-.7165-.1626-1.011-.4116-.3815-.3226-.0348-.5229.119-.7246q3.5517-4.6582,7.1134-9.3088a1.009,1.009,0,0,1,.9057-.4405c3.4154.0166,6.8309.0036,10.2463.0171a1.0583,1.0583,0,0,0,.9566-.4465,3.9439,3.9439,0,0,1,6.1852-.0833,10.4581,10.4581,0,0,1,1.9533,4.5549,28.2631,28.2631,0,0,1,.4151,9.2907c-.2383.095-.3114-.13-.4227-.2416-1.2156-1.2154-2.4316-2.4307-3.6264-3.6664-.2705-.28-.4437-.338-.7768-.0741-.4908.389-1.0013,1.0713-1.5375.9993-.4828-.0648-.88-.78-1.3115-1.2113s-.8939-.8394-1.28-1.3091c-.3471-.4221-.5557-.3344-.8843.021-.7214.78-1.502,1.5049-2.23,2.2793-.271.2884-.4531.3231-.7755.0679-.4915-.3891-1-1.0651-1.536-1.0034-.4829.0556-.8483.823-1.34,1.1717a2.6963,2.6963,0,0,0-1.0791,3.7251c.0249.0523.0032.1268.0032.2352a2.34,2.34,0,0,1-.4011-.0438c-.3659-.1068-.4273.0437-.3541.3674.2237.9891.4449,1.9789.6455,2.9728a.5217.5217,0,0,0,.3146.3915,4.7876,4.7876,0,0,0,4.6624.1991,5.5391,5.5391,0,0,1,5.1424.018,4.4512,4.4512,0,0,0,4.04.0318,5.8915,5.8915,0,0,1,1.7548-.5871c-.1731.5021-.311.9588-.4861,1.4007a34.4919,34.4919,0,0,1-9.0989,12.8093,57.001,57.001,0,0,1-8.8649,6.5628.8358.8358,0,0,1-1.0188-.0017,49.8822,49.8822,0,0,1-12.669-10.5266A31.1051,31.1051,0,0,1,25.1045,33.145a5.5865,5.5865,0,0,1,1.87.6224,4.2125,4.2125,0,0,0,3.7279,0,5.87,5.87,0,0,1,5.52-.03,4.708,4.708,0,0,0,4.5355-.2991.3762.3762,0,0,0,.2369-.2888c.1025-.5462.2241-1.0888.3555-1.714a17.217,17.217,0,0,1-1.9017.7209,5.2988,5.2988,0,0,1-3.7565-.432,4.72,4.72,0,0,0-4.4213.01,5.308,5.308,0,0,1-4.823.0127,4.1624,4.1624,0,0,0-1.5957-.5124c-.461-.0187-.4121-.3783-.4112-.6305.0013-.3742.312-.143.4561-.13a5.0585,5.0585,0,0,1,1.7983.5542,4.6447,4.6447,0,0,0,4.3012.0045,5.2746,5.2746,0,0,1,4.8873-.05,5.014,5.014,0,0,0,4.8013-.118C41.1679,30.6132,41.8289,30.57,41.6465,29.6983Z" fill="#231f20"/><path d="M37.67,15.46c.8816,0,1.7633.003,2.6449-.0015.32-.0016.55-.0187.282.423q-2.696,4.4481-5.35,8.9215c-.1632.2745-.31.35-.5739.1829-.2405-.1527-.6844.0157-.6454-.561.1891-2.7945.3424-5.5916.4841-8.389.0239-.47.189-.607.65-.5864C35.996,15.4863,36.8336,15.46,37.67,15.46Z" fill="#231f20"/><path d="M59.8707,30.9636c-.7451-.0172-1.0686-.4937-.7431-1.1527a.375.375,0,0,0,.0161-.4152.5928.5928,0,0,1,.1965-.8293.8515.8515,0,0,1,1.0683-.0229.6565.6565,0,0,1,.2639.8721.3365.3365,0,0,0-.0212.3509C60.9945,30.53,60.684,30.9824,59.8707,30.9636Z" fill="#252122"/><path d="M52.9464,28.3787c.587.0132.9481.4472.7414.9839a.5117.5117,0,0,0,.07.5313.6175.6175,0,0,1-.196.8862,1.1,1.1,0,0,1-1.3136-.0254.5851.5851,0,0,1-.1806-.8372.6246.6246,0,0,0,.0652-.593C51.9712,28.7823,52.36,28.3654,52.9464,28.3787Z" fill="#252122"/><path d="M57.0848,28.564l-.4013.5461c.7125.2609.9819.7258.7563,1.291a1.1193,1.1193,0,0,1-1.4976.4753c-.5276-.2613-.6456-.8125-.3093-1.4455C56.09,28.571,56.2947,28.4427,57.0848,28.564Z" fill="#252122"/><path d="M50.1724,29.745c0,.27-.0065.5393.0018.8085.01.3228-.1933.3442-.4417.3564-.2873.0141-.3131-.1369-.33-.3708-.0406-.55.1826-1.138-.2663-1.64-.09-.1008-.09-.46.2388-.3991.2743.0508.733-.277.792.3026A9.373,9.373,0,0,1,50.1724,29.745Z" fill="#2c2829"/><path d="M48.0253,5.44a20.586,20.586,0,0,1-2.098-1.4518,6.7033,6.7033,0,0,0-3.7987-1.4247,1.153,1.153,0,0,1-.3356-.031c-.16-.0546-.3751-.0823-.3379-.3362.0333-.2282.23-.18.3729-.1892a7.1589,7.1589,0,0,1,4.0864.926,12.4568,12.4568,0,0,0,1.33.8A1.2621,1.2621,0,0,1,48.0253,5.44Z" fill="#242021"/><path d="M50.4118,5.89c.11-.2605-.1306-.6218.176-.6949a2.335,2.335,0,0,1,1.1308.02c.2168.0609.1786.3693-.0248.5389a4.0243,4.0243,0,0,0-.479.3552c-.1649.1878-.198.5418-.57.43C50.2415,6.4175,50.5829,6.0581,50.4118,5.89Z" fill="#272324"/><path d="M54.5558,6.2153c-.0681.3374-.2065.5752-.5671.58a.4977.4977,0,0,1-.5555-.5365.4942.4942,0,0,1,.5353-.5527C54.3372,5.6972,54.4677,5.9359,54.5558,6.2153Z" fill="#2c292a"/><path d="M31.8819,11.4713a.8385.8385,0,0,1-.2112.7561q-1.7611,2.3969-3.5183,4.7965c-.1148.1558-.185.4466-.4979.2088-.26-.1974-.0846-.337.019-.5011,1.1052-1.7511,2.2184-3.4972,3.3055-5.26a.6749.6749,0,0,1,.7306-.3337C32.0241,11.1635,31.8424,11.4126,31.8819,11.4713Z" fill="#242021"/><path d="M42.2251,28.4956l1.77-9.4477.1331-.0039L45.88,28.3959c-.8307-.0641-.8369-.0628-.6709.72.3836,1.8077.7756,3.6136,1.16,5.4212.0738.3471.2436.7771-.4375.5256-.4945-.1825-.5031.0929-.421.4743.4266,1.9824.8413,3.9674,1.26,5.9515a.9839.9839,0,0,1,.0154.6323c-.7539-.299-1.5112-.5784-2.2494-.9016a1.0706,1.0706,0,0,0-.95-.0013c-.7358.3257-1.4942.6007-2.362.9432.2757-1.34.5254-2.5686.7822-3.796.1985-.9484.3967-1.8969.6132-2.8413.0965-.4211-.0062-.6194-.45-.457-.4373.16-.5571.0731-.4529-.4025.41-1.87.7668-3.7522,1.201-5.6164C43.0651,28.4179,42.9784,28.21,42.2251,28.4956Z" fill="#fefefe"/><path d="M42.8011,42.4806a5,5,0,0,1-.1281,1.5942c-.2078.4583-.85.2-1.27.3775-.4149.175-.8436.3189-1.2523.507a4.975,4.975,0,0,1-4.5492-.236c-.3379-.1705-.29-.41-.2906-.6707q-.0029-4.0357-.0011-8.0716v-.7956a.87.87,0,0,0-.7417.9479c.0256,2.69.008,5.3809.0156,8.0714.0011.3773-.0084.72-.4793.8594a.95.95,0,0,1-.0668-.5725q-.006-4.3071-.0021-8.6142a1.2635,1.2635,0,0,1,1.7752-1.1655,5.9122,5.9122,0,0,0,4.7648-.0045c.07.6158-.2788,1.1677-.2666,1.7925l1.0824-.1733-1.63,7.6411Z" fill="#fefefe"/><path d="M45.3724,42.5034l2.9913,1.4677-1.6125-7.5595a2.42,2.42,0,0,1,1.0869.1156l-.3507-1.8538a5.8633,5.8633,0,0,0,5.1046-.0882c.4156-.2058,1.5.4894,1.5025.9813.0164,3.155.0084,6.31.0084,9.5075-.5263-.1216-.55-.4522-.549-.8316.0077-2.6671-.0136-5.3344.0183-8.0011a1.03,1.03,0,0,0-.7677-1.102v2.6725c0,2.0794-.0094,4.1589.0084,6.2381a.7069.7069,0,0,1-.4672.7583,4.98,4.98,0,0,1-4.7411-.0115,4.0565,4.0565,0,0,0-1.682-.4735c-.4036-.0187-.5678-.1675-.5534-.5642C45.3838,43.36,45.3724,42.9591,45.3724,42.5034Z" fill="#fefefe"/><path d="M43.4071,46.0125c.0557-1.1938.13-2.3872.156-3.5817.0079-.3623.1949-.5224.47-.5285a.4939.4939,0,0,1,.5629.5245q.0933,3.6183.2158,7.2358c.009.2626-.0971.2816-.3089.303-1.2158.1232-1.2244.127-1.1843-1.1129.0307-.9465.0826-1.8924.1251-2.8385Z" fill="#fefdfe"/><path d="M34.6881,45.6872c.211-.3622.485-.3815.8477-.1914a5.4681,5.4681,0,0,0,5.3182-.0272,3.1677,3.1677,0,0,1,1.4919-.3944c.1288.0015.2856-.0252.2736.1885-.0078.1394-.0194.2973-.1928.3071-1.0907.0615-1.9456.8125-2.9993,1.0007A6.7414,6.7414,0,0,1,34.6881,45.6872Z" fill="#fafafa"/><path d="M53.4237,45.6916a6.4765,6.4765,0,0,1-6.6322.1646,2.3759,2.3759,0,0,0-.9676-.26c-.2132-.0125-.3433-.1027-.3324-.3314.0151-.3144.2632-.1824.4068-.1842a5.7163,5.7163,0,0,1,2.1573.7035,5.214,5.214,0,0,0,4.4269-.24C52.8241,45.3761,53.151,45.2139,53.4237,45.6916Z" fill="#fbfafb"/><path d="M54.552,17.7824c.4866,1.1142.4866,1.1142,1.7126,1.358-.8055.4033-1.253.8985-.5287,1.7379-.5682.003-.7582-.5509-1.119-.48a5.5463,5.5463,0,0,0-1.0211.5364c.5026-.8226.3018-1.4192-.5779-1.8687C53.9949,19.2447,54.4663,18.8591,54.552,17.7824Z" fill="#fbfbfb"/><path d="M58.6587,22.7922c.5289-.8874.2023-1.416-.584-1.8645a1.1864,1.1864,0,0,0,1.5635-1.142c.2266.8353.5843,1.4072,1.6326,1.1142a1.2248,1.2248,0,0,0-.6144,1.9228A1.1921,1.1921,0,0,0,58.6587,22.7922Z" fill="#fbfbfb"/><path d="M48.0273,20.9727c1.089-.1227,1.089-.1227,1.5947-1.2634.1591.9118.519,1.4737,1.5568,1.1908-.8236.4491-1.0959,1.0167-.6172,1.8935a1.1589,1.1589,0,0,0-1.9484.0232C48.9949,21.9818,48.9057,21.3564,48.0273,20.9727Z" fill="#fbfbfb"/><path d="M60.1035,30.168c-.0309.1158-.13.1444-.2372.1451s-.1391-.0777-.1353-.1715c.0056-.14.089-.18.2115-.1484C60.0244,30.0146,60.1064,30.0477,60.1035,30.168Z" fill="#ebebeb"/><path d="M59.8814,28.9468a.1686.1686,0,0,1,.1742.1786c0,.0873-.0493.1883-.1467.1666a.25.25,0,0,1-.165-.1687C59.7408,29.0633,59.8382,28.998,59.8814,28.9468Z" fill="#e8e8e8"/><path d="M53.1059,30.1929c-.02.0951-.0768.1939-.2135.1418a.2974.2974,0,0,1-.1734-.17c-.0275-.1346.09-.1918.2018-.201C53.0528,29.9528,53.1159,30.0369,53.1059,30.1929Z" fill="#cbcaca"/><path d="M53.0724,29.098a.1724.1724,0,0,1-.1285.1962c-.1212.0363-.16-.0656-.1564-.1424.0028-.07.0523-.1784.1058-.1963C52.98,28.9264,53.047,29.0058,53.0724,29.098Z" fill="#cecdcd"/><path d="M56.738,29.9758c.0247.2643-.0934.3793-.2541.4029-.1731.0254-.29-.0742-.3056-.2714-.0147-.1905.0677-.3136.2476-.3326A.2967.2967,0,0,1,56.738,29.9758Z" fill="#dedddd"/><path d="M40.1567,36.6627c.2311.5975.025.8793-.569,1.0078a6.2373,6.2373,0,0,1-2.9982-.0382c-.5766-.1548-.8613-.4255-.6648-1.071A4.9391,4.9391,0,0,0,40.1567,36.6627Z" fill="#262223"/><path d="M38.1783,40.5989a5.1309,5.1309,0,0,1-1.92-.3028.46.46,0,0,1-.3892-.5307c.027-.3131.0339-.4649.4188-.2872a4.7358,4.7358,0,0,0,3.0478.253c.1662-.0355.4167-.26.4314.1331.0091.2432.1218.545-.3133.6169A5.9522,5.9522,0,0,1,38.1783,40.5989Z" fill="#262223"/><path d="M35.8929,42.0673a4.892,4.892,0,0,0,2.8877.5344c.2288-.0261.354.015.3176.2642-.0252.173.12.4267-.2149.4664a5.2986,5.2986,0,0,1-2.7721-.3358C35.7221,42.8288,35.9118,42.459,35.8929,42.0673Z" fill="#262223"/><path d="M47.957,36.669a4.8618,4.8618,0,0,0,4.217-.1191c.1623.808.1587.8252-.5518,1.05a5.8527,5.8527,0,0,1-3.0635.0775C47.9828,37.5527,47.7463,37.2813,47.957,36.669Z" fill="#252122"/><path d="M52.1862,39.3421c.2428.594-.0141.86-.5161,1.0113a6.1924,6.1924,0,0,1-2.99.1309c-.4323-.0814-.33-.3577-.3232-.6021.01-.376.2515-.1945.43-.1529A5.059,5.059,0,0,0,52.1862,39.3421Z" fill="#262223"/><path d="M52.1956,42.0857c.2.5793.0391.9045-.5428,1.0578a6.9815,6.9815,0,0,1-2.2783.21c-.3543-.024-.3715-.1916-.379-.4739-.0106-.4033.2389-.2829.4455-.2638A4.9055,4.9055,0,0,0,52.1956,42.0857Z" fill="#242021"/></g></g></svg>