<svg xmlns="http://www.w3.org/2000/svg" xmlns:xlink="http://www.w3.org/1999/xlink" width="71.9929" height="75.2006" viewBox="0 0 71.9929 75.2006"><defs><filter id="luminosity-invert-noclip" x="22.9499" y="52.2361" width="1.7901" height="3.0528" filterUnits="userSpaceOnUse" color-interpolation-filters="sRGB"><feColorMatrix values="-1 0 0 0 1 0 -1 0 0 1 0 0 -1 0 1 0 0 0 1 0" result="invert"/><feFlood flood-color="#fff" result="bg"/><feBlend in="invert" in2="bg"/></filter><mask id="mask" x="22.9499" y="52.2361" width="1.7901" height="3.0528" maskUnits="userSpaceOnUse"><path d="M24.74,53.7388a8.34,8.34,0,0,1-.0718.8673.7528.7528,0,0,1-.8495.6824.7416.7416,0,0,1-.7874-.6853,4.3509,4.3509,0,0,1,.0055-1.7024.73.73,0,0,1,.7541-.6636.7446.7446,0,0,1,.8559.6094A7.1111,7.1111,0,0,1,24.74,53.7388Z" fill="#fefdfd" filter="url(#luminosity-invert-noclip)"/></mask><filter id="luminosity-invert-noclip-2" x="20.5919" y="50.8302" width="7.3206" height="10.86" filterUnits="userSpaceOnUse" color-interpolation-filters="sRGB"><feColorMatrix values="-1 0 0 0 1 0 -1 0 0 1 0 0 -1 0 1 0 0 0 1 0" result="invert"/><feFlood flood-color="#fff" result="bg"/><feBlend in="invert" in2="bg"/></filter><mask id="mask-2" x="20.5919" y="50.8302" width="7.3206" height="10.86" maskUnits="userSpaceOnUse"><path d="M24.1078,58.795c.3136.0007.6279-.0127.9407.004.4068.0217.774.1355.9.5872a.9555.9555,0,0,1-.4029,1.1651,2.956,2.956,0,0,1-2.7088.1546.9673.9673,0,0,1-.48-1.2267.8379.8379,0,0,1,.9768-.6891C23.5892,58.8152,23.85,58.7944,24.1078,58.795Z" fill="#fefefe" filter="url(#luminosity-invert-noclip-2)"/></mask><filter id="luminosity-invert-noclip-3" x="0" y="49.1739" width="8.5963" height="9.3005" filterUnits="userSpaceOnUse" color-interpolation-filters="sRGB"><feColorMatrix values="-1 0 0 0 1 0 -1 0 0 1 0 0 -1 0 1 0 0 0 1 0" result="invert"/><feFlood flood-color="#fff" result="bg"/><feBlend in="invert" in2="bg"/></filter><mask id="mask-3" x="0" y="49.1739" width="8.5963" height="9.3005" maskUnits="userSpaceOnUse"><path d="M6.2767,53.8019a10.0162,10.0162,0,0,1-.2994,2.5154,1.6734,1.6734,0,0,1-1.66,1.356,1.6118,1.6118,0,0,1-1.6707-1.33,9.4244,9.4244,0,0,1,.0044-5.07A1.6026,1.6026,0,0,1,4.34,49.9669a1.6518,1.6518,0,0,1,1.63,1.32A9.7989,9.7989,0,0,1,6.2767,53.8019Z" fill="#fefefe" filter="url(#luminosity-invert-noclip-3)"/></mask><filter id="luminosity-invert-noclip-4" x="27.2576" y="51.4708" width="6.8524" height="7.0129" filterUnits="userSpaceOnUse" color-interpolation-filters="sRGB"><feColorMatrix values="-1 0 0 0 1 0 -1 0 0 1 0 0 -1 0 1 0 0 0 1 0" result="invert"/><feFlood flood-color="#fff" result="bg"/><feBlend in="invert" in2="bg"/></filter><mask id="mask-4" x="27.2576" y="51.4708" width="6.8524" height="7.0129" maskUnits="userSpaceOnUse"><path d="M29.4583,54.9625a6.0785,6.0785,0,0,1,.123-1.6482c.1459-.6955.51-1.0415,1.0832-1.0517.6113-.0109.95.2582,1.1194.9917a7.5682,7.5682,0,0,1-.0036,3.4512c-.1674.7174-.5325,1.0018-1.1328.9816-.548-.0184-.91-.3543-1.0573-1.022A5.9385,5.9385,0,0,1,29.4583,54.9625Z" fill="#fefefe" filter="url(#luminosity-invert-noclip-4)"/></mask><filter id="luminosity-invert-noclip-5" x="55.1678" y="51.4842" width="6.675" height="6.9867" filterUnits="userSpaceOnUse" color-interpolation-filters="sRGB"><feColorMatrix values="-1 0 0 0 1 0 -1 0 0 1 0 0 -1 0 1 0 0 0 1 0" result="invert"/><feFlood flood-color="#fff" result="bg"/><feBlend in="invert" in2="bg"/></filter><mask id="mask-5" x="55.1678" y="51.4842" width="6.675" height="6.9867" maskUnits="userSpaceOnUse"><path d="M58.8093,56.19c-.0172.4166.1466.9053-.5027,1.0338a.8818.8818,0,0,1-1.1411-.5843.9388.9388,0,0,1,.6934-1.2325C58.67,55.1953,58.81,55.31,58.8093,56.19Z" fill="#fefdfd" filter="url(#luminosity-invert-noclip-5)"/></mask><filter id="luminosity-invert-noclip-6" x="14.5384" y="51.4933" width="5.9978" height="6.9618" filterUnits="userSpaceOnUse" color-interpolation-filters="sRGB"><feColorMatrix values="-1 0 0 0 1 0 -1 0 0 1 0 0 -1 0 1 0 0 0 1 0" result="invert"/><feFlood flood-color="#fff" result="bg"/><feBlend in="invert" in2="bg"/></filter><mask id="mask-6" x="14.5384" y="51.4933" width="5.9978" height="6.9618" maskUnits="userSpaceOnUse"><path d="M17.5574,54.1039a.1577.1577,0,0,1-.055-.0008c-.2869-.118-.7622.2779-.8773-.2328a1.5785,1.5785,0,0,1,1.0115-1.6034c.5353-.0849.8663.1681,1.0061.77.0167.0716.0352.1434.0447.2162.1024.7857.0451.8509-.743.8511Z" fill="#fefcfc" filter="url(#luminosity-invert-noclip-6)"/></mask><filter id="luminosity-invert-noclip-7" x="66.0511" y="51.4903" width="5.9418" height="6.9822" filterUnits="userSpaceOnUse" color-interpolation-filters="sRGB"><feColorMatrix values="-1 0 0 0 1 0 -1 0 0 1 0 0 -1 0 1 0 0 0 1 0" result="invert"/><feFlood flood-color="#fff" result="bg"/><feBlend in="invert" in2="bg"/></filter><mask id="mask-7" x="66.0511" y="51.4903" width="5.9418" height="6.9822" maskUnits="userSpaceOnUse"><path d="M69.08,54.1041a.4422.4422,0,0,1-.1637-.0029c-.2639-.1152-.7247.2671-.807-.2378a1.6548,1.6548,0,0,1,.9636-1.5893.7938.7938,0,0,1,1.0134.5928C70.4319,53.9078,70.2722,54.1041,69.08,54.1041Z" fill="#fefcfb" filter="url(#luminosity-invert-noclip-7)"/></mask><filter id="luminosity-invert-noclip-8" x="33.8698" y="65.1239" width="5.5843" height="6.9701" filterUnits="userSpaceOnUse" color-interpolation-filters="sRGB"><feColorMatrix values="-1 0 0 0 1 0 -1 0 0 1 0 0 -1 0 1 0 0 0 1 0" result="invert"/><feFlood flood-color="#fff" result="bg"/><feBlend in="invert" in2="bg"/></filter><mask id="mask-8" x="33.8698" y="65.1239" width="5.5843" height="6.9701" maskUnits="userSpaceOnUse"><path d="M36.59,67.6459c-.257,0-.514.0006-.7711,0-.602-.0014-.6141-.02-.398-.6157a1.5048,1.5048,0,0,1,1.6924-1.164,1.3827,1.3827,0,0,1,.8552,1.6708c-.0655.1342-.1749.1064-.2769.1074C37.3243,67.6481,36.957,67.6458,36.59,67.6459Z" fill="#fdfdfd" filter="url(#luminosity-invert-noclip-8)"/></mask></defs><title>osu-vert-logo</title><g id="Layer_2" data-name="Layer 2"><g id="Layer_1-2" data-name="Layer 1"><path d="M44.6848,8.89l.1684-.5552c-.6738,0-1.3092.0088-1.9442-.0044-.2467-.0051-.2927.1739-.3844.3276a.3108.3108,0,0,0,.0688.4317c.4111.4227.8193.85,1.1982,1.3013.21.25.3353.206.5641.0163a5.1837,5.1837,0,0,1,5.0148-1.0825,5.3983,5.3983,0,0,1,3.2105,2.8668A14.0919,14.0919,0,0,1,53.9778,16.82a25.3923,25.3923,0,0,1,.1959,6.2814,23.2823,23.2823,0,0,1-3.4078,9.8308A36.0156,36.0156,0,0,1,39.7105,44.0669c-1.113.7512-2.2775,1.4259-3.4137,2.143a.5338.5338,0,0,1-.6467.0584,43.65,43.65,0,0,1-12.1667-9.9627,25.6007,25.6007,0,0,1-5.5961-11.7979,23.8111,23.8111,0,0,1-.02-7.4883,18.365,18.365,0,0,1,.96-3.8484,10.5323,10.5323,0,0,1,2.8609-3.8074c2.5085-2.42,5.0553-4.8036,7.4787-7.3066C31.5451-.4,35.9717-.5511,38.4832,1.0476c.1519.0966.3091.1848.46.2833,2.5209,1.6492,1.5836,1.2932,4.718,1.3264a1.2843,1.2843,0,0,1,.8042.2629q1.3108.9661,2.6566,1.8846c.2356.16.2542.2807.1362.5246-.4642.9588-.9368,1.9158-1.3431,2.8995C45.6717,8.8176,45.3387,9.0961,44.6848,8.89Z" fill="#231f20"/><g mask="url(#mask)"><g mask="url(#mask-2)"><path d="M22.1452,58.6312c-.77-.2526-1.2314-.7031-1.2014-1.4672.03-.77.5514-1.1666,1.3025-1.3931a2.007,2.007,0,0,1-1.2622-1.6031A2.2216,2.2216,0,0,1,21.4168,52.5a2.8057,2.8057,0,0,1,2.19-1.0022,6.2029,6.2029,0,0,1,2.5859.4139c.0622-.3355.003-.7184.3515-.9216a.96.96,0,0,1,.6316-.1518.8354.8354,0,0,1,.7351.9415c-.0292.6742-.2452.7791-1.7636.83a1.7636,1.7636,0,0,1,.3454,2.1356,2.58,2.58,0,0,1-2.2037,1.2637,3.2622,3.2622,0,0,1-1.1011-.04.5393.5393,0,0,0-.7309.4636c-.0678.4592.2674.4838.61.4822.793-.0036,1.5868-.0176,2.3788.012a2.0368,2.0368,0,0,1,2.2073,1.6847,2.2413,2.2413,0,0,1-1.4051,2.5974,6.6663,6.6663,0,0,1-4.4439.1937,1.3963,1.3963,0,0,1-1.212-1.3794c.0059-.6667.39-1.0722,1.259-1.3256C21.918,58.6777,21.9874,58.6663,22.1452,58.6312Z" fill="#d9451b"/></g></g><g mask="url(#mask-3)"><path d="M8.5963,53.6649A6.56,6.56,0,0,1,8.27,55.8566a4.0536,4.0536,0,0,1-4.6288,2.5606A3.9954,3.9954,0,0,1,.02,54.3482a6.4965,6.4965,0,0,1,.1427-1.98A3.9794,3.9794,0,0,1,4.63,49.1892,3.939,3.939,0,0,1,8.534,52.9625C8.5526,53.1646,8.57,53.3668,8.5963,53.6649Z" fill="#d9451b"/></g><path d="M57.5157,74.5a2.2746,2.2746,0,0,0,1.1384-1.1931,2.0639,2.0639,0,0,0,.161-2.1072c-.7281-1.5412-1.2945-3.16-1.9065-4.7544a.5166.5166,0,0,0-.56-.4009c-.4424.0115-.8867.0235-1.3278-.0037-.3458-.0214-.4382.1021-.4319.4393.02,1.0881.0054,2.1769.0081,3.2653.003,1.2357.5513,1.6249,1.7313,1.2634.1686-.0516.3849-.3438.5655-.0142.1671.3051-.1042.4373-.2814.5724a2.6386,2.6386,0,0,1-2.2553.4516,1.4075,1.4075,0,0,1-1.1109-1.52c-.03-1.3092-.0315-2.62-.01-3.929.0066-.404-.0859-.5644-.5157-.5327-.3722.0274-.5108-.2577-.2631-.5517.546-.6481,1.1254-1.2681,1.6936-1.8972a.3021.3021,0,0,1,.3494-.1c.1325.0535.0856.1849.0944.2872.0079.0916.0016.1844.0018.2766.0025,1.2538.0025,1.2488,1.2821,1.2367q1.38-.013,2.76.0027c.195.002.4552-.1046.5043.2544.0519.3795-.2435.2861-.4249.35-.1382.0487-.28.0859-.4561.1389a40.1449,40.1449,0,0,1,1.5379,4.6185c.4839-1.5049.9282-2.8985,1.3831-4.2887.0694-.2123.007-.3093-.1931-.3625-.16-.0425-.3162-.0985-.474-.1489a.2452.2452,0,0,1-.1994-.3241c.034-.1808.1-.247.2841-.2447.664.0083,1.3282.0026,1.9924.0049.162.0006.2758.0508.3009.2449.0236.1817-.0375.2974-.2046.3307-.4325.0863-.55.4207-.68.7778q-1.0344,2.8461-2.0938,5.683a7.78,7.78,0,0,1-.9888,1.9059,2.1409,2.1409,0,0,1-2.1018.9508,1.0182,1.0182,0,0,1-.9354-1.1987.8257.8257,0,0,1,1.0966-.7.7513.7513,0,0,1,.5227.9891A.2414.2414,0,0,0,57.5157,74.5Z" fill="#231f20"/><path d="M36.8727,52.76a2.6764,2.6764,0,0,1,2.6922-1.2357,1.9876,1.9876,0,0,1,1.6074,2.15c.036,1.087.0311,2.1765.0047,3.264-.01.4236.0535.7071.5346.7655.1153.014.3435.0234.3118.2059s-.104.3991-.38.3978c-.9591-.0046-1.9182-.002-2.8772-.0011-.1466,0-.2473-.0414-.2564-.2132-.0084-.16.0106-.309.186-.352.4282-.1048.4256-.4152.4194-.7659-.0161-.922.008-1.8446-.0112-2.7664-.0228-1.0976-.7942-1.5435-1.7683-1.05a.71.71,0,0,0-.4512.7321c.0271,1.0137.0335,2.0295-.0019,3.0426-.0155.4423.0911.6915.5514.7624.126.0194.3759.0224.3029.2818a.3867.3867,0,0,1-.3876.3281c-.9406-.0017-1.8812,0-2.8218-.0009-.1376,0-.2592-.0339-.2854-.1964-.0255-.1576-.0094-.3123.176-.3487.5047-.0991.4614-.47.4555-.8461-.0116-.7376-.0284-1.4766.0035-2.213a2.712,2.712,0,0,0-.5515-2.1156c-.1977-.2157-.1164-.347.1467-.43.6482-.2036,1.2922-.4206,1.9379-.6321.358-.1173.5134-.008.4672.385A8.4719,8.4719,0,0,0,36.8727,52.76Z" fill="#d9451b"/><path d="M43.9515,58.4235c-.0771-.87-.1537-1.6939-.22-2.5189-.0122-.1523-.0841-.3507.1446-.4187a.3971.3971,0,0,1,.5112.192c.21.3461.4471.6758.6828,1.0053a2.137,2.137,0,0,0,1.5816.9957,1.2254,1.2254,0,0,0,1.3923-.744,1.4056,1.4056,0,0,0-.5562-1.6511,10.9744,10.9744,0,0,0-1.81-.8108A2.6632,2.6632,0,0,1,43.8458,51.48a2.5886,2.5886,0,0,1,2.7291-2.2949,4.6246,4.6246,0,0,1,1.5293.1915,1.1024,1.1024,0,0,0,.9988-.0634c.1674-.1106.3054-.1076.3165.16.0285.6811.0692,1.3617.1067,2.0424.0079.1432-.027.2579-.1829.294a.3476.3476,0,0,1-.3909-.1316c-.2407-.3253-.4786-.6527-.7266-.9723a1.8179,1.8179,0,0,0-1.458-.77,1.0948,1.0948,0,0,0-1.1879.7021,1.2583,1.2583,0,0,0,.4407,1.4773,3.8933,3.8933,0,0,0,.7293.384c.4719.2057.96.3749,1.4267.5911a2.7252,2.7252,0,0,1,1.7112,3.0742,2.6259,2.6259,0,0,1-2.5991,2.2754,4.4241,4.4241,0,0,1-1.6956-.153A1.5788,1.5788,0,0,0,43.9515,58.4235Z" fill="#d9451b"/><g mask="url(#mask-4)"><path d="M34.11,55.3728a2.8836,2.8836,0,0,1-1.5927,2.66,3.919,3.919,0,0,1-3.95-.1757,2.262,2.262,0,0,1-.8916-1.031,4.2974,4.2974,0,0,1,.0177-3.7361,3.3546,3.3546,0,0,1,3.6538-1.5624C33.1771,51.8263,34.1144,52.9991,34.11,55.3728Z" fill="#d9451b"/></g><g mask="url(#mask-5)"><path d="M58.858,57.5682a2.0232,2.0232,0,0,1-1.83.8875,1.6843,1.6843,0,0,1-1.8157-1.4316,1.7967,1.7967,0,0,1,1.12-2.1486,3.6481,3.6481,0,0,1,2.1112-.2322c.3241.0645.3661-.0349.3715-.3179a1.2261,1.2261,0,0,0-1.3461-1.4342,3.4392,3.4392,0,0,0-1.56.2909c-.1494.068-.2979.187-.4178-.0385a.3706.3706,0,0,1,.0332-.4822,3.8,3.8,0,0,1,4.2078-.8718,2.2,2.2,0,0,1,1.1312,2.1223c.0212.9574.0112,1.9157.0034,2.8735-.0039.4695.12.8063.676.7793.1365-.0066.2584.0067.2939.1751.0336.159-.0764.23-.1758.3126A1.8976,1.8976,0,0,1,58.858,57.5682Z" fill="#d9451b"/></g><path d="M10.0691,66.754c0-.7561-.041-1.5152.0142-2.2673a.66.66,0,0,0-.6151-.8252c-.1886-.0386-.5293.0326-.4972-.3559.0327-.3965.3291-.3176.5772-.3181.8668-.0019,1.7337.008,2.6-.0061.2586-.0042.4117.051.4656.3306.0608.3153-.2055.2905-.34.3059-.6428.0739-.8025.406-.7753,1.0347.0573,1.3254.0167,2.6549.0182,3.9828a5.4227,5.4227,0,0,0,.0189.6078,1.9279,1.9279,0,0,0,2.0481,1.9441,2.09,2.09,0,0,0,2.3591-1.9039c.19-1.7264.0411-3.4636.0808-5.1955a.2784.2784,0,0,0-.2491-.3054c-.2117-.0566-.4166-.14-.6295-.1909-.1813-.0433-.2291-.1389-.2128-.3163.0188-.2057.11-.2909.3153-.29q1.2449.0066,2.49-.0006c.217-.0015.2766.1177.3147.3013.0491.2362-.1023.3073-.2691.3194-.7831.0565-.8752.5234-.8443,1.1994.0556,1.2147-.0253,2.4353.0238,3.65.1216,3.0058-2.2027,4.0641-4.6774,3.4915a2.6307,2.6307,0,0,1-2.2113-2.8693c-.0134-.7744-.0023-1.5491-.0023-2.3237Z" fill="#231f20"/><g mask="url(#mask-6)"><path d="M18.46,54.8557c-.5158,0-1.0319.01-1.5473-.0035-.2846-.0074-.3782.0675-.3479.3813a1.949,1.949,0,0,0,3.1006,1.5676c.18-.1012.3472-.38.6037-.07.2379.2878-.0257.4573-.1431.6177a2.9335,2.9335,0,0,1-3.11,1.035,2.7117,2.7117,0,0,1-2.3607-2.3118,3.81,3.81,0,0,1,1.0064-3.7537,3.3871,3.3871,0,0,1,3.8545-.3967,2.6937,2.6937,0,0,1,.9525,2.6624c-.0621.2261-.1981.2768-.4065.2738C19.5286,54.85,18.9943,54.8555,18.46,54.8557Z" fill="#d9451b"/></g><g mask="url(#mask-7)"><path d="M69.95,54.8557c-.4792,0-.96.0258-1.4372-.0075-.4291-.03-.48.1566-.4342.521a1.9164,1.9164,0,0,0,2.8659,1.5469,3.0915,3.0915,0,0,0,.3342-.1918c.159-.1035.291-.2042.4746-.0039.1818.1983.0582.3457-.0317.4915a2.4025,2.4025,0,0,1-1.408,1.0714,3.0866,3.0866,0,0,1-4.2527-2.9179c-.1451-2.3687,1.3788-4.0216,3.6128-3.8648,1.7921.1258,2.4828,1.3949,2.2875,3.0946-.029.2527-.2139.2614-.4076.2608C71.0187,54.8546,70.4842,54.8555,69.95,54.8557Z" fill="#d9451b"/></g><path d="M24.8856,71.4519c-.06.4183-.3044.523-.7.5031-.6622-.0335-1.3274-.0073-1.9913-.01-.1935-.0009-.418.0574-.4664-.2441-.0434-.27.1582-.31.3276-.3471.3351-.073.4174-.2643.4108-.5929-.0211-1.0508-.0011-2.1023-.01-3.1534-.0084-1.026-.54-1.4287-1.5448-1.188-.9546.2285-1.08.3823-1.08,1.3212,0,.9405.0275,1.8822-.0116,2.8211-.02.4732.1031.7236.5984.7518a2.1431,2.1431,0,0,1,.4731.1375c-.06.39-.27.5257-.6754.5052-.7174-.0363-1.438-.0068-2.1572-.0133-.129-.0012-.3136.075-.3406-.1618-.0235-.2062.0151-.3658.262-.3936.4666-.0524.4974-.36.488-.7506-.024-.9953-.0371-1.9927.0034-2.9869a1.5146,1.5146,0,0,0-.5247-1.3665c-.3174-.26-.305-.4606.1306-.5955a13.5537,13.5537,0,0,0,1.3386-.504c.3133-.1346.4442-.0834.4052.2753a1.8487,1.8487,0,0,1-.0785.7352c.2486.042.31-.1484.4191-.26a2.6022,2.6022,0,0,1,1.435-.7668,1.745,1.745,0,0,1,2.2054,1.6964c.0508,1.1782.0559,2.3613.01,3.54-.0225.5762.1134.9012.72.9445A1.6472,1.6472,0,0,1,24.8856,71.4519Z" fill="#231f20"/><path d="M11.5361,52.8682c.2186-.2966.3827-.5568.584-.7842a1.6947,1.6947,0,0,1,1.3168-.5957,1.1822,1.1822,0,0,1,1.2943,1.0233,1.0984,1.0984,0,0,1-.7517,1.3047c-.7187.16-1.1431-.1218-1.4177-.9609a1.6006,1.6006,0,0,0-.9988,1.6093,16.43,16.43,0,0,1,.0035,2.3762c-.0277.4961.1009.742.6231.8068.2024.0252.6138-.0874.6053.2792-.01.4384-.4041.3816-.7175.3808-.9218-.0023-1.8436.0006-2.7654-.0022-.1581-.0005-.3441.0463-.3974-.19a.3131.3131,0,0,1,.2679-.4054c.327-.08.35-.3011.3459-.5834-.0137-.8662-.0276-1.7337.0023-2.5991a2.445,2.445,0,0,0-.4889-1.8569c-.2369-.2654-.1665-.4326.1909-.5354.6175-.1775,1.2242-.3934,1.833-.6.3543-.12.5164-.0388.4762.3683C11.5122,52.2043,11.5361,52.5105,11.5361,52.8682Z" fill="#d9451b"/><path d="M50.8948,54.7555c0-.6079-.0217-1.2168.008-1.8232.0182-.3719-.1107-.4861-.4684-.4576-.1524.0122-.397.126-.4574-.1493a.5076.5076,0,0,1,.1817-.539c.7049-.5915,1.3991-1.1959,2.0909-1.8029a.5387.5387,0,0,1,.5641-.1142c.1946.0736.0882.287.1063.4388.0516.4323-.2034,1.026.1118,1.2585.29.2135.8532.0906,1.2916.0573.4817-.0366.6858.0686.5141.5948-.0627.1919-.11.2766-.3166.2691-.3679-.0135-.74.0295-1.104-.0121-.4384-.05-.5138.13-.5029.5244.0276.9939.0042,1.9891.0106,2.9837.0071,1.1014.5063,1.4426,1.5676,1.1231.16-.0481.3418-.3671.5507-.0479.19.2907-.0517.44-.2039.6029a2.6762,2.6762,0,0,1-2.903.6056,1.6362,1.6362,0,0,1-1.0082-1.524c-.0374-.6607-.0081-1.3252-.0081-1.988Z" fill="#d9451b"/><path d="M61.9908,54.7513c0-.6082-.0139-1.2167.0057-1.8242.01-.3112-.0375-.49-.4116-.4528-.1554.0155-.3995.1287-.4786-.114a.5486.5486,0,0,1,.211-.6312c.6814-.5624,1.3483-1.1425,2.0138-1.7239a.5479.5479,0,0,1,.559-.1386c.1823.0625.0943.2512.1091.3861.0492.4489-.2058,1.0657.1222,1.3057.3039.2224.8861.0675,1.3459.0734.5445.007.6051.0972.47.6037a.2893.2893,0,0,1-.3458.2518c-.4051-.0106-.8117.0139-1.2159-.0085-.3007-.0167-.3722.1027-.3684.3836.0138,1.0318-.0027,2.064.0077,3.0958.0116,1.1474.56,1.5063,1.6587,1.1214.1351-.0473.2844-.2954.4608-.0289.1531.2313.01.3755-.1225.5325a2.6887,2.6887,0,0,1-3.033.6628,1.7328,1.7328,0,0,1-.9722-1.6155c-.0291-.6251-.0061-1.2527-.0061-1.8792Z" fill="#d9451b"/><g mask="url(#mask-8)"><path d="M37.2569,68.3386c-.5532,0-1.1071.0177-1.6593-.0066-.3223-.0143-.402.0919-.3858.4066a2.2055,2.2055,0,0,0,3.4658,1.9624c.1441-.0751.2974-.4261.5365-.0992.2125.2906-.0534.45-.1971.6054a2.8912,2.8912,0,0,1-2.84.8106,2.6125,2.6125,0,0,1-2.115-2.02,4.5277,4.5277,0,0,1,.1695-3.0828A3.0781,3.0781,0,0,1,37.69,65.2008a2.3715,2.3715,0,0,1,1.6818,2.8814c-.07.2438-.2011.2608-.3995.2586C38.4,68.3344,37.8285,68.3386,37.2569,68.3386Z" fill="#231f20"/></g><path d="M44.86,72.1435c-.0487-.6744-.1-1.2409-.1248-1.8086-.0085-.1969-.1268-.4667.1988-.5488.3128-.0788.2946.2214.3786.37a2.006,2.006,0,0,0,1.997,1.2892c.4436-.0391.7969-.1781.9121-.6486a.9622.9622,0,0,0-.4771-1.1336,10.1515,10.1515,0,0,0-1.54-.5972,1.94,1.94,0,0,1-1.3932-1.8018,2.0039,2.0039,0,0,1,2.5434-2.1129c.4765.0764.933.3279,1.4377.0686.1958-.1007.2358.1106.2454.257.0315.4781.0515.9571.08,1.4355.0071.12-.0128.2194-.1376.2684a.2424.2424,0,0,1-.3248-.11,9.0157,9.0157,0,0,0-.6076-.7839,1.4191,1.4191,0,0,0-1.0782-.4823.9042.9042,0,0,0-.97.5805.957.957,0,0,0,.3985,1.1615,3.7185,3.7185,0,0,0,1.016.4212,5.235,5.235,0,0,1,1.1174.4663,1.9232,1.9232,0,0,1,.8714,2.1036,1.6917,1.6917,0,0,1-1.4118,1.4361,3.195,3.195,0,0,1-1.6938.0158C45.8119,71.85,45.3329,71.655,44.86,72.1435Z" fill="#231f20"/><path d="M31.2054,70.4226c.44-1.5038.9421-2.8135,1.4209-4.1314.0648-.1784-.0379-.2327-.1676-.2766-.1741-.0589-.3509-.11-.5257-.1667a.2347.2347,0,0,1-.1873-.3251c.0428-.1778.1138-.2412.2937-.2392.6817.0075,1.3636.0057,2.0453.0011.1544-.001.2265.0478.2546.2107s.0287.3278-.145.357c-.5475.092-.6349.5385-.794.9476-.6112,1.5714-1.2366,3.1372-1.8431,4.71a.5794.5794,0,0,1-.5852.452c-.38.0211-.4529-.193-.5611-.4561-.6627-1.61-1.3377-3.2156-2-4.8261a1.2353,1.2353,0,0,0-.6176-.7965.3136.3136,0,0,1-.2228-.3876c.051-.2263.2252-.2086.39-.2089.7371-.0016,1.4743.008,2.2112-.0057a.3281.3281,0,0,1,.3776.3075c.0394.2392-.1617.248-.3156.29-.192.0528-.3857.1-.5994.1544A40.2384,40.2384,0,0,1,31.2054,70.4226Z" fill="#231f20"/><path d="M43.04,71.433c-.0612.4378-.3059.5381-.7007.5223-.7913-.0316-1.5848-.0091-2.3773-.01-.1645,0-.3463.0283-.3637-.2205-.0134-.1925.0526-.3208.2587-.3468.4435-.0558.4563-.3566.45-.7166-.0179-1.0687-.0241-2.1384.0025-3.2068a1.347,1.347,0,0,0-.3747-1.0339c-.49-.5273-.4721-.5436.2243-.8114.3937-.1515.79-.2978,1.18-.4565.2525-.1025.3305-.0193.3207.2385-.0137.3608-.0034.7225-.0034,1.2034a4.728,4.728,0,0,1,.697-.9421,1.7907,1.7907,0,0,1,1.2877-.5456,1.0076,1.0076,0,0,1,1.0866.9449.9115.9115,0,0,1-.7363,1.0146c-.4892.0934-.8809-.2114-1.0834-.8433a1.7941,1.7941,0,0,0-1.2157,1.8125c0,.8847.0227,1.77-.0107,2.6538-.0141.3728.1025.5266.46.5668C42.4336,71.2893,42.7192,71.368,43.04,71.433Z" fill="#231f20"/><path d="M51.8149,68.1464c0,.83.0312,1.6618-.0124,2.49-.0236.4469.1414.6126.55.6767.1661.026.469-.0072.4421.279-.0259.2752-.25.3637-.5286.3588-.7376-.0131-1.4756-.0015-2.2134-.0072-.1311-.001-.3139.0695-.3423-.1632-.0249-.2037.01-.3672.2544-.4017.4369-.0618.4546-.362.4482-.7208-.0178-.9958-.0294-1.9928.0028-2.9879a1.5579,1.5579,0,0,0-.53-1.4231c-.2836-.2239-.2456-.4144.1117-.5408q.7274-.2571,1.442-.55c.3029-.1241.3849-.0278.3806.2789C51.8068,66.3385,51.8149,67.2425,51.8149,68.1464Z" fill="#231f20"/><path d="M27.1264,68.1717c0,.8284.0285,1.6582-.0119,2.4847-.02.4164.1335.57.5088.66.1679.04.5218-.0568.4738.2932-.0435.3161-.3161.3452-.5963.3406-.7178-.0118-1.4359-.0022-2.1539-.0055-.137-.0007-.3094.0483-.3307-.18-.0185-.1982-.0042-.3568.2514-.3889.3884-.0488.4608-.2945.4518-.66-.026-1.0486-.032-2.0991.0006-3.1474a1.413,1.413,0,0,0-.4845-1.2694c-.3851-.31-.243-.4979.1561-.6335a11.8661,11.8661,0,0,0,1.2329-.4645c.4475-.21.5224-.052.51.3749C27.1083,66.4407,27.1264,67.3065,27.1264,68.1717Z" fill="#231f20"/><path d="M26.3771,64.1135a.8965.8965,0,0,1-.9341-.9357.9572.9572,0,1,1,.9341.9357Z" fill="#242021"/><path d="M51.0916,64.1109a.897.897,0,0,1-.9528-.9693.956.956,0,0,1,1.911.0609A.8949.8949,0,0,1,51.0916,64.1109Z" fill="#242021"/><path d="M19.4424,14.1015a9.5717,9.5717,0,0,0,.588,1.1478c.1458.2009.0293.4-.0143.5831-.2273.9523-.2883,1.9271-.429,2.8909a.5121.5121,0,0,0,.3462.6357c1.5213.6915,3.042,1.3859,4.5423,2.1212.46.2256.5-.174.719-.3349.3-.22.0788-.3638-.0478-.5294-.925-1.21-1.85-2.42-2.809-3.6753.4908,0,.9245.0259,1.3531-.0092.2826-.0231.3417.1728.44.334q.8581,1.4142,1.7014,2.8376c.13.219.2.4409.56.2842.3078-.1341.5661-.1722.5255-.6319-.1215-1.3766-.1726-2.7594-.2788-4.1376a2.9689,2.9689,0,0,1,.1474-1.2929c.2693-.7406.4838-1.5029.6849-2.2657a.6136.6136,0,0,1,.7157-.5369c5.2207.0178,10.4415.0083,15.6622.0183a1.1863,1.1863,0,0,0,.92-.3556,4.304,4.304,0,0,1,6.4961.5293,10.67,10.67,0,0,1,1.8009,4.81,22.9928,22.9928,0,0,1,.01,8.2484,24.7937,24.7937,0,0,1-4.9784,10.53,41.0666,41.0666,0,0,1-11.8294,9.93.4984.4984,0,0,1-.5932.05,41.1958,41.1958,0,0,1-11.9147-10,24.3364,24.3364,0,0,1-4.9817-10.6479A22.173,22.173,0,0,1,19.4424,14.1015Z" fill="#fefefe"/><path d="M35.0333,9.0608a4.1655,4.1655,0,0,0-.3421-4.0131,3.7563,3.7563,0,0,0-2.8781-1.734c-.187-.0187-.4907-.19-.5414.1588-.0536.3691.29.2561.473.2837a3.4184,3.4184,0,0,1,2.426,5.1176c-.18.2919-.396.5619-.6213.8786,1.0281.2225,2.2618-.4233,2.901.8858-.0626.1292-.21.0493-.32.05-2.6194.0053-5.239-.0054-7.8583.0139-.4128.003-.5415-.1-.5224-.52.0354-.7732-.0109-1.55.0191-2.3235.0148-.38-.12-.4657-.4724-.4538-.7343.0248-1.47.0075-2.2337.0075.0144-.2349.1983-.3188.3173-.4355,1.4355-1.4074,2.8933-2.7924,4.3094-4.219A5.981,5.981,0,0,1,33.0929.9627a7.1428,7.1428,0,0,1,5.2914,1.02,1.9851,1.9851,0,0,1,.1819.1252,5.83,5.83,0,0,0,4.7144,1.4163,1.3255,1.3255,0,0,1,1.0122.3237c.5579.4208,1.1319.8212,1.712,1.2111.2375.16.3484.3139.1554.5726a.5755.5755,0,0,0-.05.0974c-.2779.5777-.3805,1.3811-.8789,1.674-.5618.33-1.363.096-2.059.09a1.4686,1.4686,0,0,1-1.5208-1.1951c-.0543-.2055-.0827-.3517-.3319-.3151-.275.04-.16.2468-.1532.3882a1.7244,1.7244,0,0,0,.5106,1.1921.4611.4611,0,0,1,.0853.7039.9108.9108,0,0,0,.2206,1.43,9.38,9.38,0,0,1,.9436,1.0211,1.615,1.615,0,0,1-1.549-.3906c-.3811-.4195-.8667-.7424-1.2892-1.1265a.7272.7272,0,0,0-.7939-.2l1.4718,1.744c-.9813,0-1.8592-.0043-2.737.0033-.1967.0018-.2957-.124-.4116-.24-.2741-.2738-.5581-.5384-.82-.8236C36.3526,9.2,35.9186,8.7067,35.0333,9.0608Z" fill="#fefefe"/><path d="M26.9022,9.7472a10.8807,10.8807,0,0,1-1.11,4.723,2.5951,2.5951,0,0,1-2.7008,1.6321A2.7372,2.7372,0,0,1,20.533,14.387a2.6932,2.6932,0,0,1,.454-3.0907c.9187-1.0039,1.9369-1.9166,2.9074-2.8735a.6526.6526,0,0,1,.5041-.1709c.7.0027,1.4006.0132,2.1-.0047.3-.0076.4351.0659.41.395C26.8808,9.0086,26.9024,9.3787,26.9022,9.7472Z" fill="#fefefe"/><path d="M33.9677,24.2225l-.6086.0653c-.0414-.2311.1441-.41.0314-.6653a4.6747,4.6747,0,0,1-4.4175.0559,3.6066,3.6066,0,0,0-3.2956.0033,4.6234,4.6234,0,0,1-4.287-.0027,3.9458,3.9458,0,0,0-1.4277-.3869c-.1959-.0175-.3576-.0222-.3687-.2905-.031-.75-.0822-1.4984-.1282-2.2967,1.6262.536,3.1879,1.0527,4.7516,1.5635a.2906.2906,0,0,1,.2226.4138.8591.8591,0,0,0-.0092.6336,5.1946,5.1946,0,0,1,5.7487-.0087c.0683-.113.1085-.15.1012-.1717-.2184-.6356.1129-.85.6743-.9975.8863-.2326,1.7492-.5532,2.6308-.8057a.6476.6476,0,0,0,.5578-.6334,6.2529,6.2529,0,0,0,.1792-1.0634c-1.3764.6217-2.7277,1.1946-4.0409,1.8445-.498.2464-.5844-.1326-.8246-.3357-.3111-.2631-.0283-.4265.0971-.591q2.8968-3.7994,5.8018-7.5924a.823.823,0,0,1,.7387-.3593c2.7857.0135,5.5714.0029,8.3571.0139a.8632.8632,0,0,0,.78-.3642,3.2167,3.2167,0,0,1,5.0448-.0679A8.53,8.53,0,0,1,51.87,15.8984a23.0494,23.0494,0,0,1,.3386,7.5776c-.1944.0775-.2539-.1061-.3448-.197-.9914-.9913-1.9832-1.9825-2.9577-2.99-.2206-.2282-.3619-.2757-.6336-.06-.4.3172-.8167.8737-1.254.815-.3938-.0528-.7176-.6361-1.07-.9879s-.7291-.6846-1.0441-1.0677c-.2831-.3443-.4532-.2728-.7212.017-.5884.6362-1.2251,1.2275-1.8187,1.8591-.221.2352-.37.2636-.6325.0554-.4009-.3174-.816-.8687-1.2528-.8184-.3939.0453-.6919.6712-1.0928.9557a2.199,2.199,0,0,0-.88,3.0382c.02.0427.0026.1035.0026.1919a1.907,1.907,0,0,1-.3271-.0358c-.2984-.0871-.3486.0357-.2889.3.1825.8067.3629,1.614.5265,2.4247a.4256.4256,0,0,0,.2566.3193,3.905,3.905,0,0,0,3.8028.1624,4.5178,4.5178,0,0,1,4.1942.0146,3.63,3.63,0,0,0,3.2948.026,4.8051,4.8051,0,0,1,1.4312-.4789c-.1413.41-.2537.782-.3965,1.1425a28.1339,28.1339,0,0,1-7.4212,10.4475,46.4887,46.4887,0,0,1-7.23,5.3527A.6815.6815,0,0,1,35.52,43.96a40.6857,40.6857,0,0,1-10.3331-8.5856,25.3723,25.3723,0,0,1-4.7115-8.3405,4.5532,4.5532,0,0,1,1.5256.5077,3.4359,3.4359,0,0,0,3.0406,0,4.7875,4.7875,0,0,1,4.5022-.0245,3.84,3.84,0,0,0,3.6992-.244.307.307,0,0,0,.1933-.2355c.0835-.4455.1827-.8881.29-1.398a14.0287,14.0287,0,0,1-1.551.5879,4.3213,4.3213,0,0,1-3.0639-.3523,3.85,3.85,0,0,0-3.6061.0083,4.329,4.329,0,0,1-3.9337.01,3.3947,3.3947,0,0,0-1.3015-.4179c-.3761-.0153-.3362-.3086-.3354-.5143.001-.3052.2545-.1166.372-.1064a4.1248,4.1248,0,0,1,1.4667.452,3.7883,3.7883,0,0,0,3.5082.0036,4.3023,4.3023,0,0,1,3.9861-.0407,4.0893,4.0893,0,0,0,3.9161-.0962C33.5773,24.9687,34.1165,24.9333,33.9677,24.2225Z" fill="#231f20"/><path d="M30.7245,12.6092c.7191,0,1.4382.0024,2.1572-.0013.2608-.0013.4484-.0153.23.345q-2.1988,3.6279-4.3636,7.2766c-.1331.2239-.2532.2856-.4681.1492-.1962-.1246-.5583.0127-.5264-.4576.1542-2.2793.2792-4.5606.3949-6.8422.0194-.3836.1541-.4951.53-.4783C29.359,12.6309,30.0422,12.6092,30.7245,12.6092Z" fill="#231f20"/><path d="M48.8317,25.2545c-.6077-.014-.8716-.4027-.6061-.94a.3054.3054,0,0,0,.0131-.3386.4836.4836,0,0,1,.16-.6764.6947.6947,0,0,1,.8714-.0187.5356.5356,0,0,1,.2152.7114.2744.2744,0,0,0-.0173.2862C49.7483,24.9008,49.4951,25.27,48.8317,25.2545Z" fill="#252122"/><path d="M43.1842,23.1462c.4787.0108.7732.3647.6046.8025a.4175.4175,0,0,0,.0573.4334.5036.5036,0,0,1-.16.7227.8969.8969,0,0,1-1.0715-.0207.4772.4772,0,0,1-.1473-.6828.51.51,0,0,0,.0532-.4837C42.3887,23.4754,42.7054,23.1354,43.1842,23.1462Z" fill="#252122"/><path d="M46.56,23.2973l-.3273.4454c.5811.2129.8008.5921.6168,1.053a.9129.9129,0,0,1-1.2214.3877c-.43-.2131-.5266-.6627-.2523-1.179C45.7478,23.3031,45.9151,23.1984,46.56,23.2973Z" fill="#252122"/><path d="M40.9216,24.2606c0,.22-.0053.44.0015.6594.0081.2633-.1577.2808-.36.2907-.2343.0115-.2553-.1117-.2694-.3024-.0331-.4486.1489-.9282-.2172-1.3378-.0735-.0822-.0731-.3752.1948-.3255.2237.0414.5978-.2259.6459.2468A7.6369,7.6369,0,0,1,40.9216,24.2606Z" fill="#2c2829"/><path d="M39.17,4.437a16.7847,16.7847,0,0,1-1.7111-1.1842,5.4676,5.4676,0,0,0-3.0983-1.162.9384.9384,0,0,1-.2737-.0252c-.13-.0446-.3059-.0672-.2756-.2743.0272-.1861.1876-.1472.3041-.1543a5.84,5.84,0,0,1,3.333.7553,10.152,10.152,0,0,0,1.0846.6522A1.0293,1.0293,0,0,1,39.17,4.437Z" fill="#242021"/><path d="M41.1168,4.8038c.09-.2124-.1065-.5071.1436-.5668a1.9061,1.9061,0,0,1,.9223.0162c.1769.05.1457.3012-.02.44a3.276,3.276,0,0,0-.3907.29c-.1345.1531-.1615.4418-.4651.3506C40.978,5.2342,41.2564,4.9411,41.1168,4.8038Z" fill="#272324"/><path d="M44.4968,5.0693c-.0555.2752-.1684.4692-.4626.473a.4058.4058,0,0,1-.453-.4375.4031.4031,0,0,1,.4366-.4508C44.3185,4.6468,44.425,4.8414,44.4968,5.0693Z" fill="#2c292a"/><path d="M26.0035,9.3562a.684.684,0,0,1-.1723.6167q-1.4364,1.955-2.87,3.9121c-.0936.1271-.1508.3643-.4061.17-.2119-.1611-.069-.2749.0155-.4088.9015-1.4282,1.8094-2.8524,2.6961-4.29a.55.55,0,0,1,.5959-.2722C26.12,9.1052,25.9713,9.3084,26.0035,9.3562Z" fill="#242021"/><path d="M34.44,23.2416l1.4435-7.7058.1086-.0031,1.429,7.6275c-.6775-.0522-.6826-.0512-.5472.5869.3129,1.4744.6326,2.9473.9462,4.4216.06.2831.1986.6338-.3569.4287-.4034-.1488-.41.0757-.3434.3868.348,1.6169.6862,3.2359,1.0278,4.8542a.8027.8027,0,0,1,.0125.5158c-.6149-.2439-1.2326-.4718-1.8346-.7355a.8736.8736,0,0,0-.775-.001c-.6.2657-1.2187.49-1.9265.7693.2248-1.0927.4285-2.095.638-3.0961.1618-.7735.3235-1.5472.5-2.3174.0787-.3434-.0051-.5052-.3666-.3727-.3567.1306-.4544.06-.3694-.3283.3341-1.5254.6254-3.06.98-4.5809C35.1248,23.1782,35.054,23.0083,34.44,23.2416Z" fill="#fefefe"/><path d="M34.9094,34.648a4.0767,4.0767,0,0,1-.1045,1.3c-.17.3738-.6931.1634-1.0356.3078-.3385.1428-.6881.26-1.0214.4136a4.0579,4.0579,0,0,1-3.71-.1925c-.2756-.1391-.2368-.3346-.2369-.5471q-.0024-3.2916-.001-6.5833v-.6489a.71.71,0,0,0-.6049.7731c.0208,2.1943.0065,4.3888.0127,6.5832.0009.3077-.0069.5871-.3909.701a.7746.7746,0,0,1-.0545-.467q-.0048-3.513-.0017-7.0259a1.0305,1.0305,0,0,1,1.4478-.9506,4.8225,4.8225,0,0,0,3.8864-.0037c.057.5023-.2274.9524-.2175,1.4621l.8828-.1414-1.33,6.2322Z" fill="#fefefe"/><path d="M37.0066,34.6666l2.44,1.1971L38.1312,29.698a1.9746,1.9746,0,0,1,.8865.0943l-.286-1.512a4.7824,4.7824,0,0,0,4.1634-.0719c.339-.1679,1.2234.3991,1.2255.8.0133,2.5733.0068,5.1467.0068,7.7545-.4293-.0992-.4487-.3688-.4478-.6782.0063-2.1754-.0111-4.3509.0149-6.5259a.84.84,0,0,0-.6262-.8988v2.18c0,1.696-.0076,3.3921.0069,5.088a.5766.5766,0,0,1-.381.6185,4.0616,4.0616,0,0,1-3.8669-.0094,3.3075,3.3075,0,0,0-1.3719-.3862c-.3292-.0153-.4632-.1367-.4514-.46C37.0159,35.3649,37.0066,35.0383,37.0066,34.6666Z" fill="#fefefe"/><path d="M35.4037,37.5287c.0454-.9737.1059-1.9471.1272-2.9213.0064-.2956.1589-.4261.3829-.431a.4027.4027,0,0,1,.4592.4277q.0761,2.9512.176,5.9017c.0073.2142-.0792.23-.2519.2471-.9917.1005-.9987.1036-.966-.9077.025-.772.0674-1.5434.102-2.3151Z" fill="#fefdfe"/><path d="M28.2923,37.2633c.1721-.2953.3956-.3111.6914-.156a4.46,4.46,0,0,0,4.3376-.0223,2.5839,2.5839,0,0,1,1.2168-.3216c.1051.0012.233-.0206.2232.1537-.0064.1138-.0158.2426-.1573.2505-.8895.05-1.5868.6627-2.4462.8162A5.4978,5.4978,0,0,1,28.2923,37.2633Z" fill="#fafafa"/><path d="M43.5734,37.2669a5.2822,5.2822,0,0,1-5.4094.1343,1.9362,1.9362,0,0,0-.7892-.2122c-.1739-.01-.28-.0838-.271-.27.0123-.2565.2146-.1488.3317-.15a4.6632,4.6632,0,0,1,1.76.5738,4.2523,4.2523,0,0,0,3.6106-.1959C43.0844,37.01,43.351,36.8773,43.5734,37.2669Z" fill="#fbfafb"/><path d="M44.4937,14.5037c.3969.9087.3969.9087,1.3968,1.1076-.657.3289-1.022.7328-.4312,1.4174-.4634.0025-.6185-.4493-.9127-.3916a4.52,4.52,0,0,0-.8328.4375c.41-.6709.2461-1.1576-.4714-1.5242C44.0393,15.6963,44.4238,15.3818,44.4937,14.5037Z" fill="#fbfbfb"/><path d="M47.8432,18.59c.4314-.7238.1649-1.1549-.4763-1.5208a.9676.9676,0,0,0,1.2752-.9314c.1848.6813.4765,1.1477,1.3315.9088a.999.999,0,0,0-.5011,1.5682A.9722.9722,0,0,0,47.8432,18.59Z" fill="#fbfbfb"/><path d="M39.172,17.1058c.8883-.1.8883-.1,1.3006-1.0306.13.7437.4234,1.202,1.27.9713-.6719.3664-.8939.8293-.5035,1.5444A.9452.9452,0,0,0,39.65,18.61C39.9612,17.9288,39.8884,17.4187,39.172,17.1058Z" fill="#fbfbfb"/><path d="M49.0216,24.6056c-.0252.0945-.1065.1178-.1935.1183s-.1134-.0633-.11-.14c.0046-.1137.0725-.1471.1725-.121C48.957,24.4805,49.024,24.5075,49.0216,24.6056Z" fill="#ebebeb"/><path d="M48.84,23.61a.1376.1376,0,0,1,.1421.1457c0,.0712-.04.1536-.12.1359a.2037.2037,0,0,1-.1346-.1375C48.7257,23.7046,48.8052,23.6513,48.84,23.61Z" fill="#e8e8e8"/><path d="M43.3142,24.6259c-.0167.0776-.0627.1582-.1742.1157a.2428.2428,0,0,1-.1414-.1388c-.0224-.11.0738-.1564.1646-.1639C43.2709,24.43,43.3223,24.4987,43.3142,24.6259Z" fill="#cbcaca"/><path d="M43.2868,23.7329a.1406.1406,0,0,1-.1048.16c-.0988.0295-.13-.0536-.1275-.1162.0023-.057.0427-.1455.0863-.16C43.2118,23.5929,43.2661,23.6577,43.2868,23.7329Z" fill="#cecdcd"/><path d="M46.2767,24.4489c.02.2155-.0763.3093-.2074.3286-.1411.0207-.2367-.0606-.2491-.2214-.012-.1554.0552-.2558.2018-.2713A.2423.2423,0,0,1,46.2767,24.4489Z" fill="#dedddd"/><path d="M32.7526,29.9028c.1885.4873.02.7172-.4641.822a5.0885,5.0885,0,0,1-2.4454-.0311c-.47-.1264-.7025-.3471-.5422-.8736A4.0285,4.0285,0,0,0,32.7526,29.9028Z" fill="#262223"/><path d="M31.1389,33.1132a4.1824,4.1824,0,0,1-1.5659-.2469.3749.3749,0,0,1-.3175-.4328c.022-.2554.0277-.3793.3416-.2343a3.8621,3.8621,0,0,0,2.4858.2063c.1356-.0289.34-.2123.3519.1086.0074.1983.0994.4445-.2555.5031A4.85,4.85,0,0,1,31.1389,33.1132Z" fill="#262223"/><path d="M29.275,34.3109a3.99,3.99,0,0,0,2.3552.4359c.1867-.0213.2887.0123.2591.2155-.0206.141.0974.348-.1753.38a4.3211,4.3211,0,0,1-2.261-.2738C29.1357,34.932,29.29,34.63,29.275,34.3109Z" fill="#262223"/><path d="M39.1147,29.9079a3.9651,3.9651,0,0,0,3.4394-.0971c.1324.659.13.6731-.45.8564a4.7723,4.7723,0,0,1-2.4986.0632C39.1357,30.6287,38.9428,30.4074,39.1147,29.9079Z" fill="#252122"/><path d="M42.5641,32.0882c.198.4844-.0115.7013-.421.8248a5.0513,5.0513,0,0,1-2.4391.1068c-.3526-.0664-.2688-.2918-.2636-.4911.008-.3067.2052-.1586.3508-.1247A4.1264,4.1264,0,0,0,42.5641,32.0882Z" fill="#262223"/><path d="M42.5717,34.3259c.1633.4725.0319.7377-.4426.8628a5.6945,5.6945,0,0,1-1.8583.1717c-.2889-.02-.303-.1563-.3091-.3865-.0087-.329.1949-.2308.3633-.2152A4,4,0,0,0,42.5717,34.3259Z" fill="#242021"/></g></g></svg>