<svg xmlns="http://www.w3.org/2000/svg" viewBox="0 0 209.16 124.55"><defs><style>.cls-1{fill:#0091bb;}.cls-2{fill:#929aa1;}.cls-3{fill:#fefefe;}.cls-4{fill:#fcd924;}.cls-5{fill:#f7f8f8;}.cls-6{fill:#fafafb;}.cls-7{fill:#fcfcfc;}.cls-8{fill:#273847;}</style></defs><title>pwb-quality-logo</title><g id="Layer_2" data-name="Layer 2"><g id="Layer_1-2" data-name="Layer 1"><path class="cls-1" d="M0,101.75V19.91a2.72,2.72,0,0,1,1.88-.53c.75.05,1.52,0,2.28,0,5.8,0,11.6,0,17.4,0,.67,0,1.09,0,.89-.94a5.9,5.9,0,0,1,1.15-4.75A1.9,1.9,0,0,0,24,12.29,10.54,10.54,0,0,1,30.28,1.11c4.8-2.28,11.12-1.06,13,3.77.17.44.51.39.87.44,1.6.23,3.2-.18,4.77,0a18.39,18.39,0,0,0,5.49-.11,21.13,21.13,0,0,1,4.76.1,1.24,1.24,0,0,0,1.45-.88A3.93,3.93,0,0,1,64.36,2a39.67,39.67,0,0,1,6.17,0c2.24.24,4.4-.19,6.59,0a9.82,9.82,0,0,1,1.54.19,3.29,3.29,0,0,1,2.52,2c.47,1.36,1.34,1.31,2.5,1.22,1.7-.13,3.44-.34,5,.53.86.46,1.19,1.74,1.86,1.87s1.5-.93,2.47-.89c2.18.09,4.47-.78,6.52.12,2.27,1,4.21-1,6.34-.29A1.94,1.94,0,0,0,108.15,6C109.54,4,111.46,4,113.51,4s2.15,0,3.75-1.32a7.76,7.76,0,0,1,2.25-1.34,10.92,10.92,0,0,1,6.25-.29,4.51,4.51,0,0,0,3-.2,4.17,4.17,0,0,1,3.93-.22,9.62,9.62,0,0,0,5,1.35,4.44,4.44,0,0,0,1,0,5.55,5.55,0,0,1,6,2.35,1.53,1.53,0,0,0,.91.7,3.12,3.12,0,0,0,2.94-1.23,3.69,3.69,0,0,1,2.15-1.62,11.6,11.6,0,0,1,5.11,0,1.85,1.85,0,0,1,1.33.75c1,2.09,2.84,2.33,4.8,2.59a1.89,1.89,0,0,0,1.77-.44,4.72,4.72,0,0,1,6-.58,5,5,0,0,0,4.24.84l.23,0c2.51,0,5-.08,7.53,0a4,4,0,0,1,4,4.67,1.4,1.4,0,0,0,.53,1.21,4.14,4.14,0,0,1,.39,5.48c-.6.91-1.29,1.76-2,2.74h22.68c1.71,0,1.91.21,1.91,1.95v26c0,1.91-.21,2.13-2.12,2.13-4.91,0-9.83,0-14.75,0-.89,0-1.18.22-1.15,1.13.07,2.2,0,4.4,0,6.6,0,1.52.31,1.81,1.85,1.81h14.4c1.45,0,1.75.3,1.75,1.77V87.48c0,1.41-.34,1.74-1.79,1.75h-7.68c-1.86,0-1.86,0-2.38,1.8L188,123c-.17.58-.28,1.18-1,1.38l-.48,0H24.33c-.36,0-.72,0-1.08,0-.91-.23-.93-1-.93-1.7V104.55c0-2.07-.21-2.28-2.22-2.28-6.08,0-12.15,0-18.22,0A2.84,2.84,0,0,1,0,101.75ZM79.81,18.11l.19.2c-.15.26-.43.33-.68.45a9.33,9.33,0,0,0-2.84,1.5,1.89,1.89,0,0,0-.58,2.07,1.83,1.83,0,0,0,1.77,1.19,3.45,3.45,0,0,0,3.06-1.31A7.14,7.14,0,0,0,82,20a2.08,2.08,0,0,1,1.2-1.21,10.88,10.88,0,0,0,4.74-3.91c.26-.38.71-.76,0-1.18s-.77.09-1,.45a8.84,8.84,0,0,1-3.31,3l-.22-.29c1-2.19,1.92-4.38,2.86-6.57.12-.28.4-.58.15-.88s-2.45,0-2.67.47c-.5,1.09-1,2.2-1.46,3.29a9.31,9.31,0,0,1-2,3c-.29.29-.66.73-1.12.43s-.1-.75,0-1.09c.59-1.44,1.25-2.85,1.83-4.29.23-.57.91-1.22.5-1.71s-1.21-.08-1.84-.15-.67.29-.84.68c-.44,1-.9,2-1.36,3.06a9.25,9.25,0,0,1-2.66,3.35c-.36.3-.85.67-1.29.36s-.19-.91,0-1.32c.76-1.85,1.58-3.66,2.37-5.49.16-.37.39-.61.82-.54,1,.15,1.28-.39,1.37-1.24l-1.33-.13.64-1.49c.09-.22.2-.43-.13-.58a2.3,2.3,0,0,0-2.75,1c-.29.81-.68,1.29-1.63,1.15-.67-.1-.79.54-.84,1s.45.3.7.31c.57,0,.59.27.4.67-.64,1.37-1.22,2.78-2,4.1A6.71,6.71,0,0,1,69,16.61c-.3.2-.65.44-1,.16s-.11-.61,0-.89c.65-1.55,1.3-3.09,2-4.62.87-2,.82-2.06-1.33-1.89a.9.9,0,0,0-.86.67c-.44,1-.9,2-1.36,3.06a9.32,9.32,0,0,1-2.71,3.45c-.28.23-.65.46-1,.27s-.17-.66-.08-1a10.23,10.23,0,0,1,.53-1.33c1.1-2.53,2.21-5,3.31-7.57.12-.27.41-.56.09-.85-.48-.42-2.43.08-2.7.67-.91,2-1.83,4.08-2.72,6.13a9.34,9.34,0,0,1-2.09,3c-.47.46-1,1.27-1.66.85s0-1.18.22-1.74c.66-1.62,1.39-3.22,2.07-4.83.11-.25.46-.55,0-.79a2.73,2.73,0,0,0-2.77.81c-1.56-1.45-3.16-1.41-4.7.13a8.15,8.15,0,0,0-1.7,2.73,9,9,0,0,1-2.37,3.26c-.34.32-.78.78-1.24.5s-.15-.86,0-1.3a5.75,5.75,0,0,1,.31-.78c.65-1.5,1.32-3,2-4.5.11-.25.46-.55.06-.83a2.55,2.55,0,0,0-2.74.82c-.83,1.72-1.35,3.6-2.6,5.11-.49.59-1,1.67-1.79,1.22s.1-1.38.37-2c.69-1.69,1.44-3.34,2.24-5.15a12.14,12.14,0,0,1-1.38,0,1.49,1.49,0,0,0-1.85,1.16c-.47,1.31-1.11,2.56-1.66,3.85a5.4,5.4,0,0,0-.54,2.31A1.7,1.7,0,0,0,41,18.48a3.52,3.52,0,0,0,2.54-.85c.24-.19.4-.59.83-.07a2.45,2.45,0,0,0,3.2.64,12,12,0,0,0,2.14-1.5c.87,2.2,2.21,2.36,4.88.6.53,1.16,1.53,1.28,2.62,1.15A5.79,5.79,0,0,0,59.92,17c.83,1.42,1.66,1.76,3.1,1.34a4.8,4.8,0,0,0,1.76-1c.32-.27.55-.61.8.11s1,1,1.74,1c1.39.07,2.34-.79,3.42-1.56A1.7,1.7,0,0,0,72,18.39C73.68,18.83,75,18,76.3,17,77.11,18.58,77.93,18.83,79.81,18.11Zm60.67-1.33.24.34c-.07.84.66.94,1.16,1.09a5.56,5.56,0,0,0,5.21-.88c.31-.23.58-.6.81.13s1,1,1.73,1c1.88.12,3.09-1.07,4.34-2.22.71,1.7,1.47,2.2,3.21,2.22a4.67,4.67,0,0,0,3.18-1.19,1.72,1.72,0,0,1,1.15-.51,4.43,4.43,0,0,0,3.31-1.68,16.62,16.62,0,0,0,1.78-2.83c.13-.23.08-.87.66-.56a.81.81,0,0,1,.52,1c-.1.34-.25.67-.38,1a18.81,18.81,0,0,0-.76,2,2.09,2.09,0,0,0,.48,2.33,2.47,2.47,0,0,0,2.6.23,7.91,7.91,0,0,0,1.7-1.2c.46,1.65,1.8,1.44,3,1.51a17.87,17.87,0,0,1-1.9,1c-1.41.7-2.06,1.95-1.6,3s2.07,1.37,3.42.78a3.94,3.94,0,0,0,1.76-1.57A9.47,9.47,0,0,0,177,20a1.85,1.85,0,0,1,1.11-1.14,10.75,10.75,0,0,0,4.69-3.8c.24-.36.92-.75.21-1.28s-.88.15-1.17.54a9,9,0,0,1-3.7,3.14c1-2.26,1.9-4.28,2.77-6.31.22-.53.86-1.23.5-1.59s-1.37-.14-2.08-.16c-.47,0-.52.42-.67.73-.49,1.09-1,2.19-1.46,3.28a9.29,9.29,0,0,1-2,2.84c-.27.26-.63.63-1,.39s-.15-.74,0-1.07c.61-1.48,1.26-2.94,1.89-4.4.84-1.91.84-1.89-1.25-1.8a1,1,0,0,0-1,.67c-.4,1-.85,2-1.3,3a12.29,12.29,0,0,1-2.43,3.53c-.23.23-.52.49-.84.27s-.18-.53-.09-.79c.32-.9.66-1.8,1-2.67a1.61,1.61,0,0,0-.45-2.05,9.42,9.42,0,0,0-1.25-.93c-.6-.34-1-.68-.48-1.38.29-.42.14-.65-.28-.94a1.07,1.07,0,0,0-1.49.15c-.59.51-1.12,1.08-.75,2,.16.39.46.71.15,1.2-.58.91-1.05,1.88-1.66,2.77A2.74,2.74,0,0,1,162,15.4c.23-.8.47-1.47.62-2.16.63-2.82-1.09-4.56-3.91-4a5.58,5.58,0,0,0-4.12,3.66,9.26,9.26,0,0,1-2.74,3.57c-.35.29-.82.65-1.29.36s-.17-.91,0-1.3c.75-1.84,1.58-3.65,2.36-5.49a.78.78,0,0,1,.91-.57c.91.12,1.2-.39,1.26-1.16-.36-.32-.88.08-1.2-.31.07-.69.66-1.2.61-2a11.69,11.69,0,0,1-1.57,0,1.08,1.08,0,0,0-1.32.86c-.25.87-.64,1.53-1.75,1.34-.58-.1-.7.51-.77.9s.41.35.67.36c.68,0,.58.33.37.76-.53,1.16-1,2.36-1.58,3.49a7.36,7.36,0,0,1-2.33,2.69,42.88,42.88,0,0,1,0-6c.1-.65.11-1.19-.74-1.29-.68-.08-1.36-.65-1.86.48a29.84,29.84,0,0,1-3,5.05,8.31,8.31,0,0,1-1.91,2c-.26.18-.55.37-.88.18s-.18-.57-.08-.85c.21-.6.44-1.19.69-1.78.67-1.56,1.34-3.11,2.08-4.79a8.33,8.33,0,0,1-1.15,0,1.69,1.69,0,0,0-2.18,1.41A14.93,14.93,0,0,1,136,13.41a4.2,4.2,0,0,1-2.48,2.3c-.34.11-.77.22-1-.05s.07-.59.2-.88q1.76-4,3.5-8c.11-.25.45-.54.1-.83-.54-.47-2.48,0-2.78.73-1.07,2.44-2.13,4.9-3.21,7.34-.12.28-.2.82-.49.73a7,7,0,0,1-2-1c-.38-.29.1-.73.23-1.07a17.79,17.79,0,0,1,1-2.19c.85-1.55,1-3.48,2.66-4.58.18-.13.12-.35.08-.56-.17-1-.89-1.26-2-.5a3.93,3.93,0,0,1-3.07.5c-1.61-.26-3.19-.78-4.86-.44A3.31,3.31,0,0,0,119,7.42a2.69,2.69,0,0,0,.9,2.92,3.65,3.65,0,0,0,3.94.46c.39-.17,1.1-.32.64-1-.3-.42-.37-1.33-1.38-.81-.73.38-1.7.42-2-.63s.54-1.39,1.41-1.53a3.72,3.72,0,0,1,.94,0c1.34.19,2.67.41,4.13.64-.64,1.51-1.28,2.92-1.86,4.36-.25.64-.56.83-1.24.6a5.91,5.91,0,0,0-4.45.05,3.17,3.17,0,0,0-2,3.48,3.14,3.14,0,0,0,2.83,2.52,5.21,5.21,0,0,0,5.32-2.24c.19-.26.29-.81.73-.66a5.22,5.22,0,0,1,2,1c.36.37-.23,1-.44,1.48-.78,1.82-.77,1.79.61,2.81.56.42.78.29,1-.31.33-.86.76-1.67,1.09-2.53a.73.73,0,0,1,.9-.55,4.25,4.25,0,0,0,2.86-.66c.49,1.41,1.09,1.79,2.53,1.64A5.77,5.77,0,0,0,140.48,16.78ZM7.65,60.76V93c0,1.61,0,1.61,1.54,1.61,5.08,0,10.16,0,15.23,0,1.16,0,1.5-.33,1.49-1.49-.05-6.52,0-13,0-19.55,0-1.59,0-1.6,1.57-1.6,11.08,0,22.16,0,33.23,0,1.16,0,1.59-.24,1.58-1.51q-.08-21,0-42c0-1.11-.24-1.51-1.44-1.51q-25.91.06-51.82,0c-1.15,0-1.38.38-1.37,1.44Q7.68,44.62,7.65,60.76Zm140-6.48c0,8.64,0,17.28,0,25.92,0,1,.32,1.38,1.37,1.38q25.62,0,51.24,0c1.06,0,1.38-.33,1.37-1.38-.05-4-.07-8,0-12,0-1.26-.41-1.52-1.59-1.51-9.48,0-19,0-28.44,0-1,0-1.92,0-2.88,0-.74,0-1-.28-1-1,0-1.2.08-2.4,0-3.6s.37-1.42,1.44-1.41c4.36.05,8.72,0,13.08,0,1.07,0,1.38-.34,1.36-1.37-.06-2.52-.06-5,0-7.56,0-1-.33-1.31-1.31-1.3-4.28,0-8.56,0-12.84,0-.91,0-1.29-.24-1.25-1.22.07-2,0-3.92,0-5.88,0-1.62,0-1.63,1.66-1.63,10.08,0,20.16,0,30.24,0,1.16,0,1.5-.35,1.48-1.5-.06-3.92-.07-7.84,0-11.76,0-1.21-.33-1.55-1.55-1.55q-25.44.06-50.88,0c-1.22,0-1.56.34-1.55,1.55C147.66,37.16,147.63,45.72,147.63,54.28Zm-40.19-8.45c0,5.8,0,11.6,0,17.4,0,1,.28,1.32,1.29,1.31,3.6-.05,7.2,0,10.8,0,.92,0,1.29-.25,1.26-1.22-.06-1.8,0-3.6,0-5.4,0-.34-.17-.8.22-1s.69.28.94.55c1.9,2.05,3.8,4.1,5.67,6.19a2.41,2.41,0,0,0,2,.88c4.64,0,9.27,0,13.91,0,.41,0,1,.21,1.2-.28s-.27-.79-.53-1.11c-2.27-2.74-4.56-5.47-6.83-8.21-.21-.26-.63-.49-.41-.9s.65-.22,1-.22c1.56,0,3.12-.07,4.67,0,1.12.07,1.43-.33,1.43-1.43q-.06-11.94,0-23.87c0-1.08-.28-1.45-1.41-1.45q-16.92.06-33.83,0c-1.09,0-1.34.37-1.33,1.39C107.46,34.24,107.44,40,107.44,45.83ZM30,97.76c0,5.92,0,11.84,0,17.76,0,1,.31,1.27,1.29,1.27q17,0,34,0c1,0,1.29-.31,1.28-1.3,0-5.32,0-10.64,0-16,0-2.57,0-2.63-2.59-2.55-1.19,0-1.38-.43-1.37-1.46,0-5.16,0-10.32,0-15.48,0-.93-.29-1.25-1.23-1.24q-15.06,0-30.11,0C30.29,78.79,30,79,30,80,30,85.93,30,91.84,30,97.76ZM84.73,64.52H102c1.52,0,1.6-.07,1.6-1.52,0-11.51,0-23,0-34.54,0-1.15-.41-1.42-1.47-1.4-3.48.05-7,0-10.44,0-1.62,0-1.63,0-1.63,1.66,0,8,0,15.91,0,23.86,0,1.06-.24,1.49-1.39,1.45-2.64-.09-5.28-.08-7.92,0-1.12,0-1.41-.33-1.4-1.43,0-8,0-16.07,0-24.11,0-1.05-.24-1.48-1.4-1.46-3.55.07-7.11.08-10.67,0C66.2,27,66,27.45,66,28.5q0,17.28,0,34.55c0,1.15.31,1.5,1.47,1.49C73.21,64.49,79,64.52,84.73,64.52Zm91,52.25c1.6,0,3.2,0,4.8,0a1.35,1.35,0,0,0,1.6-1.16q4.07-14,8.19-28c.38-1.3.32-1.39-1-1.39-3.12,0-6.24,0-9.36,0a1.34,1.34,0,0,0-1.57,1.18c-1.18,4.32-2.41,8.61-3.64,12.91-.1.37,0,.95-.5,1s-.57-.58-.75-1c-2-4.33-4.09-8.66-6.09-13a1.62,1.62,0,0,0-1.83-1.12,23.64,23.64,0,0,1-3.47,0,1.61,1.61,0,0,0-1.8,1.17c-2,4.39-4.08,8.75-6.15,13.12-.14.31-.18.82-.6.81s-.46-.58-.56-.93c-1.24-4.34-2.49-8.67-3.67-13a1.28,1.28,0,0,0-1.48-1.14c-3.11,0-6.23,0-9.35,0-1.41,0-1.46.07-1.06,1.44q4.1,14,8.19,28.05c.23.76.53,1.12,1.39,1.11,3.28-.05,6.56,0,9.84,0a1.47,1.47,0,0,0,1.56-1c1.52-3.22,3.1-6.4,4.68-9.59.19-.4.23-1.07.79-1.06s.53.63.72,1c1.53,3.11,3.09,6.22,4.55,9.37a1.81,1.81,0,0,0,2,1.24C172.72,116.7,174.24,116.77,175.76,116.77ZM81.5,110.58l.35-.1c1.67,1.82,3.35,3.63,5,5.48a2.12,2.12,0,0,0,1.75.82c3.76,0,7.52,0,11.27,0,.35,0,.78.14,1-.25s-.2-.65-.41-.9c-1.81-2.19-3.63-4.36-5.45-6.55-.16-.2-.48-.38-.33-.7s.48-.22.75-.23c1.2,0,2.4-.07,3.59,0s1.34-.35,1.33-1.38q-.06-9.54,0-19.07c0-1-.18-1.38-1.3-1.37q-13.61.06-27.22,0c-1,0-1.29.26-1.28,1.27q.06,14,0,27.94c0,.93.24,1.26,1.2,1.25,2.83-.05,5.67-.06,8.51,0,1,0,1.3-.41,1.26-1.35C81.46,113.82,81.5,112.2,81.5,110.58Zm38.31-24.39c-4.72,0-9.43,0-14.15,0-1,0-1.42.2-1.42,1.31q.06,14,0,28.08c0,.84.21,1.23,1.14,1.22q14.46,0,28.92,0c.86,0,1.08-.33,1.07-1.14,0-1.88,0-3.76,0-5.64,0-1.57,0-1.57-1.56-1.57-5.68,0-11.36,0-17,0-1,0-1.42-.3-1.29-1.3a2.48,2.48,0,0,0,0-.72c-.15-1.07.32-1.37,1.36-1.34,2.44.07,4.88,0,7.32,0,.91,0,1.19-.3,1.15-1.18a28.86,28.86,0,0,1,0-3.48c0-.93-.34-1.16-1.2-1.14-1.67.06-3.36,0-5,0-3.36,0-3.32,0-3.37-3.4,0-1.1.3-1.44,1.42-1.42,5.68,0,11.36,0,17,0,.94,0,1.26-.26,1.23-1.22q-.1-2.94,0-5.88c0-1-.29-1.31-1.29-1.3C129.33,86.21,124.57,86.19,119.81,86.19ZM73.19,74.67l-.28,0c-.22-.8-.42-1.61-.69-2.39-.43-1.28-.29-3.1-1.31-3.72s-2.63-.17-4-.19H66.8c-.77-.08-.83.22-.62.91Q67.92,75,69.55,80.73c.17.59.42.77,1,.75a21.45,21.45,0,0,1,3,0,1.81,1.81,0,0,0,2.13-1.38c.48-1.23,1.14-2.38,1.83-3.77.78,1.59,1.47,2.93,2.09,4.3a1.17,1.17,0,0,0,1.26.84c1.2,0,2.4,0,3.6,0,.49,0,.81-.09,1-.64Q87.1,75,88.84,69.13c.17-.58.06-.81-.57-.79a23.19,23.19,0,0,1-3.12,0c-1.06-.11-1.43.34-1.66,1.31C83.08,71.33,82.54,73,82,75c-1-2.18-2-4-2.73-5.85-.38-.93-1-.83-1.74-.82s-1.33-.12-1.72.83C75,71.05,74.06,72.85,73.19,74.67ZM141.24,78a1.1,1.1,0,0,1,1-.21c1.06.14,1.45-.2,1.4-1.34-.09-2.36,0-4.71,0-7.07,0-.75-.19-1-1-1q-5.44.06-10.9,0c-.82,0-1,.28-1,1,0,3.23,0,6.46,0,9.7,0,2.41,0,2.41,2.44,2.41,2.26,0,2.25,0,2.33-2.18a3.61,3.61,0,0,1,.25-.62c1.4,3.27,4.07,2.92,6.66,2.81.12,0,.24,0,.36,0,.3,0,.71.16.88-.16s-.22-.55-.41-.78C142.63,79.67,141.94,78.83,141.24,78Zm-18.39-9.59c-1.92,0-3.84,0-5.76,0-.78,0-1,.21-1,1,0,3.68.05,7.36,0,11,0,1,.31,1.12,1.16,1.11,3.32,0,6.64,0,10,0,2.3,0,2.25,0,2.31-2.36,0-1-.21-1.32-1.24-1.28-2.2.08-4.4,0-6.6,0-.47,0-.72-.13-.72-.68s.19-.7.7-.68c.84,0,1.69-.07,2.52,0,1.08.12,1-.54,1-1.26s.11-1.48-1.06-1.34c-.75.09-1.52,0-2.27,0S121,73.67,121,73s0-1.09.84-1c1.68.06,3.36,0,5,0,2.75,0,2.73,0,2.63-2.74,0-.67-.22-.89-.9-.88C126.69,68.41,124.77,68.39,122.85,68.39ZM102,81.47c.48,0,1,0,1.44,0,.9.08,1.14-.14.69-1-1.39-2.78-2.71-5.59-4.07-8.39-.59-1.21-.92-2.9-1.9-3.49s-2.71-.18-4.11-.21a1.92,1.92,0,0,1-.24,0,.94.94,0,0,0-1.1.66Q90,74.85,87.13,80.64c-.3.62-.23.86.49.84,1.16,0,2.32,0,3.48,0a.92.92,0,0,0,1.06-.74c.54-2.31,2.07-2.94,4.22-2.56a.65.65,0,0,0,.24,0,1.65,1.65,0,0,1,2.12,1.32,2.41,2.41,0,0,0,3.16,2ZM35.31,4.07A7.19,7.19,0,0,0,27.94,10a3.46,3.46,0,0,0,3.32,4.3c1,.08.78-.68,1-1.16.31-.69-.24-.56-.6-.66a1.56,1.56,0,0,1-1.22-1.79A5.26,5.26,0,0,1,34,6.26c2.2-.54,3.7.89,3.31,3.15a13.14,13.14,0,0,1-3,6c-.47.58-.84.76-1.55.26a5,5,0,0,0-4.1-.82,2.75,2.75,0,0,0-2.23,2.62,2.57,2.57,0,0,0,2.07,2.45,5.56,5.56,0,0,0,4.28-.61,1.07,1.07,0,0,1,1.45.18,25.66,25.66,0,0,0,3.73,3,4.93,4.93,0,0,0,5.72-.16c.36-.24,1.2-.48.55-1.11-.46-.44-.7-1.59-1.84-.74-1.38,1-2.16,1-3.59-.06-.9-.65-1.72-1.43-2.63-2.07-.73-.51-.79-.84-.1-1.5a13.32,13.32,0,0,0,3.7-6.33C40.72,6.72,38.88,4.08,35.31,4.07ZM90.25,18.16c2.13.28,2.13.28,2.89-1.46.41-.95.84-1.89,1.24-2.85a2.66,2.66,0,0,1,1.46-1.34.59.59,0,0,1,.68.07c.24.21.07.43,0,.64-.34.85-.72,1.69-1,2.55s-.52,1.7.27,2.33a2.36,2.36,0,0,0,2.6,0c.73-.32,1.19-1,1.86-1.42a3,3,0,0,0,4.66,1.18,9.66,9.66,0,0,1,3.24-1.17c.27,1.53,1.11,2.07,2.57,1.67a6.57,6.57,0,0,0,3.49-3c.2-.29.48-.59,0-.91s-.64,0-.87.29a7.23,7.23,0,0,1-1.85,2c-.31.21-.66.45-1,.23s-.15-.69,0-1c.64-1.54,1.33-3.07,2-4.61.13-.32.31-.56.7-.52s1-.07,1.06-.67c.08-.76-.77-.1-.94-.6l.59-1.55c-.93.24-2-.58-2.48.64-.31.69-.55,1.32-1.51,1.15-.41-.07-.5.36-.59.64-.16.49.27.38.51.38.48,0,.52.25.35.61-.5,1.09-1,2.19-1.54,3.24a2.23,2.23,0,0,1-1.7,1.1c.21-.75.43-1.37.55-2a2.44,2.44,0,0,0-2.81-3.13,4.52,4.52,0,0,0-3.93,3.06,8.16,8.16,0,0,1-2.26,3c-.26.21-.6.43-.87.23s-.13-.59,0-.89c.47-1.14,1-2.26,1.4-3.43.49-1.43-.19-2.27-1.66-1.93a12.31,12.31,0,0,1-3,0c-.48,0-.85,0-1.07.55C92.25,13.6,91.27,15.82,90.25,18.16Zm18.11,50.19c-1.75,0-3.51.06-5.26,0-1-.06-1.26.32-1.24,1.29,0,2.82,0,2.86,2.85,2.83,1,0,1.13.31,1.11,1.16-.06,2.24,0,4.48,0,6.71,0,1,.31,1.24,1.22,1.17a14,14,0,0,1,2.51,0c1,.09,1.47-.18,1.41-1.34-.1-2.23,0-4.47,0-6.71,0-.66.07-1,.88-1,1,0,2.35.48,2.84-.21s.12-2,.18-3c0-.71-.24-.89-.9-.87C112,68.37,110.2,68.35,108.36,68.35Zm31.73-59.7c.83-.12,1.46-.5,1.45-1.41S140.87,5.9,140,5.9a1.27,1.27,0,0,0-1.43,1.38C138.63,8.2,139.24,8.57,140.09,8.65ZM71.89,7.19A1.35,1.35,0,0,0,70.37,5.9a1.28,1.28,0,0,0-1.43,1.39,1.31,1.31,0,0,0,1.5,1.33A1.37,1.37,0,0,0,71.89,7.19Z"/><path class="cls-2" d="M23.28,124.55a.76.76,0,0,0,0-.21c.36,0,.72,0,1.08,0H186.5l.48,0a.34.34,0,0,0,0,.22Z"/><path class="cls-3" d="M7.65,60.76q0-16.14,0-32.27c0-1.06.22-1.44,1.37-1.44q25.91.06,51.82,0c1.2,0,1.45.4,1.44,1.51q0,21,0,42c0,1.27-.42,1.51-1.58,1.51-11.07,0-22.15,0-33.23,0-1.57,0-1.57,0-1.57,1.6,0,6.52,0,13,0,19.55,0,1.16-.33,1.5-1.49,1.49-5.07-.06-10.15,0-15.23,0-1.54,0-1.54,0-1.54-1.61ZM45.39,49.63c0-3,0-6,0-9,0-1-.2-1.34-1.25-1.33q-8.52.06-17,0c-.91,0-1.26.22-1.25,1.21q.06,9.06,0,18.11c0,1,.31,1.23,1.24,1.23q8.52-.06,17,0c1,0,1.27-.4,1.26-1.35C45.36,55.55,45.39,52.59,45.39,49.63Z"/><path class="cls-3" d="M147.63,54.28c0-8.56,0-17.12,0-25.68,0-1.21.33-1.55,1.55-1.55q25.44.06,50.88,0c1.22,0,1.58.34,1.55,1.55-.07,3.92-.06,7.84,0,11.76,0,1.15-.32,1.5-1.48,1.5-10.08,0-20.16,0-30.24,0-1.66,0-1.66,0-1.66,1.63,0,2,0,3.92,0,5.88,0,1,.34,1.23,1.25,1.22,4.28,0,8.56,0,12.84,0,1,0,1.33.29,1.31,1.3-.06,2.51-.06,5,0,7.56,0,1-.29,1.39-1.36,1.37-4.36,0-8.72,0-13.08,0-1.07,0-1.53.27-1.44,1.41s0,2.4,0,3.6c0,.71.23,1,1,1,1,0,1.92,0,2.88,0,9.48,0,19,0,28.44,0,1.18,0,1.61.25,1.59,1.51-.08,4-.06,8,0,12,0,1-.31,1.38-1.37,1.38q-25.62,0-51.24,0c-1,0-1.37-.33-1.37-1.38C147.65,71.56,147.63,62.92,147.63,54.28Z"/><path class="cls-3" d="M107.44,45.83c0-5.8,0-11.59,0-17.39,0-1,.24-1.39,1.33-1.39q16.91.06,33.83,0c1.13,0,1.41.37,1.41,1.45q-.06,11.94,0,23.87c0,1.1-.31,1.5-1.43,1.43-1.55-.08-3.11,0-4.67,0-.34,0-.79-.16-1,.22s.2.64.41.9c2.27,2.74,4.56,5.47,6.83,8.21.26.32.76.61.53,1.11s-.79.28-1.2.28c-4.64,0-9.27,0-13.91,0a2.41,2.41,0,0,1-2-.88c-1.87-2.09-3.77-4.14-5.67-6.19-.25-.27-.47-.78-.94-.55s-.22.65-.22,1c0,1.8-.05,3.6,0,5.4,0,1-.34,1.23-1.26,1.22-3.6,0-7.2,0-10.8,0-1,0-1.3-.33-1.29-1.31C107.46,57.43,107.44,51.63,107.44,45.83Zm18.47-8.13c-1.36,0-2.72,0-4.08,0-.74,0-1.1.24-1.09,1,0,1.47,0,3,0,4.43,0,.8.33,1,1.08,1q4,0,8,0c.74,0,1.12-.22,1.1-1,0-1.48,0-3,0-4.44,0-.77-.33-1.06-1.09-1C128.55,37.73,127.23,37.7,125.91,37.7Z"/><path class="cls-4" d="M30,97.76c0-5.92,0-11.83,0-17.75,0-1,.31-1.22,1.23-1.21q15,0,30.11,0c.94,0,1.24.31,1.23,1.24,0,5.16,0,10.32,0,15.48,0,1,.18,1.5,1.37,1.46,2.59-.08,2.59,0,2.59,2.55,0,5.32,0,10.64,0,16,0,1-.28,1.3-1.28,1.3q-17,0-33.95,0c-1,0-1.3-.25-1.29-1.27C30,109.6,30,103.68,30,97.76ZM47.15,101c-1.64,0-3.27,0-4.91,0-.62,0-1,.14-1,.86,0,1.87,0,3.75,0,5.62,0,.65.31.82.88.82,3.27,0,6.55,0,9.82,0,.67,0,.93-.28.92-.93,0-1.8,0-3.6,0-5.39,0-.83-.36-1-1.09-1C50.26,101.06,48.71,101,47.15,101ZM44.89,90.91c.16,0,.32,0,.48,0,4.14-.11,3.36.86,3.46-3.68,0-.75-.33-1-1-1-1,0-2.07,0-3.11,0-3.6,0-3.58,0-3.44,3.66,0,.73.29,1,1,1C43.14,90.89,44,90.91,44.89,90.91Z"/><path class="cls-3" d="M84.73,64.52c-5.76,0-11.52,0-17.28,0-1.16,0-1.48-.34-1.47-1.49Q66,45.77,66,28.5c0-1.05.22-1.47,1.38-1.45,3.56.08,7.12.07,10.67,0,1.16,0,1.4.41,1.4,1.46,0,8,0,16.08,0,24.11,0,1.1.28,1.46,1.4,1.43,2.64-.08,5.28-.09,7.92,0,1.15,0,1.4-.39,1.39-1.45,0-8,0-15.91,0-23.86,0-1.66,0-1.66,1.63-1.66,3.48,0,7,0,10.44,0,1.06,0,1.47.25,1.47,1.4,0,11.51,0,23,0,34.54,0,1.45-.08,1.52-1.6,1.52Z"/><path class="cls-4" d="M175.76,116.77c-1.52,0-3-.07-4.55,0a1.81,1.81,0,0,1-2-1.24c-1.46-3.15-3-6.26-4.55-9.37-.19-.38-.24-1-.72-1s-.6.66-.79,1.06c-1.58,3.19-3.16,6.37-4.68,9.59a1.47,1.47,0,0,1-1.56,1c-3.28,0-6.56,0-9.84,0-.86,0-1.16-.35-1.39-1.11q-4.06-14-8.19-28.05c-.4-1.37-.35-1.44,1.06-1.44,3.12,0,6.24,0,9.35,0a1.28,1.28,0,0,1,1.48,1.14c1.18,4.36,2.43,8.69,3.67,13,.1.35,0,.91.56.93s.46-.5.6-.81c2.07-4.37,4.13-8.73,6.15-13.12a1.61,1.61,0,0,1,1.8-1.17,23.64,23.64,0,0,0,3.47,0,1.62,1.62,0,0,1,1.83,1.12c2,4.36,4.05,8.69,6.09,13,.18.37.22,1,.75,1s.4-.63.5-1c1.23-4.3,2.46-8.59,3.64-12.91A1.34,1.34,0,0,1,180,86.17c3.12,0,6.24,0,9.36,0,1.31,0,1.37.09,1,1.39q-4.11,14-8.19,28.05a1.35,1.35,0,0,1-1.6,1.16C179,116.72,177.36,116.77,175.76,116.77Z"/><path class="cls-4" d="M81.5,110.58c0,1.62,0,3.24,0,4.86,0,.94-.21,1.37-1.26,1.35-2.84-.06-5.68-.05-8.51,0-1,0-1.2-.32-1.2-1.25q0-14,0-27.94c0-1,.29-1.27,1.28-1.27q13.61.06,27.22,0c1.12,0,1.31.37,1.3,1.37q-.06,9.54,0,19.07c0,1-.24,1.45-1.33,1.38s-2.39,0-3.59,0c-.27,0-.61-.09-.75.23s.17.5.33.7c1.82,2.19,3.64,4.36,5.45,6.55.21.25.63.49.41.9s-.64.25-1,.25c-3.75,0-7.51,0-11.27,0a2.12,2.12,0,0,1-1.75-.82c-1.65-1.85-3.33-3.66-5-5.48Zm4.08-10.31c1,0,2.08,0,3.11,0,.68,0,1.06-.18,1-.94,0-1.16,0-2.31,0-3.47,0-.69-.32-.89-1-.88-2.11,0-4.23,0-6.34,0-.74,0-1,.29-1,1,0,1.11,0,2.23,0,3.35,0,.72.3,1,1,1C83.51,100.25,84.55,100.27,85.58,100.27Z"/><path class="cls-4" d="M119.81,86.19c4.76,0,9.52,0,14.28,0,1,0,1.33.3,1.29,1.3q-.1,2.94,0,5.88c0,1-.29,1.23-1.23,1.22-5.68,0-11.36,0-17,0-1.12,0-1.43.32-1.42,1.42,0,3.4,0,3.4,3.37,3.4,1.68,0,3.37,0,5,0,.86,0,1.25.21,1.2,1.14a28.86,28.86,0,0,0,0,3.48c0,.88-.24,1.2-1.15,1.18-2.44,0-4.88,0-7.32,0-1,0-1.51.27-1.36,1.34a2.48,2.48,0,0,1,0,.72c-.13,1,.3,1.31,1.29,1.3,5.68,0,11.36,0,17,0,1.56,0,1.56,0,1.56,1.57,0,1.88,0,3.76,0,5.64,0,.81-.21,1.14-1.07,1.14q-14.46,0-28.92,0c-.93,0-1.14-.38-1.14-1.22q0-14,0-28.08c0-1.11.42-1.32,1.42-1.31C110.38,86.21,115.09,86.19,119.81,86.19Z"/><path class="cls-5" d="M140.48,16.78a5.77,5.77,0,0,1-3,1.69c-1.44.15-2-.23-2.53-1.64a4.25,4.25,0,0,1-2.86.66.73.73,0,0,0-.9.55c-.33.86-.76,1.67-1.09,2.53-.23.6-.45.73-1,.31-1.38-1-1.39-1-.61-2.81.21-.49.8-1.11.44-1.48a5.22,5.22,0,0,0-2-1c-.44-.15-.54.4-.73.66a5.21,5.21,0,0,1-5.32,2.24A3.14,3.14,0,0,1,118.06,16a3.17,3.17,0,0,1,2-3.48,5.91,5.91,0,0,1,4.45-.05c.68.23,1,0,1.24-.6.58-1.44,1.22-2.85,1.86-4.36-1.46-.23-2.79-.45-4.13-.64a3.72,3.72,0,0,0-.94,0c-.87.14-1.65.52-1.41,1.53s1.22,1,2,.63c1-.52,1.08.39,1.38.81.46.65-.25.8-.64,1a3.65,3.65,0,0,1-3.94-.46,2.69,2.69,0,0,1-.9-2.92,3.31,3.31,0,0,1,2.87-2.52c1.67-.34,3.25.18,4.86.44a3.93,3.93,0,0,0,3.07-.5c1.1-.76,1.82-.48,2,.5,0,.21.1.43-.08.56-1.63,1.1-1.81,3-2.66,4.58a17.79,17.79,0,0,0-1,2.19c-.13.34-.61.78-.23,1.07a7,7,0,0,0,2,1c.29.09.37-.45.49-.73,1.08-2.44,2.14-4.9,3.21-7.34.3-.69,2.24-1.2,2.78-.73.35.29,0,.58-.1.83q-1.74,4-3.5,8c-.13.29-.43.62-.2.88s.68.16,1,.05a4.2,4.2,0,0,0,2.48-2.3,14.93,14.93,0,0,0,1.16-2.62,1.69,1.69,0,0,1,2.18-1.41,8.33,8.33,0,0,0,1.15,0c-.74,1.68-1.41,3.23-2.08,4.79-.25.59-.48,1.18-.69,1.78-.1.28-.32.62.08.85s.62,0,.88-.18a8.31,8.31,0,0,0,1.91-2,29.84,29.84,0,0,0,3-5.05c.5-1.13,1.18-.56,1.86-.48.85.1.84.64.74,1.29a42.88,42.88,0,0,0,0,6,7.36,7.36,0,0,0,2.33-2.69c.59-1.13,1.05-2.33,1.58-3.49.21-.43.31-.75-.37-.76-.26,0-.77.17-.67-.36s.19-1,.77-.9c1.11.19,1.5-.47,1.75-1.34A1.08,1.08,0,0,1,152.89,6a11.69,11.69,0,0,0,1.57,0c0,.78-.54,1.29-.61,2,.32.39.84,0,1.2.31-.06.77-.35,1.28-1.26,1.16a.78.78,0,0,0-.91.57c-.78,1.84-1.61,3.65-2.36,5.49-.16.39-.55.95,0,1.3s.94-.07,1.29-.36a9.26,9.26,0,0,0,2.74-3.57,5.58,5.58,0,0,1,4.12-3.66c2.82-.57,4.54,1.17,3.91,4-.15.69-.39,1.36-.62,2.16A2.74,2.74,0,0,0,164,14.11c.61-.89,1.08-1.86,1.66-2.77.31-.49,0-.81-.15-1.2-.37-.88.16-1.45.75-2A1.07,1.07,0,0,1,167.78,8c.42.29.57.52.28.94-.49.7-.12,1,.48,1.38a9.42,9.42,0,0,1,1.25.93,1.61,1.61,0,0,1,.45,2.05c-.37.87-.71,1.77-1,2.67-.09.26-.15.62.09.79s.61,0,.84-.27A12.29,12.29,0,0,0,172.57,13c.45-1,.9-2,1.3-3a1,1,0,0,1,1-.67c2.09-.09,2.09-.11,1.25,1.8-.63,1.46-1.28,2.92-1.89,4.4-.14.33-.45.79,0,1.07s.77-.13,1-.39a9.29,9.29,0,0,0,2-2.84c.5-1.09,1-2.19,1.46-3.28.15-.31.2-.75.67-.73.71,0,1.6-.31,2.08.16s-.28,1.06-.5,1.59c-.87,2-1.78,4-2.77,6.31a9,9,0,0,0,3.7-3.14c.29-.39.5-1,1.17-.54s0,.92-.21,1.28a10.75,10.75,0,0,1-4.69,3.8A1.85,1.85,0,0,0,177,20a9.47,9.47,0,0,1-.9,1.69,3.94,3.94,0,0,1-1.76,1.57c-1.35.59-3,.22-3.42-.78s.19-2.26,1.6-3a17.87,17.87,0,0,0,1.9-1c-1.23-.07-2.57.14-3-1.51a7.91,7.91,0,0,1-1.7,1.2,2.47,2.47,0,0,1-2.6-.23,2.09,2.09,0,0,1-.48-2.33,18.81,18.81,0,0,1,.76-2c.13-.33.28-.66.38-1a.81.81,0,0,0-.52-1c-.58-.31-.53.33-.66.56a16.62,16.62,0,0,1-1.78,2.83,4.43,4.43,0,0,1-3.31,1.68,1.72,1.72,0,0,0-1.15.51,4.67,4.67,0,0,1-3.18,1.19c-1.74,0-2.5-.52-3.21-2.22-1.25,1.15-2.46,2.34-4.34,2.22-.77-.05-1.48-.24-1.73-1s-.5-.36-.81-.13a5.56,5.56,0,0,1-5.21.88c-.5-.15-1.23-.25-1.16-1.09.54-.08.89-.77,1.51-.5.94.4,1.27-.13,1.39-.89a13.64,13.64,0,0,0,0-3.67A25.78,25.78,0,0,1,140.48,16.78Zm19.73-4.93c0-.43-.07-.79-.45-1a.94.94,0,0,0-1.07.32,8,8,0,0,0-2.18,4.29,1.06,1.06,0,0,0,.3,1.2c.39.28.75.11,1.1-.13s.68-.58.41-1.17a1,1,0,0,1,.62-1.47C160.16,13.61,160,12.63,160.21,11.85Zm-38.52,4.7c1.12,0,3-1.44,2.59-1.91-.57-.76-1.58-.68-2.48-.61a1.37,1.37,0,0,0-.35.08c-.71.21-1.28.63-1.14,1.43A1.29,1.29,0,0,0,121.69,16.55Zm52.58,3.59a4,4,0,0,0-1.85.92.5.5,0,0,0-.17.63c.18.3.47.27.74.14A2.94,2.94,0,0,0,174.27,20.14Z"/><path class="cls-5" d="M83.64,17.22a8.84,8.84,0,0,0,3.31-3c.25-.36.45-.82,1-.45s.21.8,0,1.18a10.88,10.88,0,0,1-4.74,3.91A2.08,2.08,0,0,0,82,20a7.14,7.14,0,0,1-1.25,2.17,3.45,3.45,0,0,1-3.06,1.31,1.83,1.83,0,0,1-1.77-1.19,1.89,1.89,0,0,1,.58-2.07,9.33,9.33,0,0,1,2.84-1.5c.25-.12.53-.19.68-.45l.09-.28-.28.08c-1.88.72-2.7.47-3.51-1.14C75,18,73.68,18.83,72,18.39a1.7,1.7,0,0,1-1.22-1.46c-1.08.77-2,1.63-3.42,1.56-.78,0-1.48-.24-1.74-1s-.48-.38-.8-.11a4.8,4.8,0,0,1-1.76,1c-1.44.42-2.27.08-3.1-1.34a5.79,5.79,0,0,1-2.68,1.43c-1.09.13-2.09,0-2.62-1.15-2.67,1.76-4,1.6-4.88-.6a12,12,0,0,1-2.14,1.5,2.45,2.45,0,0,1-3.2-.64c-.43-.52-.59-.12-.83.07a3.52,3.52,0,0,1-2.54.85,1.7,1.7,0,0,1-1.71-1.78,5.4,5.4,0,0,1,.54-2.31c.55-1.29,1.19-2.54,1.66-3.85a1.49,1.49,0,0,1,1.85-1.16,12.14,12.14,0,0,0,1.38,0c-.8,1.81-1.55,3.46-2.24,5.15-.27.66-1,1.64-.37,2s1.3-.63,1.79-1.22c1.25-1.51,1.77-3.39,2.6-5.11a2.55,2.55,0,0,1,2.74-.82c.4.28,0,.58-.06.83-.63,1.51-1.3,3-2,4.5a5.75,5.75,0,0,0-.31.78c-.13.44-.49,1,0,1.3s.9-.18,1.24-.5a9,9,0,0,0,2.37-3.26,8.15,8.15,0,0,1,1.7-2.73c1.54-1.54,3.14-1.58,4.7-.13a2.73,2.73,0,0,1,2.77-.81c.48.24.13.54,0,.79-.68,1.61-1.41,3.21-2.07,4.83-.23.56-.8,1.35-.22,1.74s1.19-.39,1.66-.85a9.34,9.34,0,0,0,2.09-3C62.12,10.84,63,8.8,64,6.76c.27-.59,2.22-1.09,2.7-.67.32.29,0,.58-.09.85-1.1,2.52-2.21,5-3.31,7.57a10.23,10.23,0,0,0-.53,1.33c-.09.32-.31.75.08,1s.7,0,1-.27a9.32,9.32,0,0,0,2.71-3.45c.46-1,.92-2,1.36-3.06a.9.9,0,0,1,.86-.67c2.15-.17,2.2-.11,1.33,1.89-.67,1.53-1.32,3.07-2,4.62-.12.28-.3.64,0,.89s.68,0,1-.16a6.71,6.71,0,0,0,2.16-2.37c.74-1.32,1.32-2.73,2-4.1.19-.4.17-.67-.4-.67-.25,0-.77.19-.7-.31s.17-1.06.84-1c.95.14,1.34-.34,1.63-1.15a2.3,2.3,0,0,1,2.75-1c.33.15.22.36.13.58l-.64,1.49,1.33.13c-.09.85-.42,1.39-1.37,1.24-.43-.07-.66.17-.82.54-.79,1.83-1.61,3.64-2.37,5.49-.18.41-.47,1,0,1.32s.93-.06,1.29-.36a9.25,9.25,0,0,0,2.66-3.35c.46-1,.92-2,1.36-3.06.17-.39.32-.73.84-.68s1.49-.28,1.84.15-.27,1.14-.5,1.71c-.58,1.44-1.24,2.85-1.83,4.29-.14.34-.48.79,0,1.09s.83-.14,1.12-.43a9.31,9.31,0,0,0,2-3c.49-1.09,1-2.2,1.46-3.29.22-.47,2.36-.86,2.67-.47s0,.6-.15.88c-.94,2.19-1.91,4.38-2.86,6.57-.11.11-.17.25-.06.37S83.54,17.25,83.64,17.22Zm-31.2-1.58c0,1,.54,1,1.2.67,1.49-.73,1.68-2.32,2.35-3.59a1,1,0,0,0-.11-1.3c-.5-.41-1-.14-1.4.21A7.14,7.14,0,0,0,52.44,15.64ZM79.22,20c-.69.37-1.18.61-1.64.9-.27.17-.53.49-.3.8s.64.2.93,0A2.71,2.71,0,0,0,79.22,20Z"/><path class="cls-6" d="M73.19,74.67c.87-1.82,1.82-3.62,2.57-5.49.39-1,1-.82,1.72-.83s1.36-.11,1.74.82C80,71,80.92,72.84,82,75c.59-2,1.13-3.69,1.54-5.39.23-1,.6-1.42,1.66-1.31a23.19,23.19,0,0,0,3.12,0c.63,0,.74.21.57.79Q87.1,75,85.42,80.84c-.16.55-.48.65-1,.64-1.2,0-2.4,0-3.6,0a1.17,1.17,0,0,1-1.26-.84c-.62-1.37-1.31-2.71-2.09-4.3-.69,1.39-1.35,2.54-1.83,3.77a1.81,1.81,0,0,1-2.13,1.38,21.45,21.45,0,0,0-3,0c-.57,0-.82-.16-1-.75Q67.91,75,66.18,69.26c-.21-.69-.15-1,.62-.91h.12c1.36,0,3-.41,4,.19s.88,2.44,1.31,3.72c.27.78.47,1.59.69,2.39Z"/><path class="cls-6" d="M141.24,78c.7.85,1.39,1.69,2.07,2.55.19.23.6.43.41.78s-.58.12-.88.16c-.12,0-.24,0-.36,0-2.59.11-5.26.46-6.66-2.81a3.61,3.61,0,0,0-.25.62c-.08,2.18-.07,2.18-2.33,2.18-2.44,0-2.44,0-2.44-2.41,0-3.24,0-6.47,0-9.7,0-.75.15-1,1-1q5.46.06,10.9,0c.82,0,1,.28,1,1,0,2.36-.08,4.71,0,7.07.05,1.14-.34,1.48-1.4,1.34A1.1,1.1,0,0,0,141.24,78Zm-4-3.57c.56-.33,1.44.46,1.76-.5.42-1.28,0-1.8-1.35-1.81a4.33,4.33,0,0,1-.72,0c-1.08-.18-1.41.24-1.39,1.35C135.55,75,136.65,74.09,137.22,74.41Z"/><path class="cls-5" d="M122.85,68.39c1.92,0,3.84,0,5.75,0,.68,0,.88.21.9.88.1,2.74.12,2.74-2.63,2.74-1.68,0-3.36.05-5,0-.88,0-.82.46-.84,1s.12,1,.85.93,1.52.06,2.27,0c1.17-.14,1.06.6,1.06,1.34s.08,1.38-1,1.26c-.83-.09-1.68,0-2.52,0-.51,0-.7.15-.7.68s.25.68.72.68c2.2,0,4.4,0,6.6,0,1,0,1.26.32,1.24,1.28-.06,2.36,0,2.36-2.31,2.36-3.31,0-6.63,0-10,0-.85,0-1.17-.16-1.16-1.11.06-3.67,0-7.35,0-11,0-.78.21-1,1-1C119,68.43,120.93,68.39,122.85,68.39Z"/><path class="cls-6" d="M102,81.47h-.12a2.41,2.41,0,0,1-3.16-2,1.65,1.65,0,0,0-2.12-1.32.65.65,0,0,1-.24,0c-2.15-.38-3.68.25-4.22,2.56a.92.92,0,0,1-1.06.74c-1.16,0-2.32,0-3.48,0-.72,0-.79-.22-.49-.84Q90,74.83,92.73,69a.94.94,0,0,1,1.1-.66,1.92,1.92,0,0,0,.24,0c1.4,0,3.06-.41,4.11.21s1.31,2.28,1.9,3.49c1.36,2.8,2.68,5.61,4.07,8.39.45.9.21,1.12-.69,1C103,81.44,102.5,81.47,102,81.47ZM95,74.88c.62,0,1.27.27,1.43-.16s-.31-.87-.59-1.52Z"/><path class="cls-5" d="M35.31,4.07c3.57,0,5.41,2.65,4.43,6.47A13.32,13.32,0,0,1,36,16.87c-.69.66-.63,1,.1,1.5.91.64,1.73,1.42,2.63,2.07,1.43,1,2.21,1.09,3.59.06,1.14-.85,1.38.3,1.84.74.65.63-.19.87-.55,1.11a4.93,4.93,0,0,1-5.72.16,25.66,25.66,0,0,1-3.73-3,1.07,1.07,0,0,0-1.45-.18,5.56,5.56,0,0,1-4.28.61,2.57,2.57,0,0,1-2.07-2.45,2.75,2.75,0,0,1,2.23-2.62,5,5,0,0,1,4.1.82c.71.5,1.08.32,1.55-.26a13.14,13.14,0,0,0,3-6C37.7,7.15,36.2,5.72,34,6.26a5.26,5.26,0,0,0-3.56,4.39,1.56,1.56,0,0,0,1.22,1.79c.36.1.91,0,.6.66-.22.48,0,1.24-1,1.16A3.46,3.46,0,0,1,27.94,10,7.19,7.19,0,0,1,35.31,4.07ZM31.7,17.6a3,3,0,0,0-2.24-.92c-.41,0-.83.1-.91.6s.38.75.8.85A3.15,3.15,0,0,0,31.7,17.6Z"/><path class="cls-5" d="M90.25,18.16c1-2.34,2-4.56,3-6.79.22-.5.59-.55,1.07-.55a12.31,12.31,0,0,0,3,0c1.47-.34,2.15.5,1.66,1.93-.4,1.17-.93,2.29-1.4,3.43-.12.3-.28.68,0,.89s.61,0,.87-.23a8.16,8.16,0,0,0,2.26-3,4.52,4.52,0,0,1,3.93-3.06,2.44,2.44,0,0,1,2.81,3.13c-.12.65-.34,1.27-.55,2a2.23,2.23,0,0,0,1.7-1.1c.56-1,1-2.15,1.54-3.24.17-.36.13-.6-.35-.61-.24,0-.67.11-.51-.38.09-.28.18-.71.59-.64,1,.17,1.2-.46,1.51-1.15.53-1.22,1.55-.4,2.48-.64l-.59,1.55c.17.5,1-.16.94.6-.06.6-.53.73-1.06.67s-.57.2-.7.52c-.66,1.54-1.35,3.07-2,4.61-.12.3-.35.74,0,1s.68,0,1-.23a7.23,7.23,0,0,0,1.85-2c.23-.33.44-.58.87-.29s.18.62,0,.91a6.57,6.57,0,0,1-3.49,3c-1.46.4-2.3-.14-2.57-1.67a9.66,9.66,0,0,0-3.24,1.17,3,3,0,0,1-4.66-1.18c-.67.41-1.13,1.1-1.86,1.42a2.36,2.36,0,0,1-2.6,0c-.79-.63-.54-1.52-.27-2.33s.68-1.7,1-2.55c.08-.21.25-.43,0-.64a.59.59,0,0,0-.68-.07,2.66,2.66,0,0,0-1.46,1.34c-.4,1-.83,1.9-1.24,2.85C92.38,18.44,92.38,18.44,90.25,18.16ZM105.38,13c0-.41,0-.74-.36-.89a.8.8,0,0,0-.87.26,6.93,6.93,0,0,0-1.83,3.56.93.93,0,0,0,.25,1c.28.25.59.11.87-.07s.61-.48.39-1a.88.88,0,0,1,.56-1.25C105.33,14.36,105.24,13.6,105.38,13Z"/><path class="cls-7" d="M108.36,68.35c1.84,0,3.68,0,5.51,0,.66,0,.95.16.9.87-.06,1,.31,2.32-.18,3s-1.86.23-2.84.21c-.81,0-.89.34-.88,1,0,2.24-.06,4.48,0,6.71.06,1.16-.36,1.43-1.41,1.34a14,14,0,0,0-2.51,0c-.91.07-1.25-.18-1.22-1.17.08-2.23,0-4.47,0-6.71,0-.85-.16-1.18-1.11-1.16-2.85,0-2.81,0-2.85-2.83,0-1,.19-1.35,1.24-1.29C104.85,68.41,106.61,68.35,108.36,68.35Z"/><path class="cls-5" d="M140.09,8.65c-.85-.08-1.46-.45-1.48-1.37A1.27,1.27,0,0,1,140,5.9c.83,0,1.5.41,1.5,1.34S140.92,8.53,140.09,8.65Z"/><path class="cls-5" d="M71.89,7.19a1.37,1.37,0,0,1-1.45,1.43,1.31,1.31,0,0,1-1.5-1.33A1.28,1.28,0,0,1,70.37,5.9,1.35,1.35,0,0,1,71.89,7.19Z"/><path class="cls-1" d="M45.39,49.63c0,3,0,5.92,0,8.87,0,1-.22,1.36-1.26,1.35q-8.52-.06-17,0c-.93,0-1.25-.26-1.24-1.23q.06-9.06,0-18.11c0-1,.34-1.21,1.25-1.21q8.52.06,17,0c1.05,0,1.26.38,1.25,1.33C45.36,43.63,45.39,46.63,45.39,49.63Z"/><path class="cls-1" d="M125.91,37.7c1.32,0,2.64,0,4,0,.76,0,1.1.27,1.09,1,0,1.48,0,3,0,4.44,0,.8-.36,1-1.1,1q-4,0-8,0c-.75,0-1.09-.23-1.08-1,0-1.48,0-3,0-4.43,0-.8.35-1,1.09-1C123.19,37.73,124.55,37.7,125.91,37.7Z"/><path class="cls-1" d="M47.15,101c1.56,0,3.11,0,4.67,0,.73,0,1.11.16,1.09,1,0,1.79,0,3.59,0,5.39,0,.65-.25.94-.92.93-3.27,0-6.55,0-9.82,0-.57,0-.89-.17-.88-.82,0-1.87,0-3.75,0-5.62,0-.72.35-.87,1-.86C43.88,101.05,45.51,101,47.15,101Z"/><path class="cls-1" d="M44.89,90.91c-.88,0-1.75,0-2.63,0-.71,0-1-.24-1-1-.14-3.66-.16-3.66,3.44-3.66,1,0,2.08,0,3.11,0,.69,0,1,.2,1,1-.1,4.54.68,3.57-3.46,3.68C45.21,90.92,45.05,90.91,44.89,90.91Z"/><path class="cls-1" d="M85.58,100.27c-1,0-2.07,0-3.11,0-.71,0-1-.24-1-1,0-1.12,0-2.24,0-3.35,0-.7.23-1,1-1,2.11,0,4.23,0,6.34,0,.64,0,1,.19,1,.88,0,1.16,0,2.31,0,3.47,0,.76-.36,1-1,.94C87.66,100.25,86.62,100.27,85.58,100.27Z"/><path class="cls-1" d="M160.21,11.85c-.2.78-.05,1.76-1.27,2.07a1,1,0,0,0-.62,1.47c.27.59,0,.88-.41,1.17s-.71.41-1.1.13a1.06,1.06,0,0,1-.3-1.2,8,8,0,0,1,2.18-4.29.94.94,0,0,1,1.07-.32C160.14,11.06,160.18,11.42,160.21,11.85Z"/><path class="cls-1" d="M121.69,16.55a1.29,1.29,0,0,1-1.38-1c-.14-.8.43-1.22,1.14-1.43a1.37,1.37,0,0,1,.35-.08c.9-.07,1.91-.15,2.48.61C124.64,15.11,122.81,16.54,121.69,16.55Z"/><path class="cls-1" d="M140.48,16.78a25.78,25.78,0,0,0,3.13-4.72,13.64,13.64,0,0,1,0,3.67c-.12.76-.45,1.29-1.39.89-.62-.27-1,.42-1.51.5Z"/><path class="cls-1" d="M174.27,20.14A2.94,2.94,0,0,1,173,21.83c-.27.13-.56.16-.74-.14a.5.5,0,0,1,.17-.63A4,4,0,0,1,174.27,20.14Z"/><path class="cls-1" d="M52.44,15.64a7.14,7.14,0,0,1,2-4c.39-.35.9-.62,1.4-.21a1,1,0,0,1,.11,1.3c-.67,1.27-.86,2.86-2.35,3.59C53,16.63,52.47,16.65,52.44,15.64Z"/><path class="cls-1" d="M79.22,20a2.71,2.71,0,0,1-1,1.67c-.29.23-.67.39-.93,0s0-.63.3-.8C78,20.63,78.53,20.39,79.22,20Z"/><path class="cls-8" d="M83.64,17.22c-.1,0-.25.11-.28.08s0-.26.06-.37Z"/><path class="cls-8" d="M79.81,18.11l.28-.08-.09.28Z"/><path class="cls-1" d="M137.22,74.41c-.57-.32-1.67.57-1.7-1,0-1.11.31-1.53,1.39-1.35a4.33,4.33,0,0,0,.72,0c1.34,0,1.77.53,1.35,1.81C138.66,74.87,137.78,74.08,137.22,74.41Z"/><path class="cls-1" d="M95,74.88l.84-1.68c.28.65.72,1.19.59,1.52S95.57,74.87,95,74.88Z"/><path class="cls-1" d="M31.7,17.6a3.15,3.15,0,0,1-2.35.53c-.42-.1-.88-.27-.8-.85s.5-.59.91-.6A3,3,0,0,1,31.7,17.6Z"/><path class="cls-1" d="M105.38,13c-.14.59,0,1.35-1,1.62a.88.88,0,0,0-.56,1.25c.22.5,0,.75-.39,1s-.59.32-.87.07a.93.93,0,0,1-.25-1,6.93,6.93,0,0,1,1.83-3.56.8.8,0,0,1,.87-.26C105.37,12.27,105.4,12.6,105.38,13Z"/></g></g></svg>