<svg xmlns="http://www.w3.org/2000/svg" xmlns:xlink="http://www.w3.org/1999/xlink" width="1079.25" height="583.5" viewBox="0 0 1079.25 583.5"><defs><filter id="luminosity-invert" filterUnits="userSpaceOnUse" color-interpolation-filters="sRGB"><feColorMatrix values="-1 0 0 0 1 0 -1 0 0 1 0 0 -1 0 1 0 0 0 1 0"/></filter><mask id="mask" x="0" y="0" width="1079.25" height="584.0006" maskUnits="userSpaceOnUse"><path d="M404.5055,581.4848,412.34,559.723a19.6292,19.6292,0,0,0,1.16-6.6485V522.5016l0-.0031-1.9957-6.9847a.0114.0114,0,0,0-.0165-.0068l-8.9844,4.9914-.0046.0046-8.9966,16.9935-.0054.0051L384.5,541.5l-27.9973,11.9989-.0056.0008-10.9953-1-.0019,0c-.032-.0143-9.0124-3.9964-16-2-7,2-67.9979-33.9987-68-34v-1c1-2,15-36,17-39l.4258-1.7045a5.1465,5.1465,0,0,1,2.5736-3.2952l.0006,0-1.0017-2.995.0012-.0058c-.0443-.0734-3.0293-4.9992-7-4.9992-3.9948,0-15.9691-7.9794-16-8l-.0011-.0011L250.5,447.5l0,0c-.0056-.0072-6.9944-9.0036,7-18a9.1343,9.1343,0,0,1,8-2h0c-.0058-.005-15.9993-14.0009-13-20h0c-.0015-.0021-6.9832-9.98,14.9321-17.9752a.0648.0648,0,0,1,.0805.0306c.0739.1955.5756.7975,3.987-.0553h0c-.0027-.008-4.2974-14.527-1-17,4-3,5-8,13-9,7.9795-.9974,15.9693,4.9744,16,5l.0021.0008,2.9857.9952a.0113.0113,0,0,0,.0148-.0086l.9961-4.9805c.0009-.0042.0035-.0051,0-.0077-.0868-.07-4.9988-3.9991-3.9988-7.9991.7256-2.9026-5.9706-8.9636-6-9l-.0015-.0013-3.9969-2.9976L289.5,344.5c-.05-.0138-16.2092-4.4884-7-16,7.49-9.363,19.364-7.3295,20.8464-7.0324a1.7262,1.7262,0,0,0,.34.0324h1.802a.0114.0114,0,0,0,.0114-.0114v-2.9854l.0017-.006,7.9966-12.9944.0017-.006v-7.9852c0-.0064-.0025-.0116.0039-.0115.5564.0091,61.0283,1.0043,70.9926,2l.0069-.0019L387.5,297.5c15.8693-11.6567,31.912-23.2534,49.3382-32.93q13.3067-7.3892,27.1508-13.7489c3.132-1.4438,25.3852-8.96,20.511-13.3212,0,0-5-6-6-12,0,0-5-6-8-20v0c-.0051-.0061-5-6.001-4-8a102.0775,102.0775,0,0,1-9-16c-3.6777-8.2749,0-2,0-2s-20-31-16-41c0,0,0-44,3-47,0,0-2-23,15-35s35-28,45-31c9.9176-2.9753,34.5717-6.9341,57.4306,8.6084a9.3867,9.3867,0,0,1,1.0734.8553C566.6419,38.3081,589.9123,58.6649,594.5,60.5c2.7655,1.1062,22.4546,14.4888,28.7547,50.8977a8.1666,8.1666,0,0,1-.7266,5.046h0c-.0056.0112.0039.0257.0132.0173.6474-.5919,6.7844-7.74,4.9587,30.0389-.0317.657-.8654,3.3562-1,4-.2906,1.39,0,3.125,0,6,0,4,5,15,4,19s-1,7-4,9c0,0,2.4472,13.1056,2,14-1,2,2,0,6,3,2.8844,2.1633,27,39,27,39s21,8,23,9,38,14,49,24l15,13s8.9507-.9933,13.9588,44.6243a6.8716,6.8716,0,0,1,.0411.7479c0,.2842,0,.6274,0,.6278l37,105.9986,0,.0015c.0022.0489,1.0033,22.0055,4,27,2.998,4.9967-6.9867,46.944-7,47v3.9976l.001.0047,4.9976,10.9948.0009.0063L798.5,548.4993V548.5c-.0059.0218-7.0013,26.0008-10,28-2.9649,1.9766-4.953,6.8833-4.9992,6.998-.0017.0043-.0039.002-.0085.002l-378.9762-2A.0114.0114,0,0,1,404.5055,581.4848Z" stroke="#000" stroke-miterlimit="10" filter="url(#luminosity-invert)"/></mask></defs><title>bill-can</title><g id="Layer_2" data-name="Layer 2"><g id="Layer_1-2" data-name="Layer 1"><g mask="url(#mask)"><image width="1439" height="778" transform="scale(0.75)" xlink:href="D:\PWB\2015_GM Bill Gaffi holding can.jpg"/></g></g></g></svg>