<svg xmlns="http://www.w3.org/2000/svg" width="682.1141" height="163.2716" viewBox="0 0 682.1141 163.2716"><title>cwi-white</title><g id="Layer_2" data-name="Layer 2"><g id="Layer_1-2" data-name="Layer 1"><path d="M0,97.3786a29.3252,29.3252,0,0,0,.8613-3.7465c2.5949-8.6761,8.505-13.97,17.0417-16.345,8.46-2.3533,16.816-1.4847,25.0067,1.4959.8083.2941,1.0852.5955.822,1.5554a34.5512,34.5512,0,0,0-1.0638,7.3229c-.0577,1.0873-.5241,1.4463-1.5719,1.3194-.5563-.0673-.76-.2795-.7839-.818-.057-1.3152-.23-2.63-.2051-3.9425a1.9207,1.9207,0,0,0-1.0388-1.833,20.9549,20.9549,0,0,0-9.2888-3.1811A22.219,22.219,0,0,0,18.0712,80.841,16.6285,16.6285,0,0,0,8.6205,91.5033a24.2975,24.2975,0,0,0,.7367,17.3c2.9085,6.6413,8.1606,10.4523,15.1864,11.8421a27.7484,27.7484,0,0,0,14.4-.9345,18.3991,18.3991,0,0,0,4.1576-2.0751c.2477-.1606.5012-.604.9137-.1815a.9078.9078,0,0,1,.19,1.0473,5.2365,5.2365,0,0,1-3.5553,3.7223c-9.39,3.4576-18.75,3.8585-27.8452-.6565A21.74,21.74,0,0,1,.24,103.6949c-.0188-.1632-.0255-.3122-.24-.3163Z" fill="#fff"/><path d="M192.8263,113.1083c1.8173-4.4429,3.57-8.7424,5.3341-13.0375,3.0959-7.5387,6.1316-15.1014,8.83-22.7927.3175-.9048.8148-.9266,1.578-.9945.9212-.082,1.1514.4116,1.3726,1.1044,3.882,12.1539,8.5595,24.0232,12.9346,36.3007.5173-1.7586.971-3.2648,1.4035-4.7771,2.4927-8.7159,5.1768-17.3794,7.2093-26.2217a16.413,16.413,0,0,0,.3616-1.874c.1341-1.2236-.1669-1.5751-1.4173-1.6671-1.1534-.0849-2.3115-.1775-3.4657-.1583-1.0842.0181-.9525-.6743-.9689-1.3612-.02-.8347.45-.838,1.1-.7935A89.6018,89.6018,0,0,0,239.43,76.832c.5717-.04,1.1134-.0771,1.0219.7185-.0608.5294.4193,1.3884-.7482,1.3575-2.3279-.0616-3.4277,1.2309-4.1046,3.3659-3.3637,10.6095-6.7021,21.2244-9.5184,31.9964-.7744,2.962-1.6354,5.9017-2.3766,8.8716-.1909.7649-.5374.8974-1.23.8938-2.5463-.0135-2.5542.0116-3.3723-2.3946C215.34,110.5782,211.1006,99.69,207.0321,88.74c-.1169-.3147-.1165-.7354-.5343-.9167-4.7835,11.6019-9.583,23.2006-13.7206,35.0569a1.409,1.409,0,0,1-1.6509,1.1668c-2.2748-.0794-2.2714-.0257-2.75-2.2212-2.8479-13.0658-6.0688-26.0445-9.12-39.0627-.0271-.116-.078-.2262-.1108-.3411-.79-2.763-1.027-2.9827-3.9005-3.2982-.9505-.1043-1.6257-.3391-1.4372-1.5134.0939-.5848.3267-.8309.9416-.7917a123.5753,123.5753,0,0,0,15.4475.002c.7365-.0451,1.0263.2335,1.0324.9451.0056.6453.0076,1.21-.89,1.2159-.8755.0056-1.75.1023-2.6258.145-1.8722.0915-2.2317.5337-1.91,2.4.63,3.65,1.3233,7.288,2.1526,10.8986q2.2577,9.83,4.53,19.6568C192.5543,112.378,192.6766,112.662,192.8263,113.1083Z" fill="#fff"/><path d="M431.51,16.4828c-9.5457,3.8518-17.4543,10.005-24.6123,17.186A131.3219,131.3219,0,0,0,386.67,60.652c-.4387.7533-.1028,1.0511.3777,1.4655a69.9625,69.9625,0,0,1,19.4282,27.97,22.5,22.5,0,0,1,1.6514,5.7362c-1.1431-1.67-2.27-3.3506-3.4319-5.0068-8.9324-12.732-19.3573-24.0008-32.1849-32.9334a78.8971,78.8971,0,0,0-21.0023-10.5361A63.5679,63.5679,0,0,1,385.5454,60.783c.3557-.1414.32-.4946.4061-.7791,3.0832-10.2291,7.8036-19.5641,15.0372-27.5251A49.0633,49.0633,0,0,1,430.5629,16.564C430.8752,16.5153,431.1942,16.509,431.51,16.4828Z" fill="#fff"/><path d="M391.4711,114.8523c-1.4992-2.4593-2.8049-4.646-4.1535-6.806a192.0721,192.0721,0,0,0-27.1718-34.6489A124.2953,124.2953,0,0,0,331.008,51.3155a69.866,69.866,0,0,0-10.824-4.7063,9.2738,9.2738,0,0,1,3.19.2156c.99.1088,1.9677.3319,2.9471.524a75.3927,75.3927,0,0,1,37.9636,19.49A92.1584,92.1584,0,0,1,382.9927,92.182a102.8017,102.8017,0,0,1,8.3291,21.7619C391.3689,114.1308,391.3857,114.3253,391.4711,114.8523Z" fill="#fff"/><path d="M142.3539,98.2206a45.4778,45.4778,0,0,0,3.5576-3.1136,9.5375,9.5375,0,0,1,7.267-3.059c3.6639-.0292,6.9659.944,9.3811,3.8758,1.5494,1.8807,1.8049,4.2255,1.81,6.5554.0121,5.3527.0338,10.7043.2608,16.053.0218.5145.1481,1.0239.186,1.5385.0817,1.1075.7916,1.4783,1.7666,1.5532.7551.058,1.5121.1614,2.2662.1453.8746-.0187.7946.53.8272,1.1123.0366.6563-.1516.96-.8658.9069a59.675,59.675,0,0,0-9.5644-.0064c-.805.07-1.0043-.26-.9324-1.0613a168.8433,168.8433,0,0,0,.2774-19.284c-.1463-5.916-6.1632-9.04-11.6228-6.2242a14.5638,14.5638,0,0,0-2.7574,1.8943,5.1615,5.1615,0,0,0-1.9688,4.2739c.1084,5.3112-.1249,10.6279.2911,15.9352.1391,1.7745.5528,2.2246,2.3333,2.303.5987.0264,1.1973.0542,1.7963.0731.8371.0265,1.1754.4034,1.1417,1.2839-.0376.9816-.6742.8305-1.2487.7962a122.2147,122.2147,0,0,0-14.4779.0023c-.5364.0315-1.1294.1751-1.1366-.7548-.0061-.7932.1067-1.312,1.042-1.3244.8374-.011,1.6769-.0624,2.51-.1474a1.6432,1.6432,0,0,0,1.6168-1.722,156.8686,156.8686,0,0,0,.1851-20.943c-.1274-2.0282-.36-2.2149-2.3878-2.2378-.68-.0077-1.36-.0145-2.0392.0022-.6113.0151-1.1058-.0116-1.0876-.8587.0159-.7452.0257-1.21,1.0273-1.33a43.3029,43.3029,0,0,0,9.4119-2.12c1.0583-.3772,1.3712-.1364,1.3115,1.0005A39.0145,39.0145,0,0,0,142.3539,98.2206Z" fill="#fff"/><path d="M452.59,98.7382c1.7-1.4981,3.1791-2.7108,4.5532-4.0322,2.1835-2.1,4.9048-2.3539,7.6793-2.27a12.257,12.257,0,0,1,5.8573,1.8653c2.9849,1.762,3.9085,4.6183,4.006,7.82.1131,3.7142.0534,7.4333.12,11.1494.0409,2.2719.19,4.5416.2687,6.8131.0494,1.4219.9293,1.91,2.1758,1.9984a11.7439,11.7439,0,0,0,1.5577.0293c.9143-.0567,1.249.2739,1.2274,1.2455-.0239,1.0782-.6619.8992-1.288.8407a44.2043,44.2043,0,0,0-8.8478.012c-.9037.097-1.2936-.0929-1.2132-1.1485.4834-6.342.3537-12.6966.2735-19.0487-.0641-5.0815-3.6108-7.5737-8.3688-7.2519a10.237,10.237,0,0,0-5.8986,2.6117,5.273,5.273,0,0,0-2.1105,4.3319c.0279,5.4329-.0743,10.8667.3,16.2926.0761,1.1027.4606,1.9267,1.7841,1.9311.7945.0027,1.59.182,2.3825.1694.8855-.0141,1.0657.42,1.07,1.1917.005.8409-.3688.9791-1.1182.9282a107.1428,107.1428,0,0,0-14.6007.0006c-.6512.0447-1.0774.001-1.0608-.8362.0149-.752.0027-1.3331,1.037-1.29a23.2589,23.2589,0,0,0,2.5032-.1863,1.5145,1.5145,0,0,0,1.5606-1.6135c.1461-2.5867.3738-5.1721.4174-7.7606.0759-4.5128.0955-9.0289-.2327-13.5359-.12-1.6542-.3952-1.8814-2.0684-1.9151-.8377-.0169-1.675-.0476-2.5127-.0673-.59-.0138-.9631-.1643-.9294-.901.03-.66.05-1.1479.8884-1.2458a42.5583,42.5583,0,0,0,6.7959-1.3026c.9163-.2622,1.8277-.5427,2.7351-.8344,1.0794-.347,1.3723-.1493,1.326,1.0105C452.7978,95.2913,452.6943,96.8415,452.59,98.7382Z" fill="#fff"/><path d="M598.834,118.2483a30.4028,30.4028,0,0,0-2.9942,2.6532c-3.316,3.8631-7.5737,4.5522-12.2881,3.8135a7,7,0,0,1-6.162-5.8036,19.4529,19.4529,0,0,1-.4172-4.0407q-.0339-6.8365-.0928-13.6728c-.009-.9156-.1041-1.8306-.167-2.7454a1.2494,1.2494,0,0,0-1.351-1.3425c-1.038-.0157-2.0756-.0567-3.1133-.0852-.6353-.0175-1.0253-.1909-1.0166-.977.0082-.7334.2-1.1024.9685-1.1933a41.4258,41.4258,0,0,0,8.4007-1.7774c2.5122-.8461,2.52-.8756,2.3373,1.7987-.3964,5.7905-.1615,11.5877-.2393,17.3814a24.3546,24.3546,0,0,0,.2681,3.7008,5.3411,5.3411,0,0,0,4.9572,4.7133A10.0373,10.0373,0,0,0,598.31,115.57a3.2483,3.2483,0,0,0,.5-1.5715,118.8913,118.8913,0,0,0-.0114-14.9613c-.1157-1.65-.3808-1.9215-2.0278-1.9546-.799-.0161-1.5992-.002-2.3969-.0419-.6158-.0307-1.1233-.0932-1.1173-1.0047.0056-.8652.3778-1.1171,1.1-1.2049a42.5926,42.5926,0,0,0,9.5228-2.1741c1.0712-.391,1.2173.3026,1.151,1.1538-.4061,5.226-.2944,10.4627-.2726,15.6955.0141,3.3937-.0251,6.7909.2411,10.1812.1542,1.9642.4914,2.3467,2.4138,2.4685a15.4682,15.4682,0,0,0,1.9042.0928c.88-.0538.9588.43.9585,1.1207,0,.7959-.3964.8987-1.0741.8487a53.1911,53.1911,0,0,0-9.8078-.0267c-.7288.081-.8806-.3113-.8389-.9411C598.657,121.6981,598.73,120.1441,598.834,118.2483Z" fill="#fff"/><path d="M119.2953,118.239c-1.87,1.4326-3.6749,2.6828-5.3214,4.1147a8.0733,8.0733,0,0,1-5.2134,2.0561c-3.6994.113-7.4946-1.0869-8.7973-5.1109a9.498,9.498,0,0,1,5.9505-12.06,60.5239,60.5239,0,0,1,11.986-2.6559c1.6165-.2234,1.5333-.1937,1.461-1.6667-.3046-6.2094-4.9324-7.8071-9.9843-7.1566a6.83,6.83,0,0,0-.8155.1839c-1.5179.3892-2.852.9695-3.2486,2.73a9.1623,9.1623,0,0,1-.6957,1.6423c-.2242.5013-.3586,1.0842-1.1668.85-.7145-.207-1.158-.4657-1.1746-1.3563-.0665-3.57-.0933-3.56,3.0727-5.3185a17.1234,17.1234,0,0,1,11.6209-2.1692c5.4365.97,8.51,4.7041,8.2807,10.2536-.22,5.31-.2042,10.62-.2072,15.9315,0,.2-.0068.4.0018.6.0871,2.03.46,2.4047,2.4884,2.5335.4373.0277.871.1152,1.3083.14.8517.0485.7239.6589.75,1.2175.0315.6624-.2967.8219-.8872.7725a53.0769,53.0769,0,0,0-8.2491.0014c-.8983.0647-1.1964-.3524-1.1707-1.21C119.3255,121.1849,119.2953,119.8059,119.2953,118.239Zm.1493-7.2851c0-1.2772-.0078-2.5544.0045-3.8315.004-.4253-.0523-.6862-.5936-.5768a61.2217,61.2217,0,0,0-8.4527,2.0087c-3.6256,1.2874-5.0124,3.4145-4.8025,7.2616a4.328,4.328,0,0,0,4.4828,4.433c2.9242.1753,5.2083-1.1153,7.339-2.9078,1.4053-1.1823,2.4445-2.4635,2.042-4.4752A9.951,9.951,0,0,1,119.4446,110.9539Z" fill="#fff"/><path d="M258.4952,118.1056c-1.8518,1.4226-3.6807,2.7528-5.4262,4.1847-3.2007,2.6256-6.6964,2.493-10.2289,1.02a6.52,6.52,0,0,1-4.0352-6.1433c-.1672-3.2067.5375-6.1245,3.07-8.3211a14.0149,14.0149,0,0,1,5.7416-2.5346,72.2693,72.2693,0,0,1,10.0751-1.9435c.7689-.0973,1.0786-.3193.9039-1.1246-.1259-.5806-.09-1.1945-.1877-1.7833-.8592-5.1709-5.2459-6.2548-9.0232-5.9348-.5131.0434-1.0148.2124-1.5278.2675-2.59.278-3.3031,2.313-4.006,4.3148-.2932.8348-.6776,1.19-1.5686.8474a.9957.9957,0,0,1-.79-1.0358c.0219-.9988.0092-1.9984.0039-2.9977a.8775.8775,0,0,1,.34-.8343c4.7121-3.3414,9.7815-5.2059,15.6094-3.5927a9.1267,9.1267,0,0,1,7,9.6072c-.2394,5.51-.1974,11.02-.2,16.5313a11.8952,11.8952,0,0,0,.0712,1.1941,1.5407,1.5407,0,0,0,1.5875,1.596,15.1819,15.1819,0,0,0,1.6608.179c.9858-.0635,1.2371.3675,1.1964,1.2807-.0455,1.0207-.7044.749-1.2667.72a62.9444,62.9444,0,0,0-7.7832.033c-.9059.0659-1.2412-.2324-1.2236-1.1114C258.5156,121.1313,258.4952,119.7371,258.4952,118.1056Zm.15-7.2415c0-1.1988-.0414-2.4.0153-3.5958.0346-.73-.2435-.9021-.8968-.779a56.2091,56.2091,0,0,0-8.7873,2.1538,6.06,6.06,0,0,0-4.1412,5.0838c-.7558,4.46,1.9994,7.1557,6.4157,6.3066a12.1516,12.1516,0,0,0,5.682-3.1134c1.1976-1.0427,2.0494-2.1725,1.7333-3.9019A12.1534,12.1534,0,0,1,258.645,110.8641Z" fill="#fff"/><path d="M308.938,107.7744c-3.4432,0-5.9619.0191-8.48-.0128-.6647-.0085-.9834.0608-.9727.8768.1417,10.7621,9.2324,13.9191,15.9991,11.565a26.2621,26.2621,0,0,0,4.2187-1.9529c.3235-.1815.59-.3732.9445-.0124.3119.3179.1011.5471.0113.8488a4.77,4.77,0,0,1-2.56,2.9405,19.3568,19.3568,0,0,1-14.92,1.7007c-5.4807-1.561-8.7014-5.3325-9.8295-10.7937a20.7355,20.7355,0,0,1,1.3441-12.872,8.4532,8.4532,0,0,1,1.9334-2.8478c3.4994-3.2412,7.5107-5.4953,12.3766-5.4965,6.725-.0017,12.3323,3.6537,12.817,11.7784.0356.5976.0223,1.1989.0134,1.7982-.0241,1.6142-.1131,1.69-1.75,1.9086A91.9066,91.9066,0,0,1,308.938,107.7744Zm-.4915-2.4661c2.1185,0,4.2373-.0175,6.3555.011.61.0082.8325-.1688.8285-.8074a20.3841,20.3841,0,0,0-.276-3.6987c-.5708-2.998-1.9062-5.4439-5.0476-6.3648-3.0955-.9075-5.973-.4548-8.2431,1.9844-2.1124,2.27-2.5313,5.151-2.5693,8.1245-.009.7077.4654.4852.8114.515C303.0144,105.3056,305.7311,105.314,308.4465,105.3083Z" fill="#fff"/><path d="M646.8071,108.3611c-1.559,0-3.1188.03-4.6767-.014-.6525-.0182-.9036.1322-.8789.842.2068,5.936,2.873,10.87,9.6748,12.0845,3.4078.6083,6.5355-.3632,9.5369-1.9367.5618-.2945,1.1638-1.1616,1.8391-.5723.8029.7006-.3132,1.2975-.4139,1.9843a1.3675,1.3675,0,0,1-.6571.9532c-6.2125,3.8778-12.744,4.6263-19.309,1.2744-5.002-2.5539-6.9517-7.2283-7.19-12.67a22.374,22.374,0,0,1,.854-7.4529c1.8193-6.0858,6.543-8.8526,12.1742-10.2155a12.7105,12.7105,0,0,1,12.6869,3.394,11.8061,11.8061,0,0,1,3.13,8.4188c.0753,3.4428.4409,3.0463-3.2568,3.4354A125.4536,125.4536,0,0,1,646.8071,108.3611Zm5.3071-2.39.0016-.1769c1.5142,0,3.0291-.0257,4.5424.0126.6018.0153.7256-.2206.7292-.7658a19.961,19.961,0,0,0-.2667-3.6956c-.51-2.82-1.737-5.2-4.5723-6.23a7.793,7.793,0,0,0-8.1074,1.2319c-2.5485,2.1584-3.0383,5.1946-3.1936,8.3324-.0385.7791.2639.91.9418.93C645.4983,105.7052,648.806,105.8461,652.1142,105.9712Z" fill="#fff"/><path d="M80.5373,107.9234c-2.5685,0-4.6876-.0015-6.8066.0014-.3791.0006-.7384-.1131-.7871.5455a11.8056,11.8056,0,0,0,7.6815,11.9222,13.0348,13.0348,0,0,0,9.8807-.6609c.9032-.4178,1.7809-.89,2.67-1.338.3-.151.5631-.4376.9321-.0631.3384.3436.1451.6149.0326.9638a4.609,4.609,0,0,1-2.3949,2.7886c-5.8312,3.0862-11.7816,3.5337-17.7735.6729-4.1562-1.9844-6.3645-5.61-7.1789-10.0122a20.9506,20.9506,0,0,1,1.2658-12.1988,9.67,9.67,0,0,1,2.6749-3.7567c3.5784-2.9987,7.52-4.9942,12.3586-4.9347,7.19.0885,12.0872,4.9525,12.2628,12.3491.0709,2.9843.0039,3.0051-2.9443,3.2695C88.3094,107.84,84.2027,107.9641,80.5373,107.9234ZM83.4,105.2887v.1664c1.5954,0,3.1908.0026,4.7862-.0012.6611-.0015.9681-.2436.9338-1.0016a28.3148,28.3148,0,0,0-.31-3.9261,7.3432,7.3432,0,0,0-6.1781-6.2645c-3.9851-.4631-6.9921,1.15-8.5128,4.5154a18.3214,18.3214,0,0,0-1.1459,5.0951c-.1431,1.0012.1322,1.4471,1.2185,1.4317C77.26,105.26,80.33,105.2887,83.4,105.2887Z" fill="#fff"/><path d="M424.4839,77.4558c4.7127.2977,9.4228.0533,14.1314-.095,1.0869-.0342,1.4026.3088,1.3144,1.3549-.0579.687-.3122.9107-.9541.8934a19.5084,19.5084,0,0,0-3.2235.2051c-1.7221.24-2.2246.6966-2.3116,2.4422-.1152,2.3119-.2206,4.627-.2278,6.9411q-.04,12.7177,0,25.4357c.0044,1.6343.1373,3.2688.2294,4.9022a2.0894,2.0894,0,0,0,1.9736,2.1491,22.941,22.941,0,0,0,3.3426.233c1.0126.02,1.2043.5251,1.1741,1.4443-.0344,1.0461-.6823.9069-1.3131.8668-4.0314-.2559-8.067-.27-12.1029-.2005-1.7949.0308-3.5884.14-5.3827.2122-.5811.0233-1.15.0678-1.1283-.8064.0177-.7182-.1486-1.4472.9643-1.5a20.7445,20.7445,0,0,0,3.4577-.2677c1.51-.3264,1.9107-.6572,2.046-2.1721.1242-1.3906.23-2.7885.2335-4.1834q.0313-12.8978,0-25.7956c-.0076-2.435-.1209-4.87-.2241-7.3039-.0688-1.6241-.6289-2.1979-2.2535-2.3625-1.1107-.1125-2.227-.22-3.3416-.2293-.9266-.0078-.8641-.57-.8841-1.2015-.0207-.6533.0776-1.1095.8865-1.04.5958.0515,1.1957.0627,1.7941.0747S423.8841,77.4558,424.4839,77.4558Z" fill="#fff"/><path d="M398.7254,103.0693c-1.5584-2.5-3.0867-5.02-4.6807-7.4977a150.4056,150.4056,0,0,0-22.2083-27.42c-8.2437-7.9093-17.273-14.7072-27.8921-19.1737-.9783-.4115-1.9822-.7622-2.95-1.2248a46.1727,46.1727,0,0,1,8.56,1.4988c15.3267,3.9686,27.2331,12.82,36.3368,25.6032a84.5754,84.5754,0,0,1,12.8819,27.6432c.04.151.0623.3067.0929.46Z" fill="#fff"/><path d="M495.5234,92.1418a30.0943,30.0943,0,0,1,8.403,1.6351c.5141.1734.861.46.7756,1.0318a48.0552,48.0552,0,0,0-.2575,6.0981c-.016.7394-.4287.8391-1.0239.7992-.5051-.0339-.9938.112-1.1121-.7-.59-4.0459-2.42-5.8068-6.5049-6.2429a10.6716,10.6716,0,0,0-3.81.1784,4.945,4.945,0,0,0-4.0849,4.66c-.09,2.5116,1.0219,3.9876,3.7819,4.777,2.9431.8417,5.9161,1.579,8.8762,2.3613.0385.01.08.009.1181.02,6.2348,1.9005,8.1482,7.967,4.1381,13.17a13.0424,13.0424,0,0,1-9.0637,5.0209c-4.3056.547-8.4936-.3419-12.6815-1.1742-.5619-.1117-.7644-.4223-.6649-.9228a39.7054,39.7054,0,0,0,.5214-7.8751c-.0017-.74.4352-.8357,1.0264-.8082.5524.0257,1.1565-.1236,1.1651.7722.0093.9568.0782,1.9149.165,2.8684a3.0314,3.0314,0,0,0,.6381,1.9875c2.8756,3.1147,9.9445,3.8417,13.3174,1.3165a5.5314,5.5314,0,0,0,2.3626-3.7407c.34-2.57-.5918-4.1185-3.0977-5.1223a64.3286,64.3286,0,0,0-8.05-2.1747,12.3629,12.3629,0,0,1-4.2038-1.6284A8.394,8.394,0,0,1,485.19,96.0968C487.9869,93.1281,491.6073,92.2641,495.5234,92.1418Z" fill="#fff"/><path d="M52.7191,101.9029c.0667-5.7849-.1043-11.8527-.24-17.9209-.0231-1.0356-.1144-2.07-.1716-3.1046-.0579-1.0464-.5387-1.5977-1.6567-1.5669-.9143.0252-1.8314-.0808-2.7476-.0882-.54-.0044-.9616-.0628-.9424-.7524.0175-.63-.1479-1.3106.8272-1.4129A42.34,42.34,0,0,0,57.6717,74.86c.7169-.2562,1.1209.0822,1.0747.9167-.6738,12.177-.2617,24.3649-.3125,36.5477a63.7543,63.7543,0,0,0,.3115,7.4036,1.8219,1.8219,0,0,0,1.8823,1.8749c.7962.0559,1.594.1118,2.3917.1206.961.01.89.6425.91,1.3145.0251.8244-.4917.76-1.0264.7435-3.5891-.111-7.175-.3842-10.77-.1712-1.393.0825-2.7892.108-4.1833.1746-.5168.0247-.885-.1078-.8457-.7041.0335-.51-.248-1.21.638-1.2913.8336-.0764,1.6708-.1122,2.5052-.18,1.5456-.1252,1.985-.6145,2.0918-2.1811C52.73,113.6874,52.7454,107.9387,52.7191,101.9029Z" fill="#fff"/><path d="M561.5426,108.6591a49.9619,49.9619,0,0,0,.0149,8.7425,3.2457,3.2457,0,0,0,3.2653,3.0332,7.3905,7.3905,0,0,0,4.2862-.78c.58-.32.788-.1371,1.1346.32.4211.5559.209.7966-.24,1.1347a17.5322,17.5322,0,0,0-1.8215,1.5555c-2.7644,2.7472-5.994,2.5241-9.2129,1.23-2.4592-.9887-3.3462-3.24-3.3481-5.7487q-.0068-9.232.1723-18.4635c.0217-1.1588-.2651-1.565-1.43-1.42a23.5217,23.5217,0,0,1-2.7555.0735c-.4154.0024-.9287.1423-.9877-.54a.9742.9742,0,0,1,.6632-1.1268c1.26-.4921,2.4993-1.0363,3.7638-1.5153a1.19,1.19,0,0,0,.8691-1.3362c-.0657-2.758-.0283-5.5185-.1-8.2762a.9966.9966,0,0,1,.8157-1.1761,25.92,25.92,0,0,0,4.038-1.7737c.3564-.1925.6746-.5611,1.181-.1826a1.1739,1.1739,0,0,1,.4062,1.2647c-.3882,3.3716-.4926,6.7623-.6893,10.1473-.0493.85.2442,1.1142,1.0484,1.09,2.4349-.0741,4.8725-.0742,7.3059-.1786.9609-.0413,1.1608.1886.9028,1.1407-.5954,2.1968-.5456,2.21-2.824,2.21-1.84,0-3.68.0277-5.5189-.0144-.6845-.0156-.9743.0894-.9613.89C561.5735,102.1918,561.5426,105.4257,561.5426,108.6591Z" fill="#fff"/><path d="M514.8574,109.4512c0-3.7019-.0406-6.9.0253-10.0957.0193-.9312-.2625-1.165-1.1336-1.0905-1.0326.0883-2.0754.0639-3.114.0714-.3793.0028-.8455.1163-.8774-.5126-.0257-.5063.0171-.9249.6-1.1493,1.3326-.5127,2.636-1.1016,3.97-1.61a1.0305,1.0305,0,0,0,.74-1.1638c-.06-2.8347.0941-5.675-.1581-8.5032a.7643.7643,0,0,1,.6031-.9513,30.1674,30.1674,0,0,0,4.5778-2.0179.8348.8348,0,0,1,1.2852.8629c-.3109,3.496-.4929,6.9989-.6816,10.5029-.056,1.0394.3179,1.1341,1.1078,1.1135,2.4332-.0635,4.8677-.0822,7.3-.172.8479-.0312,1.1137.0929.8667,1.0512-.5878,2.2812-.5265,2.297-2.8773,2.297-1.8384,0-3.6776.0315-5.5147-.0159-.707-.0183-.9634.1313-.9628.9068.003,3.4348-.0826,6.87-.1057,10.3046-.015,2.2306.05,4.4617.0309,6.6922-.0384,4.4189,2.6943,4.7834,5.6645,4.3717a5.4292,5.4292,0,0,0,1.9058-.6525c.6552-.3749.943-.1682,1.3288.3687.4731.6585-.091.82-.4109,1.1063-.5351.4792-1.1282.9-1.6266,1.4129-2.6312,2.71-5.7582,2.5782-8.9654,1.47a5.4211,5.4211,0,0,1-3.6162-5.0452C514.5026,115.6541,515.0036,112.3,514.8574,109.4512Z" fill="#fff"/><path d="M281.9849,110.4314a41.2154,41.2154,0,0,0-.08,5.3858c.0339,3.8806,2.7665,4.4643,5.5379,4.0339a5.36,5.36,0,0,0,2.14-.7171c.6746-.4427.868.0121,1.205.4275.4409.5433.0256.7434-.3025,1.02a16.3126,16.3126,0,0,0-2.165,1.8848c-2.0791,2.5168-7.8291,2.065-9.9948.2726-1.9452-1.61-2.3915-3.8385-2.2856-6.1617.2677-5.8729.15-11.7467.2185-17.62.0107-.9145-.1888-1.2733-1.1568-1.1756-.99.1-1.9962.0528-2.9953.06-.4166.003-.9322.1651-.9787-.53a.9823.9823,0,0,1,.7054-1.1906c1.3091-.4675,2.5621-1.0905,3.8643-1.58a1.0638,1.0638,0,0,0,.7953-1.2271c-.1062-2.7523-.133-5.5077-.2433-8.26a.9856.9856,0,0,1,.8033-1.1871,24.7227,24.7227,0,0,0,4.14-1.8255c.9993-.555,1.584-.2012,1.5136.9482-.2047,3.343-.4089,6.6867-.6861,10.024-.0831,1,.0693,1.3888,1.2091,1.3328,2.4738-.1214,4.9571-.0359,7.434-.1163.7239-.0235.8408.2078.6945.8049-.0189.0773-.0146.16-.0352.237-.7392,2.75-.0865,2.326-2.8583,2.2958-1.9185-.0208-3.838.0431-5.7565.0216-.5785-.0065-.7386.1665-.7354.74C281.9957,102.3636,281.9849,106.3975,281.9849,110.4314Z" fill="#fff"/><path d="M628.1035,98.0834c-1.16,0-2.3211.0315-3.4794-.0126-.6321-.024-.91.0911-.8953.8239.1075,5.3531-.3584,10.7022-.131,16.0572.0168.3969.1068.7948.088,1.1886-.1819,3.7954,2.4564,4.8465,5.9238,4.1187a5.7708,5.7708,0,0,0,1.5692-.5427c.5931-.3238.9225-.3182,1.3505.3056.4859.708-.0517.8693-.4059,1.1766-.8755.76-1.7628,1.5055-2.6319,2.2721-3.42,3.017-10.4554.8306-11.4344-3.5755a19.9051,19.9051,0,0,1-.1977-5.4936c.2977-5.1553.0442-10.3131.1476-15.4683.0109-.54-.1829-.6811-.6886-.6607-1.1581.047-2.3181.06-3.4773.061-.3626,0-.8625.18-.9423-.43-.0709-.5414-.0177-1.0021.63-1.2437,1.3017-.4855,2.5687-1.0634,3.8672-1.5581a1.1639,1.1639,0,0,0,.8592-1.3244c-.1115-2.7132-.1273-5.43-.2383-8.1436a1.0648,1.0648,0,0,1,.8442-1.28c1.3075-.4585,2.55-1.1,3.8316-1.6366.4294-.18.7481-.75,1.3792-.3068.6115.43.4082.989.376,1.5117-.1964,3.1869-.3377,6.3807-.67,9.554-.1366,1.3031.3548,1.477,1.4169,1.4375,2.353-.0874,4.71-.0754,7.0618-.1817.8454-.0382,1.0193.1887.8573.9956-.4717,2.35-.4447,2.3551-2.85,2.3551Z" fill="#fff"/><path d="M336.6319,98.909c1.42-1.667,2.6049-3.1494,3.887-4.5425a7.2426,7.2426,0,0,1,7.5063-2.2135c.8679.2107,1.1887.6588,1.0566,1.6412-.271,2.0139-.353,4.053-.5348,6.08-.0271.3024.2419.8453-.3343.8368-.4912-.0072-1.1145.3576-1.4765-.3569a4.3963,4.3963,0,0,0-5.2959-2.4579,5.7023,5.7023,0,0,0-4.4669,4.787c-.7218,3.4731-.4438,7.006-.3525,10.513.056,2.15.01,4.3087.2808,6.4568a1.7389,1.7389,0,0,0,1.8686,1.738c1.2357.0614,2.4689.1932,3.7049.2217.8753.02.913.5279.92,1.1952.0078.7789-.3965.9556-1.0626.9138a122.3364,122.3364,0,0,0-16.0414-.0026c-.6855.0469-1.057-.1648-1.0448-.9282.0106-.6594.0261-1.1834.9206-1.1816.8343.0016,1.669-.1289,2.5033-.2028,1.2913-.1144,1.7391-.5627,1.8143-1.8892a165.7139,165.7139,0,0,0,.2588-17.9548c-.0619-1.1951-.1743-2.388-.2142-3.5836a1.2473,1.2473,0,0,0-1.2847-1.3858,28.7464,28.7464,0,0,0-3.109-.0919c-.5658-.0041-1.0622-.0114-1.0158-.7935.0345-.5812-.1556-1.2431.755-1.3474a46.6805,46.6805,0,0,0,9.9946-2.2432c.862-.2983,1.1349.2925,1.0143,1.0793C336.6057,95.0073,336.7594,96.8261,336.6319,98.909Z" fill="#fff"/><path d="M546.7213,124.1437a123.8352,123.8352,0,0,0-14.026.063c-.7.0506-1.271.0726-1.2945-.9022-.0209-.8731.2754-1.2354,1.1761-1.21.7517.0215,1.5072-.1563,2.2622-.1677,1.2737-.0193,1.7468-.7285,1.8164-1.8938a169.3391,169.3391,0,0,0,.2632-18.0689c-.0544-1.1552-.1834-2.3077-.2134-3.4632-.0267-1.0317-.5644-1.4033-1.5191-1.4111-.9971-.0082-1.9938-.08-2.9907-.081-.6652-.0007-.8915-.2652-.8554-.9342.0338-.6234-.0381-1.1132.8515-1.2179a42.776,42.776,0,0,0,9.7553-2.2167c.79-.2893,1.1935.1023,1.1208.98-.5152,6.2214-.3819,12.4578-.3168,18.6875a71.2768,71.2768,0,0,0,.3081,7.5323c.194,1.6624.3594,1.8974,1.978,2.0964a12.892,12.892,0,0,0,1.9065.1569c.8464-.0229,1.3377.1238,1.3224,1.1659C548.25,124.3279,547.6864,124.3166,546.7213,124.1437Z" fill="#fff"/><path d="M532.6538,141.1161c-1.6326,3.5614-3.1817,6.9515-4.74,10.3371-.8982,1.9508-1.8815,3.8658-2.6956,5.85-.5813,1.4172-1.6939.6908-2.5548.7533-.8254.06-.4333-.8123-.46-1.1945-.2228-3.183-.3557-6.3722-.5214-9.5593-.0143-.2745-.07-.5468-.1148-.88-.3763.1494-.4232.46-.5431.7158q-2.4068,5.1344-4.8168,10.2671c-.2824.6007-2.4979,1.0539-2.9081.5737a1.2191,1.2191,0,0,1-.1243-.6763c-.2285-5.1822-.4469-10.3648-.6842-15.5465-.0179-.3905.0553-.5668.4709-.6478,1.8743-.3652,2.2714-.0378,2.3283,1.8349.0943,3.1053.2338,6.2093.3546,9.322.4677.0558.4083-.3476.4985-.535,1.5691-3.2611,3.1114-6.5352,4.6669-9.8029a2.8568,2.8568,0,0,1,2.9019-.7523c.2873.1988.1786.5034.1923.7685.1857,3.5843.3661,7.169.5607,11.007.3583-.814.6314-1.4353.905-2.0563,1.2345-2.8012,2.5167-5.5829,3.6782-8.414.4183-1.0194.9129-1.584,2.072-1.3774A9.9891,9.9891,0,0,0,532.6538,141.1161Z" fill="#fff"/><path d="M380.5877,54.6117a36.1149,36.1149,0,0,1,2.6959-8.3964c3.7282-8.8459,9.0258-16.5055,16.9821-22.107a39.5894,39.5894,0,0,1,16.2708-6.6031,9.0185,9.0185,0,0,1,1.3052-.04l-.0167-.02c-1.633.803-3.298,1.5472-4.8936,2.4187-8.2,4.4792-14.8226,10.8-20.72,17.9378a115.1806,115.1806,0,0,0-11,16.1218c-.1545.2691-.2315.6028-.5516.7539Z" fill="#fff"/><path d="M374.2245,50.1323c2.8342-9.9111,7.9028-18.3823,16.0673-24.8113a38.8065,38.8065,0,0,1,19.9813-8.0786C394.239,23.8229,383.4127,36.0679,374.2245,50.1323Z" fill="#fff"/><path d="M618.5221,154.2876c1.4118-2.5957,2.87-5.1412,4.1846-7.7588.539-1.0733,1.17-1.5993,2.3752-1.3857a9.0321,9.0321,0,0,0,1.3847.0107c-.7645,1.3884-1.47,2.6639-2.17,3.9425-1.4529,2.6543-2.934,5.294-4.334,7.976-.4.7653-.8253,1.1862-1.7234,1.0406a5.2574,5.2574,0,0,0-1.3171-.0041c-.6084.0569-.7953-.1591-.86-.7884-.3694-3.6109-.8005-7.2156-1.2155-10.8218a2.5736,2.5736,0,0,0-.1235-.4258c-.1219.0267-.2345.0324-.2379.0548-.1583,1.0377-.502,1.6352-1.8016,1.3982-1.2741-.2323-2.1293.687-2.8447,1.654-1.26,1.7038-1.3873,3.782-1.9043,5.7312-.0916.3456-.1535.6991-.2308,1.0485-.5342,2.416-.5343,2.416-3.1776,2.0214.89-4.0854,1.7614-8.1709,2.678-12.2463.267-1.1872,1.2564-.4442,1.8954-.5516.9728-.1635.2013.7941.6944,1.1131,1.406-1.6317,3.2881-1.3066,5.2208-1.1764,2.3035.1552,2.35.0269,2.64,2.2972.2477,1.9385.3923,3.89.5864,5.8355C618.2755,153.5923,618.1594,153.9725,618.5221,154.2876Z" fill="#fff"/><path d="M231.5078,154.4483q1.24-5.7035,2.4768-11.4c.3523-1.6357.34-1.6383,2.2541-1.4106q-1.0539,4.9555-2.1051,9.8974c-.3723,1.75-.7317,3.5021-1.1278,5.2463-.1037.4566-.0488,1.1175-.8539,1.02-.6807-.0825-1.4246.296-1.8171-.7976-1.3409-3.7356-2.8133-7.424-4.2376-11.13-.1364-.3548-.2878-.7038-.533-1.3008-.5883,2.8035-1.1186,5.3351-1.6509,7.8663-.3273,1.5565-.6762,3.1088-.98,4.67-.2086,1.07-1.0312.6734-1.62.6678-.8713-.0082-.3425-.6267-.2752-.9456,1.0173-4.8251,2.0717-9.6423,3.0809-14.4689.1116-.5336.173-.9276.8416-.8293.6722.0989,1.4361-.3121,1.825.767,1.3461,3.7347,2.7967,7.4317,4.2181,11.139C231.1392,153.7928,231.1527,154.2225,231.5078,154.4483Z" fill="#fff"/><path d="M538.79,156.764c-1.3765.9544-2.4106,1.5929-3.7208,1.5826a3.3634,3.3634,0,0,1-3.4575-2.4089c-.9307-2.7692.0485-8.0177,3.2145-10.0834a4.35,4.35,0,0,1,6.0843.6833c.2048-1.144.8531-1.5237,1.9766-1.4189.6976.0651.7854.2678.6557.8549-.6683,3.0249-1.3194,6.0535-1.9765,9.0808a13.316,13.316,0,0,0-.364,1.7458c-.0786,1.0046-.4677,1.44-1.5551,1.3318C538.88,158.0556,538.2087,158.138,538.79,156.764Zm.982-6.596c.01-1.6436-.2679-2.2657-.9561-2.62a2.448,2.448,0,0,0-2.89.7984,7.8807,7.8807,0,0,0-1.8666,5.8784c.1007,1.77,1.5367,2.3162,2.9742,1.2049A7.4339,7.4339,0,0,0,539.7724,150.168Z" fill="#fff"/><path d="M484.3413,156.9166a6.5731,6.5731,0,0,1-2.345,1.2983,3.5245,3.5245,0,0,1-4.5831-2.5266,9.5059,9.5059,0,0,1,2.5013-9.1627c2.1149-2.1371,4.5663-2.11,6.8807-.0757.3232-1.7809,1.5931-1.2918,2.7591-1.2273-.8784,4.0985-1.7587,8.1385-2.6034,12.1859-.2632,1.2608-1.2065.5593-1.8343.6695C484.02,158.2706,484.8824,157.2408,484.3413,156.9166Zm-4.3944-3.341c.0327.7419-.1585,1.7821.892,2.2433,1.0789.4736,1.94-.1322,2.6485-.872a7.7826,7.7826,0,0,0,2.18-5.5167c.0067-1.859-1.5509-2.643-3.15-1.67a3.7615,3.7615,0,0,0-1.1869,1.1568A8.6212,8.6212,0,0,0,479.9469,153.5756Z" fill="#fff"/><path d="M580.3356,154.7206a8.645,8.645,0,0,0,5.25,1.0343,2.656,2.656,0,0,0,2.4044-1.8315,2.3075,2.3075,0,0,0-1.3139-2.7768c-.6877-.4-1.3709-.81-2.0393-1.2414a4.4341,4.4341,0,0,1-2.2714-4.6348,4.7948,4.7948,0,0,1,3.7882-4.1409,9.05,9.05,0,0,1,5.8419.5254c.708.2838.7886.6015.4275,1.197a4.1388,4.1388,0,0,0-.3768.8729c-.201.6211-.4908.7485-1.1032.4057a5.546,5.546,0,0,0-3.3433-.6742,2.3881,2.3881,0,0,0-2.2929,1.771,2.1033,2.1033,0,0,0,1.103,2.5171c.9044.5791,1.8521,1.0989,2.7129,1.7364a4.7264,4.7264,0,0,1-.3963,7.8568c-2.5043,1.4365-5.1833,1.2889-7.8556.4092a.6935.6935,0,0,1-.546-.7867C580.3636,156.2517,580.3356,155.54,580.3356,154.7206Z" fill="#fff"/><path d="M455.8907,155.2047c.0264.0628.0837.1345.0822.2049-.0541,2.575.5385,2.1291-2.12,2.742a8.92,8.92,0,0,1-4.0348-.0116,5.1766,5.1766,0,0,1-4.0257-3.7029c-1.2175-4.0575.3383-9.8727,4.3056-12.2672a9.0288,9.0288,0,0,1,8.2627-.5773c.6521.2467.7758.527.4746,1.2227-.4861,1.1232-.9138,1.4665-2.2568.9566-2.9323-1.1133-5.819.271-7.2484,3.1859a10.3878,10.3878,0,0,0-1.0072,5.58,3.5141,3.5141,0,0,0,4.0471,3.2856C453.55,155.6845,454.7154,155.4156,455.8907,155.2047Z" fill="#fff"/><path d="M495.4261,146.3894a6.57,6.57,0,0,1,2.67-1.3756,3.3353,3.3353,0,0,1,4.2958,3.6711,37.3027,37.3027,0,0,1-.8537,4.5757c-.2368,1.29-.6521,2.55-.8364,3.8457-.1172.8242-.4265,1.1192-1.2167,1a2.8758,2.8758,0,0,0-.7187-.0017c-.79.0823-1.1179-.0206-.8667-1.0121.6448-2.5448,1.1257-5.131,1.6744-7.7.1354-.6335.3077-1.3167-.2594-1.792a1.71,1.71,0,0,0-1.9309-.0089c-1.9767.9685-2.7351,2.8037-3.2128,4.7829-.3825,1.5851-.6745,3.1918-1.0149,4.7872-.1626.7625-2.2453,1.4216-2.7944.8635-.1134-.1152-.07-.437-.0252-.6478q1.2357-5.7811,2.4967-11.557c.2756-1.2527,1.2921-.5568,1.9619-.6371C495.7767,145.0656,495.0831,145.9525,495.4261,146.3894Z" fill="#fff"/><path d="M652.1031,154.839c.0243.3329.0469.5255.0511.7185.0426,1.9549-.0024,2.0148-1.852,2.5135-4.7356,1.2769-7.6948-1.4254-6.901-6.3019.5993-3.6813,2.6387-6.18,5.5167-6.759,2.03-.4084,4.03.455,4.5478,1.9634a3.9775,3.9775,0,0,1-2.127,4.81,8.9572,8.9572,0,0,1-4.3807,1.0048c-.7248-.0145-.97.1831-.9065.9331a2.2,2.2,0,0,0,2.2943,2.2343,5.0074,5.0074,0,0,0,1.87-.3384C650.8141,155.4081,651.39,155.1365,652.1031,154.839Zm-5.5559-4.4064a7.0377,7.0377,0,0,0,3.3891-.6813c.7363-.3855,1.2745-1.0214.859-1.84-.3956-.7792-1.2453-.6414-1.9174-.3595A4.4826,4.4826,0,0,0,646.5472,150.4326Z" fill="#fff"/><path d="M598.1672,158.3409c-3.0719-.0032-4.9108-1.5993-5.0344-4.5662a9.1227,9.1227,0,0,1,2.9177-7.4326,5.1818,5.1818,0,0,1,4.3028-1.3756c1.4134.1845,2.62.69,3.03,2.2656a3.631,3.631,0,0,1-1.31,3.949,7.5518,7.5518,0,0,1-5.1412,1.5873c-1.1472-.0193-1.1277.5275-.9788,1.3021a2.121,2.121,0,0,0,2.2547,1.8792,6.3956,6.3956,0,0,0,3.0741-.8413c.5932-.3018.8246-.2338.8377.5133.03,1.74.0184,1.8153-1.6267,2.3453A6.2725,6.2725,0,0,1,598.1672,158.3409Zm-1.732-7.92a6.7026,6.7026,0,0,0,3.5292-.762,1.3081,1.3081,0,0,0,.725-1.701c-.2984-.7134-1.0281-.6859-1.6612-.4886A4.172,4.172,0,0,0,596.4352,150.4208Z" fill="#fff"/><path d="M474.0572,154.9085c.0545.1048.0864.1391.0892.1756.185,2.39.1073,2.4928-2.3024,3.0608-2.6277.6193-4.8594-.11-5.9317-1.9266-1.8039-3.0557.0674-10.3553,4.939-11.21,2.0468-.3591,4.0017.4036,4.57,1.9234a3.9381,3.9381,0,0,1-2.0636,4.83,8.246,8.246,0,0,1-4.372,1.0137c-1.08-.0585-1.0813.4924-.9522,1.2072.2853,1.5811,1.4952,2.3093,3.2611,1.8882A28.1456,28.1456,0,0,0,474.0572,154.9085Zm-5.5069-4.4848a7.0267,7.0267,0,0,0,3.3882-.69c.7288-.373,1.1592-.9766.85-1.7391-.3448-.8507-1.1656-.7162-1.8512-.4619A4.1889,4.1889,0,0,0,468.55,150.4237Z" fill="#fff"/><path d="M392.3006,21.1146c-9.254-10.03-20.0753-17.5666-33.3929-21.0739C371.4142-.7721,389.8155,10.7405,392.3006,21.1146Z" fill="#fff"/><path d="M561.7055,154.9174c.05.09.081.12.0834.1516.1782,2.378.0669,2.5278-2.2878,3.0805-2.61.6126-4.8954-.13-5.9443-1.9047-1.79-3.0277-.002-10.2538,4.8044-11.2,2.13-.4191,4.072.3077,4.6793,1.8863a3.9127,3.9127,0,0,1-2.1449,4.8833,8.9144,8.9144,0,0,1-4.39.9751c-.8761-.0247-1.0006.321-.851,1.0673a2.3859,2.3859,0,0,0,3.27,2.0083C559.8771,155.6347,560.7888,155.2357,561.7055,154.9174Zm-4.7544-4.4939a6.4491,6.4491,0,0,0,2.9112-.8678,1.2822,1.2822,0,0,0,.5964-1.53c-.248-.7119-.9086-.7195-1.4983-.6063a3.8054,3.8054,0,0,0-2.5379,2.3085C556.104,150.3176,556.326,150.5208,556.9511,150.4235Z" fill="#fff"/><path d="M268.9,147.3768a7.843,7.843,0,0,1,2.7007-1.8426,3.1726,3.1726,0,0,1,4.3844,2.4253,9.5656,9.5656,0,0,1-1.9957,8.1952,4.6887,4.6887,0,0,1-4.6869,1.7366,3.5844,3.5844,0,0,1-2.3741-1.802c-.441,2.0709-.8966,3.97-1.2322,5.89-.164.9382-.4677,1.3608-1.5134,1.27-.7739-.0673-.7172-.4026-.6048-.915q1.1379-5.188,2.2734-10.3765c.3986-1.8277.85-3.6475,1.1518-5.4914.1422-.8687.5457-.9765,1.2764-.9366,1.0066.0549.3619.7558.4937,1.1449C268.8414,146.8757,268.6382,147.1284,268.9,147.3768Zm5.1981,2.4042c.0408-1.0243.0486-2.0755-1.0316-2.5955a2.2651,2.2651,0,0,0-2.4624.3909,7.77,7.77,0,0,0-2.9683,6.5917,2.17,2.17,0,0,0,2.9272,2.0658,3.4447,3.4447,0,0,0,2.126-1.6105A8.9279,8.9279,0,0,0,274.0982,149.781Z" fill="#fff"/><path d="M333.9751,147.5c1.2731-1.0938,2.3449-2.1769,4.0207-2.1353a3.0638,3.0638,0,0,1,3.244,2.576,9.9043,9.9043,0,0,1-1.6932,7.8314,4.8091,4.8091,0,0,1-5.1,2.1,4.0935,4.0935,0,0,1-2.3131-1.7145c-.4309,2.096-.7929,4.02-1.2447,5.9231-.0959.4042.1,1.0728-.7318,1.15-1.3895.13-1.5115.0192-1.2156-1.355,1.089-5.0559,2.1519-10.1175,3.2634-15.1684.0869-.3952-.0812-.9979.5838-1.1611.9745-.239,1.3247.0267,1.25.9932C334.0192,146.7966,334.0046,147.054,333.9751,147.5Zm5.397,2.4c-.0059-1.1947-.0338-2.221-1.0483-2.702a2.49,2.49,0,0,0-2.8433.66,7.8315,7.8315,0,0,0-2.5905,6.4068,2.1456,2.1456,0,0,0,2.6565,2.0378,3.3522,3.3522,0,0,0,2.1585-1.369A9.1465,9.1465,0,0,0,339.3721,149.9Z" fill="#fff"/><path d="M654.1646,154.6951a7.195,7.195,0,0,0,3.9872,1.2587c.9036-.039,1.8081-.1433,2.1447-1.1569.36-1.0844-.5574-1.4474-1.2267-1.9061-.59-.4045-1.2287-.7381-1.819-1.1423a3.5166,3.5166,0,0,1-1.5217-3.868,3.5884,3.5884,0,0,1,2.861-2.7376,8.4781,8.4781,0,0,1,5.2557.5455c.4772.173.5951.4525.3333.9126a3.476,3.476,0,0,0-.3494.8853c-.16.6562-.49.8056-1.087.4788a5.1912,5.1912,0,0,0-2.7656-.58,1.5434,1.5434,0,0,0-1.59,1.0435c-.2158.7527.3617,1.1609.9058,1.5147.7668.4986,1.5861.9239,2.3174,1.4684a3.657,3.657,0,0,1-.6186,6.357,7.8268,7.8268,0,0,1-6.2754-.0669.7294.7294,0,0,1-.5593-.7905C654.1856,156.239,654.1646,155.565,654.1646,154.6951Z" fill="#fff"/><path d="M351.6041,155.79a7.2766,7.2766,0,0,1-3.2681,2.0937,3.2168,3.2168,0,0,1-4.1121-2.7388,10.12,10.12,0,0,1,1.8-7.5967,5.8625,5.8625,0,0,1,1.6765-1.5139c2.1673-1.31,4.1524-.8884,5.7311,1.284.1916-.457.3937-.8668.5371-1.2962.2706-.8106.9486-.5027,1.4122-.4325.5464.0827.1874.55.122.8557-.7389,3.4588-1.514,6.9105-2.2008,10.38-.1617.8166-.5,1.0557-1.2668.9845-1.0256-.0952-.28-.788-.4183-1.1775A3.1112,3.1112,0,0,1,351.6041,155.79Zm.9822-5.5549c.0945-2.4681-1.1122-3.6316-2.8605-3.1493a3.48,3.48,0,0,0-1.7533,1.1778,8.6014,8.6014,0,0,0-1.8083,5.4346c-.0323.974.0634,1.9849,1.0968,2.4483a2.4753,2.4753,0,0,0,2.8232-.7174A8.0131,8.0131,0,0,0,352.5863,150.235Z" fill="#fff"/><path d="M438.1022,140.34a2.8779,2.8779,0,0,1,.8887.1475c.3393.141,1.1654-.1054.8256.7638-.1933.4943-.1454,1.116-1.15.8383a2.7923,2.7923,0,0,0-3.2741,3.1658c.0588.271.23.283.431.2849a11.0141,11.0141,0,0,1,1.3163.0175c.2842.0371.893-.2587.766.3666-.0852.4195.1183,1.1238-.8281,1.148-2.0347.0521-2.0422.1153-2.4923,2.1746-.7132,3.2634-1.41,6.53-2.12,9.7945a8.07,8.07,0,0,1-.8682,2.4608,3.43,3.43,0,0,1-3.8945,1.6244c-.8774-.2188-.4422-.8971-.4851-1.3716-.0656-.7248.4813-.29.729-.2738,1.3849.0931,1.9724-.2946,2.3653-1.936.62-2.59,1.1412-5.2036,1.6974-7.8087.2658-1.2445.4314-2.5182.8012-3.73.268-.8784.019-1.0179-.7742-.9852-.3641.0151-.978.3038-1.0911-.2884-.1232-.6449.5411-.7641.9662-.8094,1.21-.1286,1.5526-.8677,1.8023-1.94C434.344,141.2735,435.5037,140.3124,438.1022,140.34Z" fill="#fff"/><path d="M309.2721,140.3379c.1154.0183.5479.0773.9767.1571.4675.0871,1.0277.1114.7308.8573-.1944.4881-.188.9879-1.09.7533-1.9175-.4988-3.3076.8893-3.2734,2.9995.0072.4448.2244.4279.5028.4336.3992.0083.8027-.0308,1.1967.0155.29.0342.8428-.2514.7693.3867-.0516.4479.08,1.0638-.7355,1.121-.7153.05-1.63-.4106-2.103.27a5.9025,5.9025,0,0,0-.5124,2.0637q-1.0741,4.9523-2.1473,9.9045a7.5111,7.5111,0,0,1-.8112,2.2328,3.4886,3.4886,0,0,1-3.9222,1.5914c-.8642-.2288-.4542-.8975-.5-1.3808-.0575-.5989.3966-.299.6584-.2811,1.53.1046,2.03-.1815,2.433-1.8029.6234-2.505,1.1292-5.0393,1.6807-7.562.2971-1.3588.5478-2.7292.8921-4.0758.2066-.808-.0056-1.0573-.8295-1.0043-.3352.0215-.9381.3542-1.0346-.3484-.089-.6473.5444-.6883.8955-.7315,1.18-.1452,1.5776-.8041,1.8209-1.9161C305.4574,141.3335,306.67,140.327,309.2721,140.3379Z" fill="#fff"/><path d="M299.3561,150.2868a8.8953,8.8953,0,0,1-1.5539,5.1813,5.5724,5.5724,0,0,1-5.9668,2.3435,3.8135,3.8135,0,0,1-3.0773-3.0027,8.32,8.32,0,0,1,2.2529-7.9253,5.1749,5.1749,0,0,1,5.762-1.146C298.5274,146.3686,299.3715,147.9385,299.3561,150.2868Zm-8.7373,2.6557c-.0074,1.765.5012,2.7946,1.5779,3.1837A3.2111,3.2111,0,0,0,295.9,154.87a7.3458,7.3458,0,0,0,1.2664-5.8844,2.3891,2.3891,0,0,0-3.1947-1.832A3.7815,3.7815,0,0,0,291.69,148.96,7.9591,7.9591,0,0,0,290.6188,152.9425Z" fill="#fff"/><path d="M243.8731,145.3794a4.3364,4.3364,0,0,1,4.6952,4.71,9.3726,9.3726,0,0,1-1.6336,5.4106,5.5928,5.5928,0,0,1-5.9879,2.3065,3.9983,3.9983,0,0,1-2.9638-2.6992,8.6307,8.6307,0,0,1,2.6617-8.6535A5.12,5.12,0,0,1,243.8731,145.3794Zm-4.1177,7.3452c-.0275,2.7188,1.2641,3.9055,3.4039,3.4576a3.4606,3.4606,0,0,0,2.3184-1.9152,8.6422,8.6422,0,0,0,.9867-4.7315,2.5389,2.5389,0,0,0-3.5807-2.2847,3.9751,3.9751,0,0,0-2.17,1.9442A8.0357,8.0357,0,0,0,239.7554,152.7246Z" fill="#fff"/><path d="M428.1772,150.0187a8.9261,8.9261,0,0,1-1.9524,5.9468,5.5217,5.5217,0,0,1-5.8368,1.764,3.8886,3.8886,0,0,1-2.937-3.4165,8.3927,8.3927,0,0,1,2.491-7.5328,5.0929,5.0929,0,0,1,5.7825-.9679A3.9971,3.9971,0,0,1,428.1772,150.0187Zm-8.7146,2.8432c-.0448,2.5691,1.0576,3.7,3.26,3.3384a3.16,3.16,0,0,0,2.1661-1.5506,7.8114,7.8114,0,0,0,1.1368-5.47,2.4117,2.4117,0,0,0-3.2677-2.013,3.8694,3.8694,0,0,0-2.2641,1.83A7.4,7.4,0,0,0,419.4626,152.8619Z" fill="#fff"/><path d="M379.265,147.3733a5.9386,5.9386,0,0,1,3.28-1.9964c2.6992-.3459,4.2488,1.2269,3.7514,3.8972-.3572,1.9173-.809,3.817-1.2161,5.7251q-.2244,1.0512-.437,2.1047a.7638.7638,0,0,1-.8782.7173c-1.3344.0052-1.3353.0319-1.0381-1.3089q.7493-3.38,1.4563-6.77a6.9705,6.9705,0,0,0,.1008-1.4295,1.2,1.2,0,0,0-1.2715-1.2854,3.63,3.63,0,0,0-3.1128,1.4746c-1.6446,1.8676-1.83,4.2695-2.3771,6.5377a21.4522,21.4522,0,0,0-.45,2.1c-.0694.5077-.29.6454-.7747.6733-1.3217.0759-1.4142-.0042-1.1308-1.3154.7145-3.3057,1.4182-6.6138,2.17-9.9111.094-.4123-.03-1.0628.8132-1.0692.7887-.0059,1.2264.1116,1.0312,1.025A.8242.8242,0,0,0,379.265,147.3733Z" fill="#fff"/><path d="M552.816,145.1237c-.0185.2319-.0212.3118-.0318.3908-.2485,1.8581-.2537,1.9407-2.1459,1.8285-1.1147-.0661-1.4032.3825-1.5695,1.3619-.32,1.8812-.8234,3.7306-1.1627,5.6092-.2812,1.5575.1228,1.8842,1.6562,1.5678.3529-.0728.9476-.5953,1.0227.1388.0646.6333.4849,1.5944-.3365,1.9407a4.0709,4.0709,0,0,1-4.1212-.2366c-1.25-.8989-1.2252-2.2665-.977-3.5963.3577-1.9172.7708-3.8258,1.2262-5.7222.1806-.7519.145-1.1371-.77-1.0535-.2662.0243-.8221.2889-.8152-.3331.005-.445-.1288-1.0924.4753-1.2367,1.61-.3843,2.3583-1.5836,3.0341-2.92.4109-.8129,1.2491-.5082,1.8091-.36.4961.131.1091.7339.0292,1.1305-.0939.4655-.183.9321-.2923,1.491Z" fill="#fff"/><path d="M254.8547,147.65c1.3247-1.4262,2.62-2.49,4.5386-2.3029,1.7269.1683,2.8078,1.1248,2.73,2.8305-.1436,3.1533-1.1553,6.1633-1.7921,9.2335-.1671.8053-1.112.3551-1.6841.3507-.6429-.005-.2724-.4954-.209-.7987.5295-2.5307,1.0578-5.0617,1.6006-7.59.165-.7689.291-1.5419-.45-2.069a2.148,2.148,0,0,0-2.1626-.0656,5.5686,5.5686,0,0,0-3.0258,3.5081,50.4305,50.4305,0,0,0-1.4421,6.0225,1.4019,1.4019,0,0,1-1.9186,1.021c-.3682-.1746-.2372-.4716-.1839-.72.7844-3.6531,1.5892-7.3018,2.3667-10.9564.1881-.8839.8532-.5287,1.3416-.5555.7305-.04.4012.4929.3829.84S254.8963,147.0933,254.8547,147.65Z" fill="#fff"/><path d="M640.6844,155.1412c.0482.0879.0777.1179.08.15.1849,2.415-.2258,2.8854-2.6606,3.0317-2.146.1289-4.1194-.2145-5.2205-2.3375-2.0755-4.002.9514-10.1714,5.3545-10.9817a8.3239,8.3239,0,0,1,3.8838.44c.4556.1333.652.3624.3886.8613a6.757,6.757,0,0,0-.3862,1.1249c-.1366.4307-.26.6329-.8257.391-1.6493-.7046-3.2983-.7967-4.5715.7422a6.5781,6.5781,0,0,0-1.3957,6.0475c.2993,1.174,1.6993,1.6511,3.2349,1.2449C639.2888,155.6642,639.9867,155.38,640.6844,155.1412Z" fill="#fff"/><path d="M397.3049,155.4374c.4753,1.4417-.1783,1.9635-1.3866,2.2505a7.5611,7.5611,0,0,1-3.6487.1338,3.6382,3.6382,0,0,1-2.9154-3.1343,8.9254,8.9254,0,0,1,2.5637-7.9863,5.0418,5.0418,0,0,1,4.8724-1.2364c2.2365.5041,2.8619,3.24,1.1943,5.0619a6.48,6.48,0,0,1-4.0565,1.797,2.8575,2.8575,0,0,0-.8254.0929c-.5961.3077-1.7485-.5507-1.8208.8271a2.5994,2.5994,0,0,0,1.8725,2.9457,5.4772,5.4772,0,0,0,3.357-.451C396.7628,155.6324,397.0216,155.5442,397.3049,155.4374Zm-5.6315-4.6383a8.7044,8.7044,0,0,0,4.0084-.7064,1.7984,1.7984,0,0,0,1.0713-2.3413,1.8693,1.8693,0,0,0-2.5452-.4639A5.1351,5.1351,0,0,0,391.6734,150.7991Z" fill="#fff"/><path d="M396.0062,17.6907c-2.0013-1.8837-3.8312-3.9424-5.9241-5.7337A54.2559,54.2559,0,0,0,369.1537.4781a34.9056,34.9056,0,0,1,9.566,1.8681c7.1869,2.4586,12.9286,6.7173,16.61,13.4948a3.107,3.107,0,0,1,.6576,1.872Z" fill="#fff"/><path d="M464.9222,140.0963c-.9556,4.4064-1.8873,8.705-2.82,13.0032a25.1151,25.1151,0,0,0-.7067,3.3738c-.11,1.4732-.8244,1.7559-2.1465,1.6692-.8514-.0558-.9692-.3012-.81-1.0218,1.1648-5.2707,2.3492-10.5376,3.4394-15.8239.2046-.9921.5523-1.3631,1.535-1.2126A10.6031,10.6031,0,0,0,464.9222,140.0963Z" fill="#fff"/><path d="M564.2568,158.0306c.8845-4.0628,1.7631-8.0614,2.616-12.0656.1-.4681.1757-.975.7594-.7851.5757.1873,1.48-.6686,1.7365.5185.1525.7048.4917.2952.7411.1059a4.2127,4.2127,0,0,1,3.4981-.787c.5736.1085.7751.3112.6553.949-.2106,1.12-.46,1.8594-1.9385,1.5663-1.2056-.239-2.0484.6918-2.7321,1.624-1.3242,1.8052-1.4355,4.0086-1.9828,6.0685-.0508.1914-.0494.3961-.0935.59C566.9666,158.23,566.9656,158.23,564.2568,158.0306Zm5.2666-11.8088c-.0239-.0264-.0533-.0783-.0708-.0745a.6977.6977,0,0,0-.15.0688c.024.0265.0529.0782.0708.0746A.5919.5919,0,0,0,569.5234,146.2218Z" fill="#fff"/><path d="M373.8209.266c12.67.6913,23.2466,6.8011,26.6668,15.1385A77.8717,77.8717,0,0,0,392.6928,8.89a57.5175,57.5175,0,0,0-8.999-5.2269A54.8007,54.8007,0,0,0,373.8209.266Z" fill="#fff"/><path d="M543.3622,81.6008a3.778,3.778,0,0,1-3.8516,3.72,3.7825,3.7825,0,1,1,.0158-7.5645A3.7449,3.7449,0,0,1,543.3622,81.6008Z" fill="#fff"/><path d="M367.6123,154.6647a67.3526,67.3526,0,0,1,1.3606-6.63c.2179-.988-.08-1.0655-.8691-1.0065-.265.02-.7188.2084-.7912-.2354a.751.751,0,0,1,.6382-.8782c1.3947-.246,1.9786-1.3077,2.5492-2.4143.1516-.2941.2114-.7109.679-.741.5037-.0324.9676-.0986.8215.6993-.1218.6657-.7247,1.4962-.1889,1.9617.3947.3428,1.2975.0792,1.97.1344.2735.0224.8373-.2364.6828.4335-.1.435.1159,1.0612-.7571,1.0827-.8393.0208-1.911-.4663-2.4728.2719a6.2983,6.2983,0,0,0-.6264,2.3959q-.4836,2.2144-.9428,4.4341c-.3617,1.75.1356,2.2739,1.9,2.0628.2975-.0356.7905-.3274.8338.2807.0306.4306.2329.9474-.3844,1.2429C369.7961,158.8213,367.5549,157.4574,367.6123,154.6647Z" fill="#fff"/><path d="M317.4818,147.0434a4.3655,4.3655,0,0,1-.8138-.0092c-.3479-.0752-.8833.2907-1.0173-.265-.1265-.5247.31-.7912.7623-.8946a3.3027,3.3027,0,0,0,2.3081-2.189,4.2321,4.2321,0,0,1,.4193-.7185c.2592-.3753.6747-.25.9877-.1838.4765.1005.2221.5.1691.7761-.3709,1.9294-.3746,1.9165,1.684,1.9967.3061.0119.9029-.301.8182.4586-.0557.4986.0119,1.0691-.8015,1.04-.7912-.028-1.8651-.2654-2.3126.1414-.6492.59-.5366,1.7541-.7371,2.6749-.3466,1.5918-.736,3.18-.9609,4.7906-.1982,1.42.31,1.8133,1.7037,1.63.35-.046.9-.5008,1.012.2727.088.6048.0825,1.1291-.775,1.3058-2.9562.6093-4.452-.8189-3.8884-3.814.22-1.1711.4917-2.3327.7326-3.5C317.0048,149.4292,317.2283,148.3,317.4818,147.0434Z" fill="#fff"/><path d="M680.6607,88.0843c-.6456,1.7835-1.286,3.5689-1.9408,5.349-.1528.4154-.1141.99-.7991,1.01-.7651.0224-.721-.6245-.8779-1.0655-.6064-1.7045-1.1786-3.4211-1.7636-5.1332l-.3235.0077q0,1.4771,0,2.954c0,.8785-.0059,1.7571.0016,2.6355.0031.3679-.0783.611-.5259.6058-.4122-.0047-.6979-.0718-.6963-.5768q.0124-3.7734-.0037-7.5469c-.0026-.4427.2129-.5634.5845-.5372.5477.0386,1.1657-.2267,1.4336.6342.6127,1.9692,1.3184,3.9094,1.9876,5.861.0454.1325,0,.3209.3536.3893.7044-1.9764,1.4-3.979,2.1432-5.9635.1235-.3294.0732-.8666.6261-.9112.6729-.0543,1.3006-.2024,1.2514.9328-.0985,2.2718-.0233,4.5509-.0349,6.8269-.0019.3911.1938.9048-.567.9-.7116-.0049-.6137-.4536-.6139-.8862q-.0015-2.7349,0-5.47Z" fill="#fff"/><path d="M630.9393,145.1538c-.8945,4.1521-1.7973,8.1824-2.6113,12.2306-.21,1.0446-.9048.6885-1.458.7034-1.465.0394-1.4805.0107-1.1834-1.3907.7333-3.4586,1.4972-6.9107,2.2124-10.3729.1746-.8451.4584-1.3676,1.4567-1.186A9.2338,9.2338,0,0,0,630.9393,145.1538Z" fill="#fff"/><path d="M282.549,147.5343a13.4172,13.4172,0,0,1,2.0449-1.8091,3.0965,3.0965,0,0,1,2.0736-.3572c.357.0706,1.1212-.3.8859.6282-.1483.5851.0369,1.3562-1.127,1.1338-1.3854-.2647-2.4164.5643-3.2483,1.613a11.6636,11.6636,0,0,0-1.9,5.08q-.3367,1.5724-.6971,3.14a1.4738,1.4738,0,0,1-1.9162.8083c-.3021-.1655-.1673-.3761-.1174-.606.79-3.6475,1.5937-7.2924,2.3445-10.9482.1892-.9213.8316-.67,1.37-.6617.8074.0129.35.6215.3912.9777A5.8677,5.8677,0,0,1,282.549,147.5343Z" fill="#fff"/><path d="M361.4267,147.5524c1.2416-1.4625,2.4461-2.5259,4.2961-2.18.32.06.9122-.0574.6608.4924-.2011.44.2151,1.4272-.7919,1.28-2.0473-.3-3.2015.8665-4.1412,2.4-1.0659,1.7391-1.1859,3.7709-1.68,5.6858a14.5981,14.5981,0,0,0-.3222,1.6371c-.0973.7014-.4123.9482-1.1679.9683-.9235.0247-1.0529-.3209-.8828-1.0882.7489-3.3765,1.5213-6.7487,2.1951-10.14.1809-.91.5666-1.1933,1.4138-1.0664.9315.14.241.8212.4112,1.216A3.0581,3.0581,0,0,1,361.4267,147.5524Z" fill="#fff"/><path d="M404.893,147.3338c.4769-.1143.6207-.5307.8971-.7936a3.5506,3.5506,0,0,1,2.9988-1.1834c.3619.052,1.26-.3982,1.0606.5982-.1175.5861.0006,1.4044-1.2371,1.1758-1.4724-.2718-2.5255.7251-3.36,1.8745-1.1382,1.5677-1.3861,3.4418-1.8039,5.2553-.1963.8518-.3428,1.7149-.5233,2.57a1.3224,1.3224,0,0,1-1.8648.963c-.4643-.181-.2779-.5386-.2209-.8047.7754-3.6153,1.6-7.22,2.3428-10.8423.1917-.9342.821-.5439,1.293-.59.7339-.0724.4166.474.4175.8216C404.8937,146.6874,404.893,146.9965,404.893,147.3338Z" fill="#fff"/><path d="M309.8686,157.78c-.7732.14-1.12-.043-.9182-.9283.8046-3.5215,1.5578-7.0547,2.3348-10.5824.13-.59,1.5775-1.063,2.0126-.6582.222.2065.0429.4366-.005.66-.767,3.571-1.5421,7.14-2.2848,10.7165C310.8648,157.6769,310.5318,157.9452,309.8686,157.78Z" fill="#fff"/><path d="M669.8422,90.6633c0,.9192.03,1.84-.0143,2.757-.0188.3885.3269,1.0164-.5441,1.0311-.8218.0139-.62-.5532-.6234-.989-.0124-1.8784-.0567-3.759.0174-5.6345.0345-.8714-.2442-1.1288-1.0628-1.0174a11.4753,11.4753,0,0,1-1.3175.0113c-.3414.0063-.5063-.1131-.4864-.4887.0172-.3246.0893-.5461.4618-.5459,1.9983.001,3.9965.0046,5.9948-.0009.3952-.0011.4284.23.4437.5439.0176.3606-.114.5184-.4723.4907a1.8436,1.8436,0,0,0-.24,0c-2.1572.1138-2.1572.114-2.1572,2.2832Z" fill="#fff"/><path d="M629.8515,143.946c-.7243-.0042-1.1806-.5624-1.2252-1.4781a1.74,1.74,0,0,1,1.6564-1.8185,1.3077,1.3077,0,0,1,1.466,1.3536A1.8185,1.8185,0,0,1,629.8515,143.946Z" fill="#fff"/><path d="M311.9715,142.7589c.05-1.154.4173-1.689,1.3687-1.7069a.9086.9086,0,0,1,1.0292,1.0145,1.3675,1.3675,0,0,1-1.3181,1.53C312.4386,143.6243,311.8931,143.2815,311.9715,142.7589Z" fill="#fff"/><path d="M410.62,17.0356l.6032.0285a.8422.8422,0,0,1-.2385.1091C410.9209,17.181,410.8493,17.1262,410.62,17.0356Z" fill="#fff"/><path d="M417.8417,17.465c.1879-.31.4248-.2372.7337-.0745-.2905.0211-.52.0379-.75.0545Z" fill="#fff"/><path d="M319.8188,46.3837a1.91,1.91,0,0,1-.2263.0264c-.0277,0-.0554-.0319-.0832-.0492a.4.4,0,0,1,.1042-.0167C319.6749,46.35,319.7352,46.3669,319.8188,46.3837Z" fill="#fff"/><path d="M380.66,54.6771l-.1378.3666c-.0246-.0259-.0639-.0483-.0711-.0784a.2731.2731,0,0,1,.1374-.3529Z" fill="#fff"/><path d="M395.9872,17.7131l.178.0552c-.1577.1884-.1286-.0055-.159-.0776Z" fill="#fff"/><path d="M392.5087,21.4842c-.0215-.0262-.0652-.0563-.064-.0845s.0475-.0542.074-.0812c.0241.0292.0682.06.0665.0874S392.5359,21.4584,392.5087,21.4842Z" fill="#fff"/><path d="M569.5239,146.2228a.6369.6369,0,0,1-.151.0679c-.0179.0036-.0468-.0481-.0708-.0746a.6977.6977,0,0,1,.15-.0688C569.47,146.1435,569.5,146.1954,569.5239,146.2228Z" fill="#fff"/></g></g></svg>