<?xml version="1.0" encoding="utf-8"?>
<!-- Generator: Adobe Illustrator 21.0.0, SVG Export Plug-In . SVG Version: 6.00 Build 0)  -->
<svg version="1.1" id="Layer_1" xmlns="http://www.w3.org/2000/svg" xmlns:xlink="http://www.w3.org/1999/xlink" x="0px" y="0px"
	 viewBox="0 0 682.1 163.3" style="enable-background:new 0 0 682.1 163.3;" xml:space="preserve">
<style type="text/css">
	.st0{fill:#FFFFFF;}
</style>
<title>cwi-white</title>
<path class="st0" d="M0.4-240.7c0.3-1,0.5-2,0.7-3.1c2.1-7.1,6.9-11.4,13.9-13.3c6.9-1.9,13.7-1.2,20.4,1.2c0.7,0.2,0.9,0.5,0.7,1.3
	c-0.5,2-0.8,4-0.9,6c0,0.9-0.4,1.2-1.3,1.1c-0.5-0.1-0.6-0.2-0.6-0.7c0-1.1-0.2-2.1-0.2-3.2c0-0.6-0.3-1.2-0.8-1.5
	c-2.3-1.5-4.9-2.3-7.6-2.6c-3.2-0.4-6.5,0-9.5,1.3c-3.7,1.6-6.6,4.8-7.7,8.7c-1.5,4.6-1.3,9.6,0.6,14.1c2.4,5.4,6.7,8.5,12.4,9.7
	c3.9,0.8,8,0.5,11.7-0.8c1.2-0.4,2.3-1,3.4-1.7c0.2-0.1,0.4-0.5,0.7-0.1c0.2,0.2,0.3,0.6,0.2,0.9c-0.4,1.4-1.5,2.6-2.9,3
	c-7.7,2.8-15.3,3.1-22.7-0.5c-5.8-2.7-9.7-8.2-10.2-14.6c0-0.1,0-0.3-0.2-0.3V-240.7z"/>
<path class="st0" d="M157.6-227.9c1.5-3.6,2.9-7.1,4.3-10.6c2.5-6.1,5-12.3,7.2-18.6c0.3-0.7,0.7-0.8,1.3-0.8
	c0.8-0.1,0.9,0.3,1.1,0.9c3.2,9.9,7,19.6,10.5,29.6c0.4-1.4,0.8-2.7,1.1-3.9c2-7.1,4.2-14.2,5.9-21.4c0.1-0.5,0.2-1,0.3-1.5
	c0.1-1-0.1-1.3-1.2-1.4c-0.9-0.1-1.9-0.1-2.8-0.1c-0.9,0-0.8-0.5-0.8-1.1c0-0.7,0.4-0.7,0.9-0.6c3.3,0.2,6.7,0.2,10.1,0
	c0.5,0,0.9-0.1,0.8,0.6c0,0.4,0.3,1.1-0.6,1.1c-1.9-0.1-2.8,1-3.3,2.7c-2.7,8.6-5.5,17.3-7.8,26.1c-0.6,2.4-1.3,4.8-1.9,7.2
	c-0.2,0.6-0.4,0.7-1,0.7c-2.1,0-2.1,0-2.7-2c-3.1-9-6.5-17.9-9.8-26.8c-0.1-0.3-0.1-0.6-0.4-0.7c-3.9,9.5-7.8,18.9-11.2,28.6
	c-0.1,0.6-0.7,1.1-1.3,1c0,0,0,0,0,0c-1.9-0.1-1.9,0-2.2-1.8c-2.3-10.7-4.9-21.2-7.4-31.8c0-0.1-0.1-0.2-0.1-0.3
	c-0.6-2.3-0.8-2.4-3.2-2.7c-0.8-0.1-1.3-0.3-1.2-1.2c0.1-0.5,0.3-0.7,0.8-0.6c4.2,0.3,8.4,0.3,12.6,0c0.6,0,0.8,0.2,0.8,0.8
	c0,0.5,0,1-0.7,1c-0.7,0-1.4,0.1-2.1,0.1c-1.5,0.1-1.8,0.4-1.6,2c0.5,3,1.1,5.9,1.8,8.9c1.2,5.3,2.5,10.7,3.7,16
	C157.3-228.5,157.4-228.2,157.6-227.9z"/>
<path class="st0" d="M352.2-306.6c-7.8,3.1-14.2,8.2-20.1,14c-6.4,6.6-12,14-16.5,22c-0.4,0.6-0.1,0.9,0.3,1.2
	c7.1,6.2,12.5,14,15.8,22.8c0.7,1.5,1.1,3.1,1.3,4.7c-0.9-1.4-1.9-2.7-2.8-4.1c-7.3-10.4-15.8-19.6-26.2-26.8
	c-5.2-3.7-11-6.6-17.1-8.6c10.1,0.9,19.8,4.7,27.7,11c0.3-0.1,0.3-0.4,0.3-0.6c2.5-8.3,6.4-15.9,12.3-22.4c6.3-7,14.8-11.6,24.1-13
	C351.6-306.6,351.9-306.6,352.2-306.6z"/>
<path class="st0" d="M319.5-226.4c-1.2-2-2.3-3.8-3.4-5.5c-6.3-10.2-13.7-19.7-22.2-28.2c-7-7.1-15-13.2-23.8-18
	c-2.8-1.5-5.8-2.8-8.8-3.8c0.9-0.1,1.8,0,2.6,0.2c0.8,0.1,1.6,0.3,2.4,0.4c11.6,2.2,22.4,7.7,30.9,15.9c6.2,6,11.4,12.9,15.3,20.7
	c2.9,5.6,5.2,11.6,6.8,17.7C319.4-227,319.4-226.9,319.5-226.4z"/>
<path class="st0" d="M116.4-240c1-0.8,2-1.6,2.9-2.5c1.5-1.6,3.7-2.6,5.9-2.5c3,0,5.7,0.8,7.6,3.2c1.3,1.5,1.5,3.4,1.5,5.3
	c0,4.4,0,8.7,0.2,13.1c0,0.4,0.1,0.8,0.2,1.3c0.1,0.9,0.6,1.2,1.4,1.3c0.6,0,1.2,0.1,1.8,0.1c0.7,0,0.6,0.4,0.7,0.9
	c0,0.5-0.1,0.8-0.7,0.7c-2.6-0.2-5.2-0.2-7.8,0c-0.7,0.1-0.8-0.2-0.8-0.9c0.4-5.2,0.5-10.5,0.2-15.7c-0.1-4.8-5-7.4-9.5-5.1
	c-0.8,0.4-1.6,0.9-2.2,1.5c-1.1,0.8-1.7,2.1-1.6,3.5c0.1,4.3-0.1,8.7,0.2,13c0.1,1.4,0.5,1.8,1.9,1.9c0.5,0,1,0,1.5,0.1
	c0.7,0,1,0.3,0.9,1c0,0.8-0.5,0.7-1,0.6c-3.9-0.2-7.9-0.2-11.8,0c-0.4,0-0.9,0.1-0.9-0.6c0-0.6,0.1-1.1,0.8-1.1c0.7,0,1.4-0.1,2-0.1
	c0.7,0,1.3-0.6,1.3-1.4c0,0,0,0,0,0c0.4-5.7,0.5-11.4,0.2-17.1c-0.1-1.7-0.3-1.8-1.9-1.8c-0.6,0-1.1,0-1.7,0c-0.5,0-0.9,0-0.9-0.7
	c0-0.6,0-1,0.8-1.1c2.6-0.3,5.2-0.9,7.7-1.7c0.9-0.3,1.1-0.1,1.1,0.8C116.4-242.7,116.4-241.3,116.4-240z"/>
<path class="st0" d="M369.3-239.6c1.4-1.2,2.6-2.2,3.7-3.3c1.8-1.7,4-1.9,6.3-1.9c1.7,0.1,3.3,0.6,4.8,1.5c2.4,1.4,3.2,3.8,3.3,6.4
	c0.1,3,0,6.1,0.1,9.1c0,1.9,0.2,3.7,0.2,5.6c0,1.2,0.8,1.6,1.8,1.6c0.4,0,0.8,0,1.3,0c0.7,0,1,0.2,1,1c0,0.9-0.5,0.7-1,0.7
	c-2.4-0.2-4.8-0.2-7.2,0c-0.7,0.1-1.1-0.1-1-0.9c0.4-5.2,0.3-10.4,0.2-15.5c-0.1-4.1-2.9-6.2-6.8-5.9c-1.8,0.2-3.5,0.9-4.8,2.1
	c-1.1,0.8-1.7,2.1-1.7,3.5c0,4.4-0.1,8.9,0.2,13.3c0.1,0.9,0.4,1.6,1.5,1.6c0.6,0,1.3,0.1,1.9,0.1c0.7,0,0.9,0.3,0.9,1
	c0,0.7-0.3,0.8-0.9,0.8c-4-0.3-7.9-0.3-11.9,0c-0.5,0-0.9,0-0.9-0.7c0-0.6,0-1.1,0.8-1.1c0.7,0,1.4-0.1,2-0.2c0.7,0,1.3-0.5,1.3-1.2
	c0,0,0-0.1,0-0.1c0.1-2.1,0.3-4.2,0.3-6.3c0.1-3.7,0.1-7.4-0.2-11c-0.1-1.3-0.3-1.5-1.7-1.6c-0.7,0-1.4,0-2-0.1
	c-0.5,0-0.8-0.1-0.8-0.7c0-0.5,0-0.9,0.7-1c1.9-0.2,3.7-0.6,5.5-1.1c0.7-0.2,1.5-0.4,2.2-0.7c0.9-0.3,1.1-0.1,1.1,0.8
	C369.5-242.4,369.4-241.1,369.3-239.6z"/>
<path class="st0" d="M488.6-223.7c-0.9,0.7-1.7,1.4-2.4,2.2c-2.7,3.1-6.2,3.7-10,3.1c-2.5-0.3-4.6-2.2-5-4.7
	c-0.2-1.1-0.3-2.2-0.3-3.3c0-3.7,0-7.4-0.1-11.1c0-0.7-0.1-1.5-0.1-2.2c0-0.6-0.4-1.1-0.9-1.1c-0.1,0-0.1,0-0.2,0
	c-0.8,0-1.7,0-2.5-0.1c-0.5,0-0.8-0.2-0.8-0.8c0-0.6,0.2-0.9,0.8-1c2.3-0.2,4.6-0.7,6.8-1.4c2-0.7,2.1-0.7,1.9,1.5
	c-0.3,4.7-0.1,9.4-0.2,14.2c0,1,0.1,2,0.2,3c0.2,2.1,1.9,3.7,4,3.8c3.4,0.5,6.8-1.1,8.5-4.2c0.2-0.4,0.4-0.8,0.4-1.3
	c0.3-4.1,0.2-8.1,0-12.2c-0.1-1.3-0.3-1.6-1.7-1.6c-0.7,0-1.3,0-2,0c-0.5,0-0.9-0.1-0.9-0.8c0-0.7,0.3-0.9,0.9-1
	c2.6-0.3,5.3-0.9,7.8-1.8c0.9-0.3,1,0.2,0.9,0.9c-0.3,4.3-0.2,8.5-0.2,12.8c0,2.8,0,5.5,0.2,8.3c0.1,1.6,0.4,1.9,2,2
	c0.5,0.1,1,0.1,1.6,0.1c0.7,0,0.8,0.4,0.8,0.9c0,0.6-0.3,0.7-0.9,0.7c-2.7-0.3-5.3-0.3-8,0c-0.6,0.1-0.7-0.3-0.7-0.8
	C488.4-220.9,488.5-222.1,488.6-223.7z"/>
<path class="st0" d="M97.6-223.7c-1.5,1.2-3,2.2-4.3,3.4c-1.2,1-2.7,1.6-4.3,1.7c-3,0.1-6.1-0.9-7.2-4.2c-1.4-4,0.8-8.4,4.8-9.8
	c0,0,0,0,0,0c3.2-1.1,6.4-1.8,9.8-2.2c1.3-0.2,1.2-0.2,1.2-1.4c-0.2-5.1-4-6.4-8.1-5.8c-0.2,0-0.4,0.1-0.7,0.1
	c-1.2,0.3-2.3,0.8-2.6,2.2c-0.1,0.5-0.3,0.9-0.6,1.3c-0.2,0.4-0.3,0.9-1,0.7c-0.6-0.2-0.9-0.4-1-1.1c-0.1-2.9-0.1-2.9,2.5-4.3
	c2.8-1.7,6.2-2.3,9.5-1.8c4.4,0.8,6.9,3.8,6.8,8.4c-0.2,4.3-0.2,8.7-0.2,13c0,0.2,0,0.3,0,0.5c0.1,1.7,0.4,2,2,2.1
	c0.4,0,0.7,0.1,1.1,0.1c0.7,0,0.6,0.5,0.6,1c0,0.5-0.2,0.7-0.7,0.6c-2.2-0.2-4.5-0.2-6.7,0c-0.7,0.1-1-0.3-1-1
	C97.7-221.3,97.6-222.4,97.6-223.7z M97.7-229.6c0-1,0-2.1,0-3.1c0-0.3,0-0.6-0.5-0.5c-2.3,0.4-4.6,0.9-6.9,1.6
	c-3,1-4.1,2.8-3.9,5.9c0,1.9,1.5,3.6,3.4,3.6c0.1,0,0.1,0,0.2,0c2.4,0.1,4.2-0.9,6-2.4c1.1-1,2-2,1.7-3.6
	C97.7-228.6,97.7-229.1,97.7-229.6z"/>
<path class="st0" d="M211.1-223.8c-1.5,1.2-3,2.2-4.4,3.4c-2.6,2.1-5.5,2-8.3,0.8c-2-0.8-3.3-2.8-3.3-5c-0.1-2.6,0.4-5,2.5-6.8
	c1.4-1,3-1.7,4.7-2.1c2.7-0.7,5.4-1.3,8.2-1.6c0.6-0.1,0.9-0.3,0.7-0.9c-0.1-0.5-0.1-1-0.2-1.5c-0.7-4.2-4.3-5.1-7.4-4.8
	c-0.4,0-0.8,0.2-1.2,0.2c-2.1,0.2-2.7,1.9-3.3,3.5c-0.2,0.7-0.6,1-1.3,0.7c-0.4-0.1-0.7-0.4-0.6-0.8c0-0.8,0-1.6,0-2.4
	c0-0.3,0.1-0.5,0.3-0.7c3.8-2.7,8-4.2,12.7-2.9c3.6,0.8,6,4.2,5.7,7.8c-0.2,4.5-0.2,9-0.2,13.5c0,0.3,0,0.7,0.1,1
	c0,0.7,0.5,1.3,1.2,1.3c0,0,0.1,0,0.1,0c0.4,0.1,0.9,0.1,1.4,0.1c0.8-0.1,1,0.3,1,1c0,0.8-0.6,0.6-1,0.6c-2.1-0.1-4.2-0.1-6.3,0
	c-0.7,0.1-1-0.2-1-0.9C211.1-221.3,211.1-222.5,211.1-223.8z M211.2-229.7c0-1,0-2,0-2.9c0-0.6-0.2-0.7-0.7-0.6
	c-2.4,0.4-4.8,1-7.2,1.8c-1.8,0.6-3.2,2.2-3.4,4.1c-0.6,3.6,1.6,5.8,5.2,5.1c1.7-0.4,3.3-1.3,4.6-2.5c1-0.9,1.7-1.8,1.4-3.2
	C211.2-228.5,211.2-229.1,211.2-229.7L211.2-229.7z"/>
<path class="st0" d="M252.2-232.2c-2.8,0-4.9,0-6.9,0c-0.5,0-0.8,0-0.8,0.7c0.1,8.8,7.5,11.3,13,9.4c1.2-0.4,2.3-1,3.4-1.6
	c0.3-0.1,0.5-0.3,0.8,0c0.3,0.3,0.1,0.4,0,0.7c-0.3,1.1-1.1,1.9-2.1,2.4c-3.7,2.1-8.1,2.6-12.2,1.4c-4.5-1.3-7.1-4.3-8-8.8
	c-0.8-3.5-0.4-7.2,1.1-10.5c0.4-0.9,0.9-1.7,1.6-2.3c2.9-2.6,6.1-4.5,10.1-4.5c5.5,0,10.1,3,10.4,9.6c0,0.5,0,1,0,1.5
	c0,1.3-0.1,1.4-1.4,1.6C258.3-232.3,255.3-232.2,252.2-232.2z M251.8-234.2c1.7,0,3.5,0,5.2,0c0.5,0,0.7-0.1,0.7-0.7
	c0-1-0.1-2-0.2-3c-0.5-2.4-1.6-4.4-4.1-5.2c-2.5-0.7-4.9-0.4-6.7,1.6c-1.7,1.9-2.1,4.2-2.1,6.6c0,0.6,0.4,0.4,0.7,0.4
	C247.4-234.2,249.6-234.2,251.8-234.2z"/>
<path class="st0" d="M527.7-231.7c-1.3,0-2.5,0-3.8,0c-0.5,0-0.7,0.1-0.7,0.7c0.2,4.8,2.3,8.9,7.9,9.9c2.8,0.5,5.3-0.3,7.8-1.6
	c0.5-0.2,0.9-0.9,1.5-0.5c0.7,0.6-0.3,1.1-0.3,1.6c-0.1,0.3-0.3,0.6-0.5,0.8c-5.1,3.2-10.4,3.8-15.7,1c-4.1-2.1-5.7-5.9-5.9-10.3
	c-0.1-2.1,0.1-4.1,0.7-6.1c1.5-5,5.3-7.2,9.9-8.3c3.7-1.1,7.7,0,10.3,2.8c1.7,1.9,2.6,4.3,2.6,6.9c0.1,2.8,0.4,2.5-2.7,2.8
	C535-231.8,531.3-231.7,527.7-231.7z M532-233.7l0-0.1c1.2,0,2.5,0,3.7,0c0.5,0,0.6-0.2,0.6-0.6c0-1-0.1-2-0.2-3
	c-0.4-2.3-1.4-4.2-3.7-5.1c-2.2-0.9-4.8-0.6-6.6,1c-2.1,1.8-2.5,4.2-2.6,6.8c0,0.6,0.2,0.7,0.8,0.8
	C526.6-233.9,529.3-233.8,532-233.7L532-233.7z"/>
<path class="st0" d="M66-232.1c-2.1,0-3.8,0-5.5,0c-0.3,0-0.6-0.1-0.6,0.4c-0.3,4.3,2.2,8.2,6.3,9.7c2.7,0.9,5.5,0.7,8.1-0.5
	c0.7-0.3,1.5-0.7,2.2-1.1c0.2-0.1,0.5-0.4,0.8-0.1c0.3,0.3,0.1,0.5,0,0.8c-0.3,1-1,1.8-2,2.3c-4.8,2.5-9.6,2.9-14.5,0.5
	c-3.4-1.6-5.2-4.6-5.9-8.2c-0.7-3.3-0.3-6.8,1-9.9c0.5-1.2,1.2-2.2,2.2-3.1c2.9-2.4,6.1-4.1,10.1-4c5.9,0.1,9.9,4,10,10.1
	c0.1,2.4,0,2.4-2.4,2.7C72.4-232.2,69-232.1,66-232.1z M68.4-234.2v0.1c1.3,0,2.6,0,3.9,0c0.5,0,0.8-0.2,0.8-0.8
	c0-1.1-0.1-2.1-0.3-3.2c-0.4-2.6-2.4-4.7-5-5.1c-3.2-0.4-5.7,0.9-6.9,3.7c-0.5,1.3-0.8,2.7-0.9,4.2c-0.1,0.8,0.1,1.2,1,1.2
	C63.4-234.3,65.9-234.2,68.4-234.2z"/>
<path class="st0" d="M346.4-256.9c3.8,0.2,7.7,0,11.5-0.1c0.9,0,1.1,0.3,1.1,1.1c0,0.6-0.3,0.7-0.8,0.7c-0.9,0-1.8,0-2.6,0.2
	c-1.4,0.2-1.8,0.6-1.9,2c-0.1,1.9-0.2,3.8-0.2,5.7c0,6.9,0,13.8,0,20.7c0,1.3,0.1,2.7,0.2,4c0,0.9,0.7,1.7,1.6,1.8
	c0.9,0.1,1.8,0.2,2.7,0.2c0.8,0,1,0.4,1,1.2c0,0.9-0.6,0.7-1.1,0.7c-3.3-0.2-6.6-0.2-9.9-0.2c-1.5,0-2.9,0.1-4.4,0.2
	c-0.5,0-0.9,0.1-0.9-0.7c0-0.6-0.1-1.2,0.8-1.2c0.9,0,1.9-0.1,2.8-0.2c1.2-0.3,1.6-0.5,1.7-1.8c0.1-1.1,0.2-2.3,0.2-3.4
	c0-7,0-14,0-21c0-2-0.1-4-0.2-6c-0.1-1.3-0.5-1.8-1.8-1.9c-0.9-0.1-1.8-0.2-2.7-0.2c-0.8,0-0.7-0.5-0.7-1c0-0.5,0.1-0.9,0.7-0.8
	c0.5,0,1,0.1,1.5,0.1S345.9-256.9,346.4-256.9z"/>
<path class="st0" d="M325.4-236c-1.3-2-2.5-4.1-3.8-6.1c-5.1-8.1-11.2-15.6-18.1-22.4c-6.7-6.4-14.1-12-22.7-15.6
	c-0.8-0.3-1.6-0.6-2.4-1c2.4,0.2,4.7,0.6,7,1.2c12.5,3.2,22.2,10.5,29.6,20.9c4.8,6.8,8.4,14.4,10.5,22.5c0,0.1,0.1,0.3,0.1,0.4
	L325.4-236z"/>
<path class="st0" d="M404.3-245c2.3,0.1,4.6,0.6,6.9,1.3c0.4,0.1,0.7,0.4,0.6,0.8c-0.2,1.7-0.2,3.3-0.2,5c0,0.6-0.3,0.7-0.8,0.7
	c-0.4,0-0.8,0.1-0.9-0.6c-0.5-3.3-2-4.7-5.3-5.1c-1-0.1-2.1-0.1-3.1,0.1c-1.9,0.3-3.2,1.9-3.3,3.8c-0.1,2,0.8,3.3,3.1,3.9
	c2.4,0.7,4.8,1.3,7.2,1.9c0,0,0.1,0,0.1,0c5.1,1.5,6.6,6.5,3.4,10.7c-1.8,2.3-4.5,3.8-7.4,4.1c-3.5,0.4-6.9-0.3-10.3-1
	c-0.5-0.1-0.6-0.3-0.5-0.8c0.4-2.1,0.5-4.3,0.4-6.4c0-0.6,0.4-0.7,0.8-0.7c0.5,0,0.9-0.1,0.9,0.6c0,0.8,0.1,1.6,0.1,2.3
	c0,0.6,0.2,1.2,0.5,1.6c2.3,2.5,8.1,3.1,10.9,1.1c1-0.7,1.7-1.8,1.9-3c0.3-2.1-0.5-3.4-2.5-4.2c-2.1-0.7-4.3-1.3-6.6-1.8
	c-1.2-0.2-2.4-0.7-3.4-1.3c-3-2.3-3.6-6.6-1.3-9.6c0.1-0.2,0.3-0.3,0.4-0.5C398.2-244.2,401.1-244.9,404.3-245z"/>
<path class="st0" d="M43.4-237c0.1-4.7-0.1-9.7-0.2-14.6c0-0.8-0.1-1.7-0.1-2.5c0-0.9-0.4-1.3-1.4-1.3c-0.7,0-1.5-0.1-2.2-0.1
	c-0.4,0-0.8-0.1-0.8-0.6c0-0.5-0.1-1.1,0.7-1.2c2.7-0.3,5.5-0.9,8.1-1.8c0.6-0.2,0.9,0.1,0.9,0.7c-0.5,9.9-0.2,19.9-0.3,29.8
	c0,2,0.1,4,0.3,6c0,0.8,0.6,1.5,1.4,1.5c0,0,0.1,0,0.1,0c0.6,0,1.3,0.1,1.9,0.1c0.8,0,0.7,0.5,0.7,1.1c0,0.7-0.4,0.6-0.8,0.6
	c-2.9-0.1-5.8-0.3-8.8-0.1c-1.1,0.1-2.3,0.1-3.4,0.1c-0.4,0-0.7-0.1-0.7-0.6c0-0.4-0.2-1,0.5-1.1c0.7-0.1,1.4-0.1,2-0.1
	c1.3-0.1,1.6-0.5,1.7-1.8C43.4-227.4,43.4-232.1,43.4-237z"/>
<path class="st0" d="M458.2-231.5c-0.2,2.4-0.2,4.8,0,7.1c0.1,1.4,1.3,2.5,2.7,2.5c1.2,0.1,2.4-0.1,3.5-0.6c0.5-0.3,0.6-0.1,0.9,0.3
	c0.3,0.5,0.2,0.6-0.2,0.9c-0.5,0.4-1,0.8-1.5,1.3c-2.3,2.2-4.9,2.1-7.5,1c-2-0.8-2.7-2.6-2.7-4.7c0-5,0-10,0.1-15.1
	c0-0.9-0.2-1.3-1.2-1.2c-0.7,0.1-1.5,0.1-2.2,0.1c-0.3,0-0.8,0.1-0.8-0.4c-0.1-0.4,0.2-0.8,0.5-0.9c1-0.4,2-0.8,3.1-1.2
	c0.5-0.1,0.8-0.6,0.7-1.1c-0.1-2.2,0-4.5-0.1-6.7c-0.1-0.4,0.2-0.9,0.6-1c0,0,0,0,0,0c1.1-0.4,2.2-0.9,3.3-1.4
	c0.3-0.2,0.5-0.5,1-0.1c0.3,0.2,0.4,0.7,0.3,1c-0.3,2.7-0.4,5.5-0.6,8.3c0,0.7,0.2,0.9,0.9,0.9c2-0.1,4-0.1,6-0.1
	c0.8,0,0.9,0.2,0.7,0.9c-0.5,1.8-0.4,1.8-2.3,1.8c-1.5,0-3,0-4.5,0c-0.6,0-0.8,0.1-0.8,0.7C458.2-236.8,458.2-234.1,458.2-231.5z"/>
<path class="st0" d="M420.1-230.8c0-3,0-5.6,0-8.2c0-0.8-0.2-0.9-0.9-0.9c-0.8,0.1-1.7,0.1-2.5,0.1c-0.3,0-0.7,0.1-0.7-0.4
	c0-0.4,0-0.8,0.5-0.9c1.1-0.4,2.1-0.9,3.2-1.3c0.4-0.1,0.7-0.5,0.6-0.9c0-2.3,0.1-4.6-0.1-6.9c-0.1-0.3,0.1-0.7,0.4-0.8
	c0,0,0,0,0.1,0c1.3-0.4,2.5-1,3.7-1.6c0.3-0.2,0.7-0.1,0.9,0.2c0.1,0.2,0.1,0.3,0.1,0.5c-0.3,2.9-0.4,5.7-0.6,8.6
	c0,0.8,0.3,0.9,0.9,0.9c2-0.1,4-0.1,6-0.1c0.7,0,0.9,0.1,0.7,0.9c-0.5,1.9-0.4,1.9-2.3,1.9c-1.5,0-3,0-4.5,0c-0.6,0-0.8,0.1-0.8,0.7
	c0,2.8-0.1,5.6-0.1,8.4c0,1.8,0,3.6,0,5.5c0,3.6,2.2,3.9,4.6,3.6c0.5-0.1,1.1-0.3,1.6-0.5c0.5-0.3,0.8-0.1,1.1,0.3
	c0.4,0.5-0.1,0.7-0.3,0.9c-0.4,0.4-0.9,0.7-1.3,1.2c-2.1,2.2-4.7,2.1-7.3,1.2c-1.7-0.6-2.9-2.3-2.9-4.1
	C419.8-225.8,420.2-228.5,420.1-230.8z"/>
<path class="st0" d="M230.3-230c-0.1,1.5-0.1,2.9-0.1,4.4c0,3.2,2.3,3.6,4.5,3.3c0.6-0.1,1.2-0.3,1.7-0.6c0.5-0.4,0.7,0,1,0.3
	c0.4,0.4,0,0.6-0.2,0.8c-0.6,0.5-1.2,1-1.8,1.5c-1.7,2.1-6.4,1.7-8.1,0.2c-1.6-1.3-1.9-3.1-1.9-5c0.2-4.8,0.1-9.6,0.2-14.4
	c0-0.7-0.2-1-0.9-1c-0.8,0.1-1.6,0-2.4,0c-0.3,0-0.8,0.1-0.8-0.4c-0.1-0.4,0.1-0.9,0.6-1c1.1-0.4,2.1-0.9,3.2-1.3
	c0.4-0.1,0.7-0.5,0.6-1c-0.1-2.2-0.1-4.5-0.2-6.7c-0.1-0.4,0.2-0.9,0.6-1c0,0,0,0,0,0c1.2-0.4,2.3-0.9,3.4-1.5
	c0.8-0.5,1.3-0.2,1.2,0.8c-0.2,2.7-0.3,5.5-0.6,8.2c-0.1,0.8,0.1,1.1,1,1.1c2-0.1,4,0,6.1-0.1c0.6,0,0.7,0.2,0.6,0.7
	c0,0.1,0,0.1,0,0.2c-0.6,2.2-0.1,1.9-2.3,1.9c-1.6,0-3.1,0-4.7,0c-0.5,0-0.6,0.1-0.6,0.6C230.3-236.6,230.3-233.3,230.3-230z"/>
<path class="st0" d="M512.4-240.1c-0.9,0-1.9,0-2.8,0c-0.5,0-0.7,0.1-0.7,0.7c0.1,4.4-0.3,8.7-0.1,13.1c0,0.3,0.1,0.6,0.1,1
	c-0.1,3.1,2,4,4.8,3.4c0.4-0.1,0.9-0.2,1.3-0.4c0.5-0.3,0.8-0.3,1.1,0.2c0.4,0.6,0,0.7-0.3,1c-0.7,0.6-1.4,1.2-2.1,1.9
	c-2.8,2.5-8.5,0.7-9.3-2.9c-0.3-1.5-0.3-3-0.2-4.5c0.2-4.2,0-8.4,0.1-12.6c0-0.4-0.1-0.6-0.6-0.5c-0.9,0-1.9,0-2.8,0
	c-0.3,0-0.7,0.1-0.8-0.4c-0.1-0.4,0-0.8,0.5-1c1.1-0.4,2.1-0.9,3.2-1.3c0.5-0.1,0.8-0.6,0.7-1.1c-0.1-2.2-0.1-4.4-0.2-6.6
	c-0.1-0.5,0.2-0.9,0.7-1c0,0,0,0,0,0c1.1-0.4,2.1-0.9,3.1-1.3c0.4-0.1,0.6-0.6,1.1-0.3c0.5,0.4,0.3,0.8,0.3,1.2
	c-0.2,2.6-0.3,5.2-0.5,7.8c-0.1,1.1,0.3,1.2,1.2,1.2c1.9-0.1,3.8-0.1,5.8-0.1c0.7,0,0.8,0.2,0.7,0.8c-0.4,1.9-0.4,1.9-2.3,1.9
	L512.4-240.1z"/>
<path class="st0" d="M274.8-239.4c1.2-1.4,2.1-2.6,3.2-3.7c1.5-1.7,3.9-2.5,6.1-1.8c0.7,0.2,1,0.5,0.9,1.3c-0.2,1.6-0.3,3.3-0.4,5
	c0,0.2,0.2,0.7-0.3,0.7c-0.4,0-0.9,0.3-1.2-0.3c-0.7-1.7-2.6-2.5-4.3-2c-1.9,0.4-3.4,2-3.6,3.9c-0.6,2.8-0.4,5.7-0.3,8.6
	c0,1.8,0,3.5,0.2,5.3c0,0.8,0.6,1.4,1.4,1.4c0,0,0.1,0,0.1,0c1,0.1,2,0.2,3,0.2c0.7,0,0.7,0.4,0.8,1c0,0.6-0.3,0.8-0.9,0.7
	c-4.4-0.3-8.7-0.3-13.1,0c-0.6,0-0.9-0.1-0.9-0.8c0-0.5,0-1,0.8-1c0.7,0,1.4-0.1,2-0.2c1.1-0.1,1.4-0.5,1.5-1.5
	c0.3-4.9,0.4-9.8,0.2-14.6c-0.1-1-0.1-1.9-0.2-2.9c0.1-0.6-0.3-1.1-0.9-1.1c0,0-0.1,0-0.2,0c-0.8-0.1-1.7-0.1-2.5-0.1
	c-0.5,0-0.9,0-0.8-0.6c0-0.5-0.1-1,0.6-1.1c2.8-0.3,5.5-0.9,8.1-1.8c0.7-0.2,0.9,0.2,0.8,0.9C274.8-242.6,274.9-241.1,274.8-239.4z"
	/>
<path class="st0" d="M446.1-218.9c-3.8-0.2-7.6-0.2-11.4,0.1c-0.6,0-1,0.1-1.1-0.7c0-0.7,0.2-1,1-1c0.6,0,1.2-0.1,1.8-0.1
	c1,0,1.4-0.6,1.5-1.5c0.3-4.9,0.4-9.8,0.2-14.7c0-0.9-0.1-1.9-0.2-2.8c0-0.8-0.5-1.1-1.2-1.2c-0.8,0-1.6-0.1-2.4-0.1
	c-0.5,0-0.7-0.2-0.7-0.8c0-0.5,0-0.9,0.7-1c2.7-0.3,5.4-0.9,8-1.8c0.6-0.2,1,0.1,0.9,0.8c-0.4,5.1-0.3,10.2-0.3,15.2
	c0,2,0.1,4.1,0.3,6.1c0.2,1.4,0.3,1.5,1.6,1.7c0.5,0.1,1,0.1,1.6,0.1c0.7,0,1.1,0.1,1.1,1C447.3-218.7,446.9-218.7,446.1-218.9z"/>
<path class="st0" d="M310.6-275.6c0.5-2.4,1.2-4.7,2.2-6.8c3-7.2,7.4-13.5,13.8-18c4-2.8,8.5-4.6,13.3-5.4c0.4,0,0.7,0,1.1,0l0,0
	c-1.3,0.7-2.7,1.3-4,2c-6.7,3.7-12.1,8.8-16.9,14.6c-3.4,4.1-6.4,8.5-9,13.1C311-275.9,311-275.6,310.6-275.6L310.6-275.6z"/>
<path class="st0" d="M305.5-279.2c2.3-8.1,6.4-15,13.1-20.2c4.7-3.7,10.3-6,16.3-6.6C321.8-300.7,312.9-290.7,305.5-279.2z"/>
<path class="st0" d="M320.2-302.9c-7.5-8.2-16.4-14.3-27.2-17.2C303.2-320.7,318.2-311.3,320.2-302.9z"/>
<path class="st0" d="M323.2-305.7c-1.6-1.5-3.1-3.2-4.8-4.7c-4.9-4.3-10.8-7.5-17.1-9.4c2.7,0.1,5.3,0.7,7.8,1.5
	c5.9,2,10.5,5.5,13.5,11C323-306.7,323.2-306.2,323.2-305.7L323.2-305.7z"/>
<path class="st0" d="M305.1-319.9c10.3,0.6,19,5.5,21.7,12.3c-2-1.9-4.1-3.7-6.4-5.3c-2.3-1.6-4.8-3.1-7.3-4.3
	C310.6-318.3,307.9-319.2,305.1-319.9z"/>
<path class="st0" d="M443.3-253.5c0,1.7-1.4,3.1-3.1,3c0,0,0,0,0,0c-1.7,0-3.1-1.4-3.1-3.1c0-1.7,1.4-3.1,3.1-3.1c0,0,0,0,0.1,0
	c1.7,0,3.1,1.3,3.1,3C443.3-253.7,443.3-253.6,443.3-253.5z"/>
<path class="st0" d="M555.3-248.3c-0.5,1.5-1,2.9-1.6,4.4c-0.1,0.3-0.1,0.8-0.7,0.8c-0.6,0-0.6-0.5-0.7-0.9c-0.5-1.4-1-2.8-1.4-4.2
	l-0.3,0c0,0.8,0,1.6,0,2.4c0,0.7,0,1.4,0,2.1c0,0.3-0.1,0.5-0.4,0.5c-0.3,0-0.6-0.1-0.6-0.5c0-2.1,0-4.1,0-6.2
	c0-0.4,0.2-0.5,0.5-0.4c0.4,0,1-0.2,1.2,0.5c0.5,1.6,1.1,3.2,1.6,4.8c0,0.1,0,0.3,0.3,0.3c0.6-1.6,1.1-3.2,1.7-4.9
	c0.1-0.3,0.1-0.7,0.5-0.7c0.5,0,1.1-0.2,1,0.8c-0.1,1.9,0,3.7,0,5.6c0,0.3,0.2,0.7-0.5,0.7c-0.6,0-0.5-0.4-0.5-0.7c0-1.5,0-3,0-4.5
	L555.3-248.3z"/>
<path class="st0" d="M546.4-246.2c0,0.7,0,1.5,0,2.2c0,0.3,0.3,0.8-0.4,0.8c-0.7,0-0.5-0.5-0.5-0.8c0-1.5,0-3.1,0-4.6
	c0-0.7-0.2-0.9-0.9-0.8c-0.4,0-0.7,0-1.1,0c-0.3,0-0.4-0.1-0.4-0.4c0-0.3,0.1-0.4,0.4-0.4c1.6,0,3.3,0,4.9,0c0.3,0,0.3,0.2,0.4,0.4
	c0,0.3-0.1,0.4-0.4,0.4c-0.1,0-0.1,0-0.2,0c-1.8,0.1-1.8,0.1-1.8,1.9L546.4-246.2z"/>
<path class="st0" d="M335.1-306.2l0.5,0c-0.1,0-0.1,0.1-0.2,0.1C335.4-306.1,335.3-306.1,335.1-306.2z"/>
<path class="st0" d="M341-305.8c0.2-0.3,0.3-0.2,0.6-0.1C341.4-305.9,341.2-305.9,341-305.8L341-305.8z"/>
<path class="st0" d="M261.1-282.3c-0.1,0-0.1,0-0.2,0c0,0,0,0-0.1,0c0,0,0.1,0,0.1,0C261-282.3,261-282.3,261.1-282.3z"/>
<path class="st0" d="M310.7-275.5l-0.1,0.3c0,0-0.1,0-0.1-0.1C310.5-275.4,310.5-275.5,310.7-275.5L310.7-275.5z"/>
<path class="st0" d="M323.2-305.6l0.1,0C323.2-305.4,323.2-305.6,323.2-305.6L323.2-305.6z"/>
<path class="st0" d="M320.4-302.6C320.3-302.6,320.3-302.6,320.4-302.6c-0.1-0.1,0-0.1,0-0.1C320.4-302.7,320.4-302.6,320.4-302.6
	C320.4-302.6,320.4-302.6,320.4-302.6z"/>
</svg>
