<svg id="globeSvg" version="1.1" xmlns="http://www.w3.org/2000/svg" xmlns:xlink="http://www.w3.org/1999/xlink" ><path class="land" width="80" height="80" fill="black" fill-opacity="1" d="M50.592754436350816,78.57192701094084L49.071833799005184,78.95634620035536L51.41264905685334,78.31782051830638ZM36.10722120202447,79.81012777208875L36.310131037365174,79.80346691645688L37.65515607611755,79.83810170281299L41.70544868756674,79.83039456262276L43.80649148244014,79.78784313491708L43.89340231139187,79.65398075769667L46.58085364061642,79.40944873979825L47.9029291728681,79.21152522522722L47.90288996133894,79.21153312813678L43.76087580298487,79.82280518992255L39.57765670231931,79.9977702645898ZM50.60912580193399,78.56742731527135L52.62573739136852,77.92999610539498L51.992337814552165,78.15997685719506L51.99229965456933,78.15998884951378ZM12.766408341404016,68.2772687956259L13.402557093812192,68.79378641571252L14.540046994040871,70.54384498055663L13.425603099973756,69.66265353073152ZM11.300056269024253,66.06686153378439L12.92875264984523,67.21891893057946L13.63358458659517,68.72682310995762L12.38268749459079,67.67247431063794ZM3.9590601033517743,57.350811259597926L3.998426003899702,57.43229317858407L4.09970923804331,57.63998648545307L4.09969159807477,57.63995058515348ZM68.86718486426315,31.44189433411004L70.81171037781083,31.85830787057727L69.54906094240037,32.586801409409404ZM65.15202082316895,30.170375546942488L68.09887444721161,31.32051030719157L66.57249873783698,31.950287800449527ZM8.653147626037804,15.152971078114376L8.869750329929097,14.890992373473168L10.130344003212272,13.443883542472143L9.136465764401574,14.643497083689788L8.307938694468533,15.630849101347899L8.307938694468533,15.630849101347899L7.538719541175297,16.635742077418534L7.577070231181864,16.574509072245966L7.577093656689009,16.574476649327906ZM63.24857693854079,11.66200864418525L65.01445883020874,12.932254815885202L64.11374531889462,13.4299411494599ZM14.745774846806931,9.31405316625353L12.309358818069796,11.313017618873111L16.432279938300564,7.991666490436785ZM50.04287519977319,6.865777651151198L51.98415643615149,7.420919942667709L50.950650427354006,7.908272941877826ZM55.18137764375297,3.068534857700776L57.31623838068293,4.054909058727773L56.336442731462306,3.8122203636944647ZM27.919149099774344,4.936194374628585L28.055482320072432,6.374118093241833L26.46674542023889,6.825801778491261L25.75964816707777,6.279330308828193ZM47.45821383733392,5.623580976898857L48.96248697601073,6.357381517984642L48.31366155147849,5.355665398690611L50.26752003502947,6.190496241220494L49.24734322638575,8.603393453653613L49.6903071048987,10.012847454286351L53.912421642053765,11.329747086947336L54.81511597280767,11.268768967251805L57.01998411983082,13.080753604935627L55.73409496167906,11.372010795972642L55.90869419069202,10.313324231371691L54.43604750900027,9.397412708591034L53.041632013910196,7.897462975015365L55.4758597789269,7.982586916636599L57.27570144980049,9.064098382851444L56.80722952064255,7.997341173141358L59.36654186747923,9.496832060060623L61.046188221558296,9.940291406594646L62.606251678129205,10.948263091840346L62.71843283424384,12.179739598689082L61.28924988410668,12.68158855578184L63.51892744387108,14.565431461958568L64.76138751403406,14.341698617613403L64.40340223615041,16.084721556692124L62.97606875310437,16.40687006331121L63.78481663768177,17.533235154507803L62.979635849621864,18.006489456482733L63.05433805282064,20.155526158968094L63.78050050899919,21.59424123641882L62.539575759917234,24.617434288047274L64.1653508056598,27.470101721365054L63.98811680765988,28.662985220497568L61.59238354615481,25.69587361621678L58.879504149539684,26.024863907753264L59.16139415452061,26.66958548447095L56.33586688319825,26.78950399794791L55.187375158672225,28.3226067051111L55.51272686164246,31.669348262871033L58.00133988983903,34.41760469058322L59.95282144735981,33.39234276406821L60.012489191954764,32.18379238255112L61.683031195273884,31.58475347649165L61.368253114992996,35.60083066001899L64.59500392127552,35.7507574633683L64.58070085015696,38.31847910201296L66.07186399135561,39.89548389336158L66.94706063087932,39.150618859883494L68.36829976676898,39.56150030992674L68.84840611202878,38.05919713170508L70.33350401076125,36.420802656465966L70.63529261675674,37.40178363830153L74.31155101285134,36.49624232702588L74.22663573759257,37.09152617818176L76.20994389102427,39.185516674684635L77.37594845786987,39.02216642611986L78.19037222057146,41.62991982575016L78.03650937300384,42.300230035652255L79.62621851244441,42.96955416640162L79.77920352173844,44.08122466866186L79.4714210744228,46.468472820720756L78.61483928354247,50.187729310297144L77.39266816579138,54.074699672755656L76.33557026991602,56.493549611180136L75.92507026488171,57.04733514211516L74.62365485708835,59.06511942886159L73.70107425403884,60.753026566575095L70.34787418138976,64.91605810787584L69.70412178002167,65.0093153001659L69.19919659604395,66.12439078193674L67.91637039137252,67.28567552430752L67.0823118035184,67.63115320792659L66.408485175125,68.51115325431736L62.6593911355489,71.47914301490509L62.78261131133422,71.71336202010356L58.52017086430817,74.54817782863842L58.11993956441687,74.26520858853524L60.08806327912804,72.21718428449282L64.25620170238734,67.7601393660812L66.33022608315588,65.20064326939223L69.58695627382525,58.78395684936106L70.046926396425,56.93426754747845L68.14812200306953,55.17040675448129L66.29103953401919,49.16366492697992L67.0703588982635,45.29684746038659L68.48914495639745,42.89970003996841L68.20096751833391,40.965469143130974L67.23001009373978,39.53918940982606L66.87501864072689,40.62029709416627L63.626261831234196,39.33438214172425L62.38236347318863,37.5552367485014L60.26919598086105,37.1203605983663L58.02082767331891,35.77713150496401L56.97004099403665,36.26053014642838L52.48550683707503,34.78844626604384L50.93479114396865,33.406723148468394L50.581528880804754,31.811730025347423L46.344659637496754,27.826340934727114L44.78967359077582,27.08020893066982L48.41781292216968,31.521340274068603L46.630710784757966,30.65953677466438L44.705021746520515,28.702433353903327L43.157922272201134,25.227903474008336L41.180994542972975,24.244473119158986L39.43483300918445,21.520177105684365L39.11684617798343,15.945935809839298L39.93561108703948,15.60151412604187L37.89213599323472,14.587853672926965L35.80745093407993,10.804026192947703L31.944852771356473,9.254279134875489L26.418732742472457,11.2412512017439L27.69058450584138,10.377549482021958L26.865836980043646,8.281102881044767L29.479754188919312,7.179372246289809L29.735727730645863,5.649483799136092L32.85668136198184,4.949516847811388L36.55997603390547,6.186166224474135L38.72624652673333,5.676560333490627L42.24998688297729,6.424731443891041L47.01741390892558,6.238617179383866L45.726193832595925,4.905280491414061ZM41.72392346000197,4.7526483767224335L43.54033961397423,4.82212093587259L45.02456088949481,6.149685333817445L42.38151451269562,6.367599442505359L40.72393181361204,5.304206843845087ZM46.83167584126592,4.32588744008644L47.25065056288103,4.045987119111508L53.7229979000317,5.4574038738124955L53.27779928341749,5.850190996794012L55.69690798498283,7.454154053602757L51.773216409765176,6.723008388079265L51.84008232691713,5.794304049041003L49.3772468280805,5.0570242480663765L47.210503697401876,5.164457569331738ZM40.489639898916685,5.360894421258358L39.29722074513844,5.196260497721312L39.571852758138,4.39872319099473L41.420227028180385,4.646227502323356ZM44.19496401043259,3.3410134226284356L46.9998366182896,3.836716700150099L45.269077742931344,3.9433967643629586ZM34.15835255787234,0.428859567079904L32.58893187040346,0.7643275384296189L31.401838641121877,0.9489185781077936L28.946019371352445,1.7557641029927922L27.35290914922014,2.2543112820988327L28.284708327680498,2.2573260136889957L26.348359727477003,3.9439505204049823L27.48030978478159,4.191245003522354L27.919149099774344,4.936194374628585L25.75964816707777,6.279330308828193L25.75964816707777,6.279330308828193L24.601236270777648,6.9803263545797165L21.527762206809747,7.633877828126856L20.72226145209171,7.198801874638782L17.735468023774054,9.103380039188728L15.177228649793374,10.34153600328029L17.49917100464192,8.372256837979222L21.472086379143853,6.735975921826096L21.129347617234682,6.181640987125462L19.314359579368055,6.75320204666027L19.50276533177298,6.01489323538604L17.422455945667494,7.024143695565257L16.11280958005745,8.15064982205896L13.677487257827327,9.997750454100554L12.015529202721957,11.419072894738136L12.015557783663048,11.419044910281634L15.156382800434724,8.650443632461648L18.56939968610596,6.225314654520844L22.217214713457654,4.170228197032387L26.05986165769574,2.50770021727903L30.055239674773617,1.2559457197132815ZM44.5072684948362,0.3241010030338387L45.893733393979616,0.446112452651775L45.24297627819735,0.45643246833811446ZM43.893190101242695,1.6301637638864435L44.641106926055826,1.6526944881878052L46.41034948716428,3.3288192326018233L45.12295773903829,3.4277765238352345L44.51441039460643,2.628117058699189L42.91525984512167,2.1387972514018756ZM44.49030246379314,0.9541188565494281L45.42555397091334,1.1389312699963199L45.67944277329182,0.8244418211084152L47.60584699168074,1.1978573066992766L50.532437196456556,1.7607699705516566L51.341009097800494,2.0819463781053145L53.37175785118045,2.6411835652886495L54.62681960805625,3.2770354842851503L56.48348146454734,4.739052229997455L59.59615157496408,6.742283551643283L58.7620294219263,6.788264946043043L54.456003428423486,4.972662279226526L51.099532491457396,3.4769623623003767L48.99769897184623,2.901692211815984L47.816652595870345,3.0623089912004104L46.09846147965385,2.6172439883911025L44.96008813577839,1.7609164838390896Z"></path><path class="viewPoly" fill="#D32F2F" fill-opacity="0.2" stroke="#D32F2F" stroke-width="2" opacity="0" d="M39.4183191024638,18.691551102680606L39.4183191024638,18.691551102680606L39.41984953419077,18.356462226964126L39.42088885299137,18.025338487413954L39.4214460643236,17.697261562429585L39.42152445166918,17.371351273351326L39.42112238527273,17.046752735940387L39.42023289227542,16.72261794068243L39.60334150241833,16.72195150946505L39.78624177470943,16.7215684174798L39.96903830238312,16.721468369334012L40.15183568485988,16.72165052512632L40.33473852249203,16.72211577174164L40.51785141595072,16.72286445155489L40.516305031539225,17.04699870163755L40.515256295237116,17.371596913214525L40.514695937099084,17.697507094047573L40.51462060871482,18.025584127257428L40.515032440148644,18.356708190828464L40.51593782770293,18.69179761359834L40.332825352635965,18.690109929624516L40.14992332850156,18.689082215393668L39.967126254707445,18.68871279486807L39.78432967166677,18.689000107804038L39.60142861404411,18.689945666148176L39.4183191024638,18.691551102680606Z"></path><defs><marker id="marker_circle" refX="0" refY="0" orient="auto" markerWidth="5" markerHeight="5" fill="#D32F2F" viewBox="-5 -5 10 10"><path d="M 0, 0  m -5, 0  a 5,5 0 1,0 10,0  a 5,5 0 1,0 -10,0"></path></marker><marker id="marker_arrow" refX="4" refY="0" orient="auto" markerWidth="5" markerHeight="5" fill="#D32F2F" viewBox="-5 -5 10 10"><path d="M 0,0 m -5,-5 L 5,0 L -5,5 Z"></path></marker></defs><path class="flyPath" stroke="#D32F2F" stroke-width="2" marker-start="url(/web/@52.968897,4.679871,-2a,2344d,30y,270h,30t,0r/data=KAI#marker_circle)" marker-end="url(/web/@52.968897,4.679871,-2a,2344d,30y,270h,30t,0r/data=KAI#marker_arrow)"></path><g><line class="viewCross" stroke="#2E7D32" stroke-width="2" x1="0" y1="6" x2="0" y2="0" transform="translate(40.00150728446291,17.503433263854077)rotate(180)" opacity="1"></line><line class="viewCross" stroke="#D32F2F" stroke-width="2" x1="0" y1="0" x2="0" y2="-6" transform="translate(40.00150728446291,17.503433263854077)rotate(180)" opacity="1"></line><line class="viewCross" stroke="#D32F2F" stroke-width="2" x1="-6" y1="0" x2="6" y2="0" transform="translate(40.00150728446291,17.503433263854077)rotate(180)" opacity="1"></line></g></svg>
